<svg width="192" height="36" viewBox="0 0 192 36" fill="none" xmlns="http://www.w3.org/2000/svg">
<path d="M36.0762 18C36.0762 27.9411 28.0173 36 18.0762 36C8.13505 36 0.0761719 27.9411 0.0761719 18C0.0761719 8.05888 8.13505 0 18.0762 0C28.0173 0 36.0762 8.05888 36.0762 18Z" fill="white"/>
<path d="M11.7606 21.2501L19.0821 17.2588C19.7603 16.8891 20.6075 17.228 20.8437 17.9635L22.5144 23.1665C22.6084 23.4592 22.5895 23.7765 22.4614 24.056L18.772 32.105C18.3545 33.0158 17.082 33.0733 16.5842 32.2038L11.2814 22.943C10.9385 22.3441 11.1547 21.5804 11.7606 21.2501Z" fill="#01BD82"/>
<path d="M27.4212 19.0606L24.3595 10.0504C24.1662 9.48134 23.3556 9.49816 23.186 10.0747L21.6012 15.4631C21.5666 15.5808 21.5679 15.7062 21.605 15.8231L23.463 21.6758C23.5938 22.0876 24.097 22.2402 24.4344 21.9703L27.2229 19.7394C27.4254 19.5775 27.5047 19.3061 27.4212 19.0606Z" fill="#FE3C77"/>
<path d="M12.7553 6.15364L21.0125 7.31663C21.7775 7.42436 22.2554 8.20168 22.0063 8.93289L20.2441 14.1057C20.145 14.3967 19.9406 14.6401 19.6711 14.788L11.9091 19.0483C11.0308 19.5304 9.97516 18.8176 10.0941 17.8228L11.361 7.22669C11.443 6.54148 12.072 6.05739 12.7553 6.15364Z" fill="#FEC726"/>
<path d="M187.628 27.8939C186.705 27.8939 185.951 27.6112 185.367 27.0459C184.802 26.4616 184.519 25.689 184.519 24.7279V16.8127H181.014V13.8728H184.519V9.51953H188.081V13.8728H191.925V16.8127H188.081V24.106C188.081 24.6713 188.345 24.954 188.872 24.954H191.586V27.8939H187.628Z" fill="white"/>
<path d="M174.495 28.2896C173.1 28.2896 171.866 27.9975 170.792 27.4133C169.736 26.8102 168.907 25.9716 168.304 24.8974C167.72 23.8044 167.428 22.5229 167.428 21.0529V20.7137C167.428 19.2438 167.72 17.9717 168.304 16.8975C168.888 15.8045 169.708 14.9658 170.763 14.3816C171.819 13.7786 173.044 13.4771 174.438 13.4771C175.814 13.4771 177.011 13.788 178.028 14.4099C179.046 15.013 179.837 15.861 180.403 16.954C180.968 18.0282 181.251 19.2815 181.251 20.7137V21.9293H171.046C171.084 22.8904 171.442 23.6725 172.12 24.2755C172.799 24.8786 173.628 25.1801 174.608 25.1801C175.607 25.1801 176.342 24.9634 176.813 24.5299C177.284 24.0965 177.642 23.6159 177.887 23.0883L180.799 24.6147C180.535 25.1047 180.148 25.6418 179.64 26.226C179.15 26.7914 178.49 27.2814 177.661 27.696C176.832 28.0917 175.776 28.2896 174.495 28.2896ZM171.074 19.272H177.633C177.557 18.4617 177.227 17.8115 176.643 17.3215C176.078 16.8316 175.333 16.5866 174.41 16.5866C173.449 16.5866 172.686 16.8316 172.12 17.3215C171.555 17.8115 171.206 18.4617 171.074 19.272Z" fill="white"/>
<path d="M152.383 27.8939V13.8729H155.888V15.7103H156.397C156.623 15.2203 157.047 14.7586 157.669 14.3252C158.291 13.8729 159.233 13.6467 160.496 13.6467C161.589 13.6467 162.541 13.9011 163.351 14.41C164.18 14.9 164.821 15.5878 165.273 16.4736C165.725 17.3404 165.952 18.3581 165.952 19.5265V27.8939H162.39V19.8092C162.39 18.7539 162.126 17.9623 161.598 17.4347C161.089 16.907 160.354 16.6432 159.393 16.6432C158.3 16.6432 157.452 17.0107 156.849 17.7456C156.246 18.4618 155.945 19.47 155.945 20.7703V27.8939H152.383Z" fill="white"/>
<path d="M142.871 27.894V13.8729H146.376V15.456H146.885C147.092 14.8906 147.432 14.476 147.903 14.2122C148.393 13.9483 148.958 13.8164 149.599 13.8164H151.295V16.9825H149.542C148.638 16.9825 147.893 17.2274 147.309 17.7174C146.725 18.1886 146.433 18.9235 146.433 19.9223V27.894H142.871Z" fill="white"/>
<path d="M134.641 28.2896C133.247 28.2896 132.012 27.9975 130.938 27.4133C129.883 26.8102 129.054 25.9716 128.451 24.8974C127.866 23.8044 127.574 22.5229 127.574 21.0529V20.7137C127.574 19.2438 127.866 17.9717 128.451 16.8975C129.035 15.8045 129.855 14.9658 130.91 14.3816C131.965 13.7786 133.19 13.4771 134.585 13.4771C135.96 13.4771 137.157 13.788 138.175 14.4099C139.192 15.013 139.984 15.861 140.549 16.954C141.115 18.0282 141.397 19.2815 141.397 20.7137V21.9293H131.193C131.23 22.8904 131.588 23.6725 132.267 24.2755C132.945 24.8786 133.774 25.1801 134.754 25.1801C135.753 25.1801 136.488 24.9634 136.959 24.5299C137.43 24.0965 137.788 23.6159 138.033 23.0883L140.945 24.6147C140.681 25.1047 140.295 25.6418 139.786 26.226C139.296 26.7914 138.637 27.2814 137.807 27.696C136.978 28.0917 135.923 28.2896 134.641 28.2896ZM131.221 19.272H137.779C137.704 18.4617 137.374 17.8115 136.79 17.3215C136.224 16.8316 135.48 16.5866 134.556 16.5866C133.595 16.5866 132.832 16.8316 132.267 17.3215C131.701 17.8115 131.353 18.4617 131.221 19.272Z" fill="white"/>
<path d="M122.925 27.8939C122.002 27.8939 121.248 27.6112 120.664 27.0459C120.098 26.4616 119.816 25.689 119.816 24.7279V16.8127H116.311V13.8728H119.816V9.51953H123.378V13.8728H127.222V16.8127H123.378V24.106C123.378 24.6713 123.641 24.954 124.169 24.954H126.883V27.8939H122.925Z" fill="white"/>
<path d="M102.217 27.8939V13.8729H105.722V15.7103H106.231C106.457 15.2203 106.881 14.7586 107.503 14.3252C108.125 13.8729 109.067 13.6467 110.33 13.6467C111.423 13.6467 112.375 13.9011 113.185 14.41C114.014 14.9 114.655 15.5878 115.107 16.4736C115.559 17.3404 115.786 18.3581 115.786 19.5265V27.8939H112.224V19.8092C112.224 18.7539 111.96 17.9623 111.432 17.4347C110.923 16.907 110.188 16.6432 109.227 16.6432C108.134 16.6432 107.286 17.0107 106.683 17.7456C106.08 18.4618 105.779 19.47 105.779 20.7703V27.8939H102.217Z" fill="white"/>
<path d="M96.4053 27.894V13.8729H99.9671V27.894H96.4053ZM98.1862 12.2334C97.5455 12.2334 96.9989 12.0261 96.5467 11.6115C96.1132 11.1969 95.8965 10.6503 95.8965 9.97191C95.8965 9.29347 96.1132 8.74695 96.5467 8.33235C96.9989 7.91775 97.5455 7.71045 98.1862 7.71045C98.8458 7.71045 99.3923 7.91775 99.8258 8.33235C100.259 8.74695 100.476 9.29347 100.476 9.97191C100.476 10.6503 100.259 11.1969 99.8258 11.6115C99.3923 12.0261 98.8458 12.2334 98.1862 12.2334Z" fill="white"/>
<path d="M85.7286 28.2897C84.6167 28.2897 83.5708 28.0165 82.5908 27.47C81.6297 26.9046 80.857 26.0848 80.2728 25.0106C79.6886 23.9364 79.3965 22.6361 79.3965 21.1096V20.6573C79.3965 19.1308 79.6886 17.8305 80.2728 16.7563C80.857 15.6821 81.6297 14.8717 82.5908 14.3252C83.5519 13.7599 84.5978 13.4772 85.7286 13.4772C86.5766 13.4772 87.2833 13.5808 87.8487 13.7881C88.4329 13.9766 88.904 14.2216 89.2621 14.5231C89.6202 14.8246 89.8934 15.145 90.0819 15.4842H90.5907V8.1062H94.1525V27.894H90.6473V26.1979H90.1384C89.818 26.7256 89.3186 27.2061 88.6402 27.6396C87.9806 28.073 87.0101 28.2897 85.7286 28.2897ZM86.8028 25.1802C87.8958 25.1802 88.8098 24.8316 89.5448 24.1343C90.2798 23.4182 90.6473 22.3817 90.6473 21.0248V20.7421C90.6473 19.3852 90.2798 18.3582 89.5448 17.6609C88.8287 16.9447 87.9147 16.5867 86.8028 16.5867C85.7097 16.5867 84.7957 16.9447 84.0607 17.6609C83.3258 18.3582 82.9583 19.3852 82.9583 20.7421V21.0248C82.9583 22.3817 83.3258 23.4182 84.0607 24.1343C84.7957 24.8316 85.7097 25.1802 86.8028 25.1802Z" fill="white"/>
<path d="M71.0605 27.894V13.8729H74.5658V15.456H75.0746C75.2819 14.8906 75.6212 14.476 76.0923 14.2122C76.5823 13.9483 77.1476 13.8164 77.7884 13.8164H79.4845V16.9825H77.7319C76.8273 16.9825 76.0829 17.2274 75.4987 17.7174C74.9145 18.1886 74.6223 18.9235 74.6223 19.9223V27.894H71.0605Z" fill="white"/>
<path d="M65.2471 27.894V13.8729H68.8089V27.894H65.2471ZM67.028 12.2334C66.3873 12.2334 65.8407 12.0261 65.3885 11.6115C64.955 11.1969 64.7383 10.6503 64.7383 9.97191C64.7383 9.29347 64.955 8.74695 65.3885 8.33235C65.8407 7.91775 66.3873 7.71045 67.028 7.71045C67.6876 7.71045 68.2341 7.91775 68.6676 8.33235C69.101 8.74695 69.3177 9.29347 69.3177 9.97191C69.3177 10.6503 69.101 11.1969 68.6676 11.6115C68.2341 12.0261 67.6876 12.2334 67.028 12.2334Z" fill="white"/>
<path d="M49.5234 27.894V8.1062H53.0852V15.5973H53.5941C53.7448 15.2958 53.9804 14.9942 54.3008 14.6927C54.6211 14.3912 55.0452 14.1462 55.5728 13.9577C56.1194 13.7504 56.8072 13.6468 57.6364 13.6468C58.7295 13.6468 59.6812 13.9012 60.4915 14.41C61.3207 14.9 61.9615 15.5879 62.4138 16.4736C62.8661 17.3405 63.0922 18.3582 63.0922 19.5266V27.894H59.5304V19.8093C59.5304 18.7539 59.2666 17.9624 58.7389 17.4347C58.2301 16.9071 57.4951 16.6432 56.534 16.6432C55.4409 16.6432 54.5929 17.0107 53.9898 17.7457C53.3868 18.4618 53.0852 19.47 53.0852 20.7704V27.894H49.5234Z" fill="white"/>
<path d="M43.6988 27.8939C42.7753 27.8939 42.0215 27.6112 41.4373 27.0459C40.8719 26.4616 40.5892 25.689 40.5892 24.7279V16.8127H37.084V13.8728H40.5892V9.51953H44.151V13.8728H47.9955V16.8127H44.151V24.106C44.151 24.6713 44.4149 24.954 44.9426 24.954H47.6563V27.8939H43.6988Z" fill="white"/>
</svg>
