<svg width="428" height="432" viewBox="0 0 428 432" fill="none" xmlns="http://www.w3.org/2000/svg">
<rect width="428" height="432" rx="10" fill="#FBF8FC"/>
<path d="M40.648 299V265.4H46.168V299H40.648ZM44.44 299V293.96H62.008V299H44.44ZM75.1698 299.48C73.0898 299.48 71.2018 298.952 69.5058 297.896C67.8418 296.84 66.5138 295.416 65.5218 293.624C64.5618 291.8 64.0818 289.768 64.0818 287.528C64.0818 285.256 64.5618 283.224 65.5218 281.432C66.5138 279.608 67.8418 278.168 69.5058 277.112C71.2018 276.024 73.0898 275.48 75.1698 275.48C76.9298 275.48 78.4818 275.864 79.8258 276.632C81.2018 277.368 82.2898 278.392 83.0898 279.704C83.8898 281.016 84.2898 282.504 84.2898 284.168V290.792C84.2898 292.456 83.8898 293.944 83.0898 295.256C82.3218 296.568 81.2498 297.608 79.8738 298.376C78.4978 299.112 76.9298 299.48 75.1698 299.48ZM76.0338 294.488C77.9858 294.488 79.5538 293.832 80.7378 292.52C81.9538 291.208 82.5618 289.528 82.5618 287.48C82.5618 286.104 82.2898 284.888 81.7458 283.832C81.2018 282.776 80.4338 281.96 79.4418 281.384C78.4818 280.776 77.3458 280.472 76.0338 280.472C74.7538 280.472 73.6178 280.776 72.6258 281.384C71.6658 281.96 70.8978 282.776 70.3218 283.832C69.7778 284.888 69.5058 286.104 69.5058 287.48C69.5058 288.856 69.7778 290.072 70.3218 291.128C70.8978 292.184 71.6658 293.016 72.6258 293.624C73.6178 294.2 74.7538 294.488 76.0338 294.488ZM82.2258 299V292.808L83.1378 287.192L82.2258 281.624V275.96H87.5058V299H82.2258ZM109.158 299V285.704C109.158 284.168 108.662 282.904 107.67 281.912C106.71 280.92 105.462 280.424 103.926 280.424C102.902 280.424 101.99 280.648 101.19 281.096C100.39 281.544 99.7655 282.168 99.3175 282.968C98.8695 283.768 98.6455 284.68 98.6455 285.704L96.5815 284.552C96.5815 282.792 96.9655 281.24 97.7335 279.896C98.5015 278.52 99.5575 277.448 100.902 276.68C102.278 275.88 103.814 275.48 105.51 275.48C107.238 275.48 108.774 275.928 110.118 276.824C111.462 277.688 112.518 278.824 113.286 280.232C114.054 281.608 114.438 283.048 114.438 284.552V299H109.158ZM93.3655 299V275.96H98.6455V299H93.3655ZM129.403 309.08C126.971 309.08 124.843 308.632 123.019 307.736C121.195 306.872 119.723 305.64 118.603 304.04L122.059 300.584C122.987 301.736 124.043 302.6 125.227 303.176C126.411 303.752 127.835 304.04 129.499 304.04C131.579 304.04 133.227 303.496 134.443 302.408C135.659 301.352 136.267 299.896 136.267 298.04V292.376L137.179 287.288L136.267 282.152V275.96H141.547V298.04C141.547 300.248 141.035 302.168 140.011 303.8C138.987 305.464 137.563 306.76 135.739 307.688C133.915 308.616 131.803 309.08 129.403 309.08ZM129.163 298.52C127.115 298.52 125.259 298.024 123.595 297.032C121.963 296.008 120.667 294.616 119.707 292.856C118.779 291.096 118.315 289.128 118.315 286.952C118.315 284.776 118.779 282.824 119.707 281.096C120.667 279.368 121.963 278.008 123.595 277.016C125.259 275.992 127.115 275.48 129.163 275.48C130.987 275.48 132.587 275.848 133.963 276.584C135.339 277.32 136.411 278.344 137.179 279.656C137.947 280.936 138.331 282.44 138.331 284.168V289.832C138.331 291.528 137.931 293.032 137.131 294.344C136.363 295.656 135.291 296.68 133.915 297.416C132.539 298.152 130.955 298.52 129.163 298.52ZM130.219 293.528C131.499 293.528 132.619 293.256 133.579 292.712C134.539 292.168 135.275 291.416 135.787 290.456C136.331 289.464 136.603 288.312 136.603 287C136.603 285.688 136.331 284.552 135.787 283.592C135.275 282.6 134.539 281.832 133.579 281.288C132.619 280.744 131.499 280.472 130.219 280.472C128.939 280.472 127.803 280.744 126.811 281.288C125.851 281.832 125.099 282.6 124.555 283.592C124.011 284.552 123.739 285.688 123.739 287C123.739 288.28 124.011 289.416 124.555 290.408C125.099 291.4 125.851 292.168 126.811 292.712C127.803 293.256 128.939 293.528 130.219 293.528ZM156.868 299.48C154.916 299.48 153.172 299.048 151.636 298.184C150.132 297.32 148.948 296.136 148.084 294.632C147.252 293.096 146.836 291.336 146.836 289.352V275.96H152.116V289.112C152.116 290.232 152.292 291.192 152.644 291.992C153.028 292.76 153.572 293.352 154.276 293.768C155.012 294.184 155.876 294.392 156.868 294.392C158.404 294.392 159.572 293.944 160.372 293.048C161.204 292.12 161.62 290.808 161.62 289.112V275.96H166.9V289.352C166.9 291.368 166.468 293.144 165.604 294.68C164.772 296.184 163.604 297.368 162.1 298.232C160.596 299.064 158.852 299.48 156.868 299.48ZM181.857 299.48C179.777 299.48 177.889 298.952 176.193 297.896C174.529 296.84 173.201 295.416 172.209 293.624C171.249 291.8 170.769 289.768 170.769 287.528C170.769 285.256 171.249 283.224 172.209 281.432C173.201 279.608 174.529 278.168 176.193 277.112C177.889 276.024 179.777 275.48 181.857 275.48C183.617 275.48 185.169 275.864 186.513 276.632C187.889 277.368 188.977 278.392 189.777 279.704C190.577 281.016 190.977 282.504 190.977 284.168V290.792C190.977 292.456 190.577 293.944 189.777 295.256C189.009 296.568 187.937 297.608 186.561 298.376C185.185 299.112 183.617 299.48 181.857 299.48ZM182.721 294.488C184.673 294.488 186.241 293.832 187.425 292.52C188.641 291.208 189.249 289.528 189.249 287.48C189.249 286.104 188.977 284.888 188.433 283.832C187.889 282.776 187.121 281.96 186.129 281.384C185.169 280.776 184.033 280.472 182.721 280.472C181.441 280.472 180.305 280.776 179.313 281.384C178.353 281.96 177.585 282.776 177.009 283.832C176.465 284.888 176.193 286.104 176.193 287.48C176.193 288.856 176.465 290.072 177.009 291.128C177.585 292.184 178.353 293.016 179.313 293.624C180.305 294.2 181.441 294.488 182.721 294.488ZM188.913 299V292.808L189.825 287.192L188.913 281.624V275.96H194.193V299H188.913ZM209.653 309.08C207.221 309.08 205.093 308.632 203.269 307.736C201.445 306.872 199.973 305.64 198.853 304.04L202.309 300.584C203.237 301.736 204.293 302.6 205.477 303.176C206.661 303.752 208.085 304.04 209.749 304.04C211.829 304.04 213.477 303.496 214.693 302.408C215.909 301.352 216.517 299.896 216.517 298.04V292.376L217.429 287.288L216.517 282.152V275.96H221.797V298.04C221.797 300.248 221.285 302.168 220.261 303.8C219.237 305.464 217.813 306.76 215.989 307.688C214.165 308.616 212.053 309.08 209.653 309.08ZM209.413 298.52C207.365 298.52 205.509 298.024 203.845 297.032C202.213 296.008 200.917 294.616 199.957 292.856C199.029 291.096 198.565 289.128 198.565 286.952C198.565 284.776 199.029 282.824 199.957 281.096C200.917 279.368 202.213 278.008 203.845 277.016C205.509 275.992 207.365 275.48 209.413 275.48C211.237 275.48 212.837 275.848 214.213 276.584C215.589 277.32 216.661 278.344 217.429 279.656C218.197 280.936 218.581 282.44 218.581 284.168V289.832C218.581 291.528 218.181 293.032 217.381 294.344C216.613 295.656 215.541 296.68 214.165 297.416C212.789 298.152 211.205 298.52 209.413 298.52ZM210.469 293.528C211.749 293.528 212.869 293.256 213.829 292.712C214.789 292.168 215.525 291.416 216.037 290.456C216.581 289.464 216.853 288.312 216.853 287C216.853 285.688 216.581 284.552 216.037 283.592C215.525 282.6 214.789 281.832 213.829 281.288C212.869 280.744 211.749 280.472 210.469 280.472C209.189 280.472 208.053 280.744 207.061 281.288C206.101 281.832 205.349 282.6 204.805 283.592C204.261 284.552 203.989 285.688 203.989 287C203.989 288.28 204.261 289.416 204.805 290.408C205.349 291.4 206.101 292.168 207.061 292.712C208.053 293.256 209.189 293.528 210.469 293.528ZM238.366 299.48C236.062 299.48 233.982 298.968 232.126 297.944C230.302 296.888 228.846 295.448 227.758 293.624C226.702 291.8 226.174 289.752 226.174 287.48C226.174 285.208 226.702 283.176 227.758 281.384C228.814 279.56 230.238 278.12 232.03 277.064C233.854 276.008 235.87 275.48 238.078 275.48C240.222 275.48 242.11 275.976 243.742 276.968C245.406 277.96 246.702 279.32 247.63 281.048C248.59 282.776 249.07 284.744 249.07 286.952C249.07 287.336 249.038 287.736 248.974 288.152C248.942 288.536 248.878 288.968 248.782 289.448H229.87V285.128H246.046L244.078 286.856C244.014 285.448 243.742 284.264 243.262 283.304C242.782 282.344 242.094 281.608 241.198 281.096C240.334 280.584 239.262 280.328 237.982 280.328C236.638 280.328 235.47 280.616 234.478 281.192C233.486 281.768 232.718 282.584 232.174 283.64C231.63 284.664 231.358 285.896 231.358 287.336C231.358 288.776 231.646 290.04 232.222 291.128C232.798 292.216 233.614 293.064 234.67 293.672C235.726 294.248 236.942 294.536 238.318 294.536C239.502 294.536 240.59 294.328 241.582 293.912C242.606 293.496 243.47 292.888 244.174 292.088L247.534 295.496C246.414 296.808 245.054 297.8 243.454 298.472C241.854 299.144 240.158 299.48 238.366 299.48Z" fill="white"/>
<path opacity="0.5" d="M376.538 215.076C376.538 297.697 302.555 364.675 211.293 364.675C120.031 364.675 46.0488 297.697 46.0488 215.076C46.0488 132.455 124.598 90.678 215.86 90.678C307.122 90.678 376.538 132.455 376.538 215.076Z" fill="#AFBEE2"/>
<path d="M110.092 96.8012C104.986 100.512 124.165 366.637 129.851 371.276C135.537 375.915 323.187 361.658 325.47 355.906C327.752 350.154 306 91.0252 303.556 86.7202C301.111 82.4162 110.092 96.8012 110.092 96.8012Z" fill="#192E5E"/>
<path d="M296.833 94.7052C293.726 90.9972 263.268 94.0042 263.268 94.0042L285.313 343.036C285.313 343.036 316.557 341.579 318.521 338.589C320.484 335.6 299.94 98.4122 296.833 94.7052Z" fill="white"/>
<path d="M290.207 112.147L308.691 309.12" stroke="#EFAC95" stroke-width="1.0327" stroke-miterlimit="10" stroke-linecap="round" stroke-linejoin="round"/>
<path d="M297.738 132.208L312.888 293.042" stroke="#EFAC95" stroke-width="1.0327" stroke-miterlimit="10" stroke-linecap="round" stroke-linejoin="round"/>
<path d="M318.684 353.766C321.417 350.535 317.379 316.174 317.379 316.174L129.766 334.272C129.766 334.272 134.138 365.296 136.439 367.453C138.74 369.61 315.951 356.997 318.684 353.766Z" fill="white"/>
<path d="M304.457 348.439L155.74 359.608" stroke="#EFAC95" stroke-width="1.2047" stroke-miterlimit="10" stroke-linecap="round" stroke-linejoin="round"/>
<path d="M292.857 353.049L171.523 363.429" stroke="#EFAC95" stroke-width="1.2047" stroke-miterlimit="10" stroke-linecap="round" stroke-linejoin="round"/>
<path d="M298.357 345.453L122.411 357.673L104.119 94.2981L280.065 82.0781C283.872 81.8141 287.172 84.6851 287.436 88.4921L304.771 338.081C305.035 341.889 302.164 345.189 298.357 345.453Z" fill="#304886"/>
<path d="M122.143 105.969C123.97 212.366 138.452 340.786 138.452 340.786" stroke="white" stroke-width="1.4047" stroke-miterlimit="10" stroke-linecap="round" stroke-linejoin="round"/>
<g opacity="0.15">
<path d="M144.323 93.2773C132.176 111.316 119.985 129.358 107.816 147.399C108.163 154.018 108.559 161.018 108.992 168.241C130.095 142.846 150.913 117.246 171.49 91.4353C161.975 92.0513 152.71 92.6943 144.323 93.2773Z" fill="white"/>
<path d="M178.8 90.9502C156.553 121.35 133.522 151.195 109.748 180.435C110.635 194.18 111.622 208.392 112.663 222.08C148.21 177.56 183.757 133.04 219.281 88.5222C206.765 89.1892 192.657 90.0562 178.8 90.9502Z" fill="white"/>
</g>
<path d="M296.188 327.838C296.125 331.635 293.217 334.786 289.438 335.159C242.723 339.778 195.732 342.706 149.266 343.694" stroke="white" stroke-width="1.4047" stroke-miterlimit="10" stroke-linecap="round" stroke-linejoin="round"/>
<path d="M268.589 260.323C274.578 227.2 252.581 195.494 219.458 189.506C186.336 183.518 154.63 205.514 148.642 238.637C142.653 271.76 164.65 303.465 197.773 309.454C230.895 315.442 262.601 293.445 268.589 260.323Z" fill="#192E5E"/>
<mask id="mask0_104_411" style="mask-type:luminance" maskUnits="userSpaceOnUse" x="151" y="193" width="114" height="114">
<path d="M248.028 289.658C270.134 267.551 270.134 231.709 248.028 209.603C225.921 187.496 190.079 187.496 167.973 209.603C145.866 231.709 145.866 267.551 167.973 289.658C190.079 311.764 225.921 311.764 248.028 289.658Z" fill="white"/>
</mask>
<g mask="url(#mask0_104_411)">
<path d="M308.841 188.266C314.11 227.795 314.773 266.942 310.979 306.074C243.882 313.418 177.09 317.131 110.305 317.199C103.745 278.6 101.442 239.468 103.515 199.498C171.54 192.84 239.99 189.108 308.841 188.266Z" fill="#304886"/>
<path d="M103.514 199.497C103.317 203.317 103.159 207.129 103.041 210.934C167.172 241.283 240.627 278.325 302.041 307.028C305.02 306.717 307.999 306.398 310.978 306.074C311.529 300.385 311.986 294.694 312.348 289.002C252.442 261.568 183.5 226.858 123.53 197.628C116.852 198.224 110.183 198.847 103.514 199.497Z" fill="white"/>
<path d="M103.513 199.497C103.412 201.459 103.32 203.419 103.24 205.377C169.662 236.933 247.076 276.064 311.024 305.579C311.382 301.852 311.698 298.126 311.975 294.398C249.559 265.766 176.406 228.851 113.585 198.536C110.227 198.85 106.87 199.17 103.513 199.497Z" fill="#CD5B62"/>
<path d="M308.842 188.266C309.344 192.043 309.806 195.817 310.225 199.587C248.165 236.643 177.771 281.611 119.165 317.165C116.211 317.183 113.259 317.194 110.305 317.198C109.352 311.584 108.488 305.96 107.715 300.323C164.804 266.23 230.723 224.1 288.527 188.602C295.295 188.463 302.066 188.352 308.842 188.266Z" fill="white"/>
<path d="M308.842 188.266C309.1 190.206 309.347 192.145 309.583 194.083C245.341 232.569 171.209 280.049 110.222 316.71C109.602 313.032 109.019 309.351 108.475 305.664C167.977 270.079 237.972 225.287 298.611 188.416C302.02 188.359 305.43 188.309 308.842 188.266Z" fill="#CD5B62"/>
<path d="M312.797 231.796C283.333 233.227 253.925 234.729 224.573 236.311C223.973 221.222 223.26 206.069 222.439 190.852C211.309 191.383 200.196 191.991 189.088 192.677C189.474 207.921 189.943 223.09 190.501 238.184C161.271 239.822 132.099 241.539 102.988 243.329C103.29 253.819 103.899 264.259 104.813 274.652C133.787 273.602 162.796 272.325 191.847 270.812C192.525 285.681 193.287 300.478 194.133 315.203C204.986 314.698 215.841 314.097 226.7 313.398C226.473 298.641 226.142 283.823 225.703 268.944C254.865 267.246 284.078 265.312 313.346 263.148C313.485 252.71 313.302 242.262 312.797 231.796Z" fill="white"/>
<path d="M313.003 236.512C281.819 238.146 250.7 239.808 219.642 241.506C219.002 224.783 218.261 207.98 217.424 191.095C209.64 191.483 201.865 191.908 194.092 192.371C194.592 209.276 195.162 226.091 195.8 242.816C164.852 244.527 133.967 246.275 103.145 248.052C103.421 255.384 103.846 262.691 104.423 269.975C135.142 268.746 165.905 267.312 196.72 265.666C197.421 282.187 198.187 298.62 199.022 314.967C206.615 314.593 214.209 314.173 221.806 313.704C221.451 297.333 221.002 280.884 220.456 264.357C251.373 262.6 282.351 260.63 313.386 258.453C313.418 251.148 313.291 243.834 313.003 236.512Z" fill="#CD5B62"/>
</g>
<path d="M208.498 305.722C239.765 305.722 265.113 280.375 265.113 249.107C265.113 217.84 239.765 192.492 208.498 192.492C177.23 192.492 151.883 217.84 151.883 249.107C151.883 280.375 177.23 305.722 208.498 305.722Z" stroke="white" stroke-width="0.9641" stroke-miterlimit="10"/>
<path d="M136.214 356.694C135.249 370.617 132.585 383.424 126.761 393.11C125.841 394.639 127.465 396.434 129.09 395.695L134.266 393.342C135.04 392.99 135.955 393.219 136.473 393.894L141.032 399.84C141.816 400.863 143.39 400.78 144.055 399.676C151.007 388.132 154.214 373.677 154.071 355.498L136.214 356.694Z" fill="#EFC83E"/>
<path d="M273.354 298.433C274.083 297.637 274.831 296.859 275.598 296.099" stroke="#304886" stroke-width="1.1287" stroke-miterlimit="10" stroke-linecap="round"/>
<path d="M280.443 291.745C289.862 284.068 301.34 278.911 313.358 277.083C328.592 274.766 344.588 277.816 357.901 285.574C372.365 294.004 383.985 309.398 383.086 326.115C382.361 339.603 372.94 352.222 360.215 356.751C355.708 358.355 350.688 358.992 346.144 357.494C341.6 355.997 337.692 352.046 337.194 347.288C336.461 340.282 343.811 334.153 350.826 334.803C357.841 335.453 363.562 341.454 365.487 348.231C367.412 355.008 366.125 362.329 363.65 368.925C358.364 383.013 347.558 394.946 334.062 401.599C322.511 407.294 309.092 409.07 296.44 406.713" stroke="#304886" stroke-width="1.1287" stroke-miterlimit="10" stroke-linecap="round" stroke-dasharray="6.52 6.52"/>
<path d="M293.248 406.028C292.2 405.772 291.158 405.486 290.125 405.172" stroke="#304886" stroke-width="1.1287" stroke-miterlimit="10" stroke-linecap="round"/>
<path d="M189.658 150.797C190.502 149.825 191.322 148.833 192.118 147.822" stroke="#304886" stroke-width="1.3458" stroke-miterlimit="10" stroke-linecap="round"/>
<path d="M196.617 141.491C204.431 129.291 208.982 114.995 209.516 100.511C210.192 82.1511 204.408 63.6171 193.41 48.9001C181.461 32.9111 161.648 21.2371 141.967 24.5711C126.088 27.2611 112.42 40.1341 108.782 55.8231C107.494 61.3801 107.421 67.4131 109.812 72.5911C112.202 77.7701 117.412 81.8641 123.116 81.8071C131.515 81.7241 137.777 72.1851 136.055 63.9641C134.333 55.7431 126.447 49.7801 118.159 48.4201C109.87 47.0591 101.372 49.5791 93.8953 53.4061C77.9253 61.5811 65.2573 76.0011 59.2083 92.8911C54.0313 107.348 53.7483 123.484 58.2583 138.152" stroke="#304886" stroke-width="1.3458" stroke-miterlimit="10" stroke-linecap="round" stroke-dasharray="7.77 7.77"/>
<path d="M59.5039 141.838C59.9499 143.045 60.4289 144.24 60.9419 145.42" stroke="#304886" stroke-width="1.3458" stroke-miterlimit="10" stroke-linecap="round"/>
<path opacity="0.5" d="M377.379 103.275C377.379 103.275 336.009 105.139 329.115 103.275C322.22 101.412 327.491 87.435 337.226 93.958C337.226 93.958 335.199 80.913 344.121 78.584C353.045 76.255 356.29 87.902 356.29 87.902C356.29 87.902 358.318 73.926 368.052 76.255C376.082 78.176 373.73 89.299 373.73 89.299C373.73 89.299 382.248 82.311 385.087 91.628C387.004 97.924 381.436 103.741 377.379 103.275Z" fill="#AFBEE2"/>
<path opacity="0.5" d="M63.7328 357.981C63.7328 357.981 61.6868 344.818 70.6898 342.468C77.7228 340.632 81.2588 347.398 82.4718 350.45C82.4938 352.582 82.1498 354.22 82.1498 354.22C82.1498 354.22 90.7428 347.169 93.6088 356.57C95.1778 361.721 91.7808 366.554 88.2578 367.947C75.6828 368.294 59.6298 368.485 55.5478 367.382C48.5908 365.502 53.9098 351.399 63.7328 357.981Z" fill="#AFBEE2"/>
<path d="M337.326 38.7311H331.854L335.723 34.8621L334.576 33.7141L330.706 37.5841V32.1121H329.084V37.5841L325.215 33.7141L324.067 34.8621L327.937 38.7311H322.465V40.3531H327.937L324.067 44.2231L325.215 45.3701L329.084 41.5011V46.9731H330.706V41.5011L334.576 45.3701L335.723 44.2231L331.854 40.3531H337.326V38.7311Z" fill="#C94B58"/>
<path d="M45.0962 308.631H40.5012L43.7502 305.382L42.7872 304.418L39.5382 307.667V303.072H38.1762V307.667L34.9262 304.418L33.9632 305.382L37.2122 308.631H32.6172V309.993H37.2122L33.9632 313.242L34.9262 314.205L38.1762 310.956V315.551H39.5382V310.956L42.7872 314.205L43.7502 313.242L40.5012 309.993H45.0962V308.631Z" fill="#576DAF"/>
<path d="M392.921 279.586H388.736L391.695 276.627L390.818 275.75L387.859 278.709V274.524H386.619V278.709L383.659 275.75L382.782 276.627L385.741 279.586H381.557V280.827H385.741L382.782 283.786L383.659 284.663L386.619 281.704V285.888H387.859V281.704L390.818 284.663L391.695 283.786L388.736 280.827H392.921V279.586Z" fill="#EFC83E"/>
<path d="M22.539 198.444L23.554 200.936C23.93 201.859 24.663 202.592 25.586 202.968L28.078 203.983L25.586 204.998C24.663 205.374 23.93 206.107 23.554 207.03L22.539 209.522L21.524 207.03C21.148 206.107 20.415 205.374 19.492 204.998L17 203.983L19.492 202.968C20.416 202.592 21.148 201.859 21.524 200.936L22.539 198.444Z" fill="#EFC83E"/>
<path d="M347.628 207.667L348.318 209.362C348.574 209.99 349.072 210.488 349.7 210.744L351.395 211.434L349.7 212.124C349.072 212.38 348.574 212.878 348.318 213.506L347.628 215.201L346.938 213.506C346.682 212.878 346.184 212.38 345.556 212.124L343.861 211.434L345.556 210.744C346.184 210.488 346.682 209.99 346.938 209.362L347.628 207.667Z" fill="#304886"/>
<path d="M79.4691 233.872C79.4691 235.234 78.3651 236.338 77.0031 236.338C75.6411 236.338 74.5371 235.234 74.5371 233.872C74.5371 232.51 75.6411 231.406 77.0031 231.406C78.3641 231.406 79.4691 232.51 79.4691 233.872Z" fill="#C94B58"/>
<path d="M410.003 324.242C409.961 325.081 409.246 325.728 408.407 325.686C407.568 325.644 406.922 324.929 406.963 324.09C407.005 323.25 407.72 322.604 408.559 322.645C409.398 322.688 410.045 323.403 410.003 324.242Z" fill="#304886"/>
<path d="M329.937 137.362C329.937 138.437 329.066 139.309 327.99 139.309C326.915 139.309 326.043 138.437 326.043 137.362C326.043 136.287 326.914 135.415 327.99 135.415C329.065 135.415 329.937 136.286 329.937 137.362Z" fill="#C94B58"/>
<path d="M389.713 155.663L390.447 157.465C390.719 158.133 391.249 158.663 391.917 158.935L393.719 159.669L391.917 160.403C391.249 160.675 390.719 161.205 390.447 161.873L389.713 163.675L388.979 161.873C388.707 161.205 388.177 160.675 387.509 160.403L385.707 159.669L387.509 158.935C388.177 158.663 388.707 158.133 388.979 157.465L389.713 155.663Z" fill="#C94B58"/>
<path d="M220.182 45.365L220.916 47.167C221.188 47.835 221.718 48.365 222.386 48.637L224.188 49.371L222.386 50.105C221.718 50.377 221.188 50.907 220.916 51.575L220.182 53.377L219.448 51.575C219.176 50.907 218.646 50.377 217.978 50.105L216.176 49.371L217.978 48.637C218.646 48.365 219.176 47.835 219.448 47.167L220.182 45.365Z" fill="#C94B58"/>
<path d="M170.363 72C170.363 73.075 169.491 73.947 168.416 73.947C167.341 73.947 166.469 73.075 166.469 72C166.469 70.925 167.341 70.053 168.416 70.053C169.492 70.053 170.363 70.925 170.363 72Z" fill="#EFC83E"/>
<path d="M279.127 388.74H273.798L277.566 384.971L276.449 383.854L272.681 387.622V382.293H271.101V387.622L267.333 383.854L266.215 384.971L269.984 388.74H264.654V390.319H269.984L266.215 394.088L267.333 395.205L271.101 391.436V396.766H272.681V391.436L276.449 395.205L277.566 394.088L273.798 390.319H279.127V388.74Z" fill="#CD5B62"/>
<path d="M193.575 388.707L194.361 390.638C194.652 391.354 195.22 391.922 195.936 392.213L197.867 392.999L195.936 393.785C195.22 394.076 194.652 394.644 194.361 395.36L193.575 397.291L192.789 395.36C192.497 394.644 191.93 394.076 191.214 393.785L189.283 392.999L191.214 392.213C191.93 391.921 192.497 391.354 192.789 390.638L193.575 388.707Z" fill="#304886"/>
<path d="M229.499 406.978C229.499 408.053 228.628 408.925 227.552 408.925C226.477 408.925 225.605 408.053 225.605 406.978C225.605 405.903 226.476 405.031 227.552 405.031C228.628 405.032 229.499 405.903 229.499 406.978Z" fill="#EFC83E"/>
<path d="M279.422 47.5111C266.261 48.4251 256.334 59.8591 257.25 73.0491C257.596 78.0271 259.439 82.5421 262.304 86.1881L254.655 93.7341C253.347 95.0251 254.349 97.2501 256.18 97.1231L282.739 95.2781C295.9 94.3641 305.825 82.9301 304.909 69.7401C303.994 56.5491 292.583 46.5971 279.422 47.5111Z" fill="#EFC83E"/>
<path d="M269.693 79.6761L278.143 59.3181L283.759 59.1921L293.137 79.1531L287.203 79.2851L279.846 62.0741L282.093 62.0241L275.51 79.5451L269.693 79.6761ZM274.473 75.6501L275.849 71.4121L285.699 71.1921L287.262 75.3641L274.473 75.6501Z" fill="#304886"/>
<path d="M104.829 153.586C122.794 153.586 137.358 168.182 137.358 186.188C137.358 192.983 135.282 199.291 131.734 204.513L142.835 214.043C144.734 215.673 143.584 218.79 141.084 218.79H104.83C86.8648 218.79 72.3008 204.194 72.3008 186.188C72.2998 168.182 86.8638 153.586 104.829 153.586Z" fill="#EFC83E"/>
<path d="M116.302 181.623C117.132 181.623 117.807 180.948 117.807 180.118C117.807 179.282 117.132 178.606 116.302 178.606H94.0441C93.2141 178.606 92.5391 179.281 92.5391 180.111C92.5391 180.947 93.2141 181.623 94.0441 181.623H116.302Z" fill="#304886"/>
<path d="M111.603 193.769C112.433 193.769 113.108 193.094 113.108 192.264C113.108 191.428 112.433 190.753 111.603 190.753H97.0011C96.1711 190.753 95.4961 191.428 95.4961 192.258C95.4961 193.094 96.1711 193.77 97.0011 193.77L111.603 193.769Z" fill="#304886"/>
</svg>
