<svg width="195" height="36" viewBox="0 0 195 36" fill="none" xmlns="http://www.w3.org/2000/svg">
<path d="M36 18C36 27.9411 27.9411 36 18 36C8.05888 36 0 27.9411 0 18C0 8.05888 8.05888 0 18 0C27.9411 0 36 8.05888 36 18Z" fill="white"/>
<path d="M11.6844 21.2494L19.0059 17.2581C19.6841 16.8884 20.5314 17.2273 20.7675 17.9627L22.4382 23.1658C22.5322 23.4585 22.5133 23.7758 22.3852 24.0552L18.6958 32.1043C18.2783 33.0151 17.0059 33.0725 16.508 32.2031L11.2052 22.9423C10.8623 22.3434 11.0785 21.5797 11.6844 21.2494Z" fill="#01BD82"/>
<path d="M27.3451 19.0606L24.2833 10.0504C24.09 9.48134 23.2794 9.49816 23.1098 10.0747L21.525 15.4631C21.4904 15.5808 21.4917 15.7062 21.5289 15.8231L23.3869 21.6758C23.5176 22.0876 24.0208 22.2402 24.3582 21.9703L27.1468 19.7394C27.3492 19.5775 27.4285 19.3061 27.3451 19.0606Z" fill="#FE3C77"/>
<path d="M12.6791 6.15339L20.9364 7.31638C21.7013 7.42412 22.1792 8.20144 21.9301 8.93264L20.168 14.1054C20.0688 14.3964 19.8644 14.6398 19.5949 14.7877L11.8329 19.0481C10.9546 19.5302 9.89899 18.8173 10.0179 17.8225L11.2849 7.22645C11.3668 6.54124 11.9958 6.05715 12.6791 6.15339Z" fill="#FEC726"/>
<path d="M190.544 27.8939C189.621 27.8939 188.867 27.6112 188.283 27.0459C187.718 26.4616 187.435 25.689 187.435 24.7279V16.8127H183.93V13.8728H187.435V9.51953H190.997V13.8728H194.841V16.8127H190.997V24.106C190.997 24.6713 191.261 24.954 191.788 24.954H194.502V27.8939H190.544Z" fill="white"/>
<path d="M177.411 28.2891C176.016 28.2891 174.782 27.997 173.708 27.4128C172.652 26.8098 171.823 25.9711 171.22 24.8969C170.636 23.8039 170.344 22.5224 170.344 21.0525V20.7132C170.344 19.2433 170.636 17.9712 171.22 16.897C171.804 15.804 172.624 14.9654 173.679 14.3811C174.735 13.7781 175.96 13.4766 177.354 13.4766C178.73 13.4766 179.927 13.7875 180.944 14.4094C181.962 15.0125 182.754 15.8605 183.319 16.9536C183.884 18.0278 184.167 19.281 184.167 20.7132V21.9288H173.962C174 22.8899 174.358 23.672 175.036 24.275C175.715 24.8781 176.544 25.1796 177.524 25.1796C178.523 25.1796 179.258 24.9629 179.729 24.5295C180.2 24.096 180.558 23.6154 180.803 23.0878L183.715 24.6143C183.451 25.1042 183.064 25.6413 182.556 26.2255C182.066 26.7909 181.406 27.2809 180.577 27.6955C179.748 28.0913 178.692 28.2891 177.411 28.2891ZM173.99 19.2716H180.549C180.473 18.4612 180.143 17.811 179.559 17.321C178.994 16.8311 178.249 16.5861 177.326 16.5861C176.365 16.5861 175.602 16.8311 175.036 17.321C174.471 17.811 174.122 18.4612 173.99 19.2716Z" fill="white"/>
<path d="M155.299 27.8937V13.8726H158.804V15.7101H159.313C159.539 15.2201 159.963 14.7584 160.585 14.3249C161.207 13.8726 162.149 13.6465 163.412 13.6465C164.505 13.6465 165.457 13.9009 166.267 14.4097C167.096 14.8997 167.737 15.5876 168.189 16.4733C168.641 17.3402 168.868 18.3579 168.868 19.5263V27.8937H165.306V19.809C165.306 18.7536 165.042 17.9621 164.514 17.4344C164.005 16.9068 163.27 16.6429 162.309 16.6429C161.216 16.6429 160.368 17.0104 159.765 17.7454C159.162 18.4615 158.861 19.4697 158.861 20.7701V27.8937H155.299Z" fill="white"/>
<path d="M145.787 27.893V13.872H149.292V15.455H149.801C150.009 14.8896 150.348 14.475 150.819 14.2112C151.309 13.9473 151.874 13.8154 152.515 13.8154H154.211V16.9815H152.458C151.554 16.9815 150.809 17.2265 150.225 17.7164C149.641 18.1876 149.349 18.9226 149.349 19.9214V27.893H145.787Z" fill="white"/>
<path d="M137.557 28.2891C136.163 28.2891 134.928 27.997 133.854 27.4128C132.799 26.8098 131.97 25.9711 131.367 24.8969C130.782 23.8039 130.49 22.5224 130.49 21.0525V20.7132C130.49 19.2433 130.782 17.9712 131.367 16.897C131.951 15.804 132.771 14.9654 133.826 14.3811C134.881 13.7781 136.106 13.4766 137.501 13.4766C138.876 13.4766 140.073 13.7875 141.091 14.4094C142.108 15.0125 142.9 15.8605 143.465 16.9536C144.031 18.0278 144.313 19.281 144.313 20.7132V21.9288H134.109C134.146 22.8899 134.504 23.672 135.183 24.275C135.861 24.8781 136.69 25.1796 137.67 25.1796C138.669 25.1796 139.404 24.9629 139.875 24.5295C140.346 24.096 140.704 23.6154 140.949 23.0878L143.861 24.6143C143.597 25.1042 143.211 25.6413 142.702 26.2255C142.212 26.7909 141.553 27.2809 140.723 27.6955C139.894 28.0913 138.839 28.2891 137.557 28.2891ZM134.137 19.2716H140.695C140.62 18.4612 140.29 17.811 139.706 17.321C139.14 16.8311 138.396 16.5861 137.472 16.5861C136.511 16.5861 135.748 16.8311 135.183 17.321C134.617 17.811 134.269 18.4612 134.137 19.2716Z" fill="white"/>
<path d="M125.841 27.8939C124.918 27.8939 124.164 27.6112 123.58 27.0459C123.015 26.4616 122.732 25.689 122.732 24.7279V16.8127H119.227V13.8728H122.732V9.51953H126.294V13.8728H130.138V16.8127H126.294V24.106C126.294 24.6713 126.557 24.954 127.085 24.954H129.799V27.8939H125.841Z" fill="white"/>
<path d="M105.133 27.8937V13.8726H108.638V15.7101H109.147C109.373 15.2201 109.797 14.7584 110.419 14.3249C111.041 13.8726 111.983 13.6465 113.246 13.6465C114.339 13.6465 115.291 13.9009 116.101 14.4097C116.93 14.8997 117.571 15.5876 118.023 16.4733C118.475 17.3402 118.702 18.3579 118.702 19.5263V27.8937H115.14V19.809C115.14 18.7536 114.876 17.9621 114.348 17.4344C113.839 16.9068 113.104 16.6429 112.143 16.6429C111.05 16.6429 110.202 17.0104 109.599 17.7454C108.996 18.4615 108.695 19.4697 108.695 20.7701V27.8937H105.133Z" fill="white"/>
<path d="M99.3213 27.8935V13.8724H102.883V27.8935H99.3213ZM101.102 12.2329C100.461 12.2329 99.915 12.0256 99.4627 11.611C99.0292 11.1964 98.8125 10.6499 98.8125 9.97142C98.8125 9.29298 99.0292 8.74646 99.4627 8.33186C99.915 7.91726 100.461 7.70996 101.102 7.70996C101.762 7.70996 102.308 7.91726 102.742 8.33186C103.175 8.74646 103.392 9.29298 103.392 9.97142C103.392 10.6499 103.175 11.1964 102.742 11.611C102.308 12.0256 101.762 12.2329 101.102 12.2329Z" fill="white"/>
<path d="M88.6446 28.289C87.5327 28.289 86.4868 28.0157 85.5068 27.4692C84.5457 26.9039 83.773 26.0841 83.1888 25.0099C82.6046 23.9357 82.3125 22.6354 82.3125 21.1089V20.6566C82.3125 19.1301 82.6046 17.8298 83.1888 16.7556C83.773 15.6814 84.5457 14.871 85.5068 14.3245C86.4679 13.7591 87.5139 13.4764 88.6446 13.4764C89.4926 13.4764 90.1993 13.5801 90.7647 13.7874C91.3489 13.9758 91.8201 14.2208 92.1781 14.5224C92.5362 14.8239 92.8094 15.1443 92.9979 15.4835H93.5067V8.10547H97.0685V27.8933H93.5633V26.1972H93.0544C92.7341 26.7248 92.2347 27.2054 91.5562 27.6388C90.8966 28.0723 89.9261 28.289 88.6446 28.289ZM89.7188 25.1795C90.8118 25.1795 91.7258 24.8309 92.4608 24.1336C93.1958 23.4174 93.5633 22.3809 93.5633 21.0241V20.7414C93.5633 19.3845 93.1958 18.3574 92.4608 17.6601C91.7447 16.944 90.8307 16.5859 89.7188 16.5859C88.6257 16.5859 87.7117 16.944 86.9768 17.6601C86.2418 18.3574 85.8743 19.3845 85.8743 20.7414V21.0241C85.8743 22.3809 86.2418 23.4174 86.9768 24.1336C87.7117 24.8309 88.6257 25.1795 89.7188 25.1795Z" fill="white"/>
<path d="M73.9766 27.893V13.872H77.4818V15.455H77.9907C78.198 14.8896 78.5372 14.475 79.0083 14.2112C79.4983 13.9473 80.0637 13.8154 80.7044 13.8154H82.4005V16.9815H80.6479C79.7433 16.9815 78.9989 17.2265 78.4147 17.7164C77.8305 18.1876 77.5384 18.9226 77.5384 19.9214V27.893H73.9766Z" fill="white"/>
<path d="M68.1631 27.8935V13.8724H71.7249V27.8935H68.1631ZM69.944 12.2329C69.3033 12.2329 68.7568 12.0256 68.3045 11.611C67.871 11.1964 67.6543 10.6499 67.6543 9.97142C67.6543 9.29298 67.871 8.74646 68.3045 8.33186C68.7568 7.91726 69.3033 7.70996 69.944 7.70996C70.6036 7.70996 71.1501 7.91726 71.5836 8.33186C72.017 8.74646 72.2338 9.29298 72.2338 9.97142C72.2338 10.6499 72.017 11.1964 71.5836 11.611C71.1501 12.0256 70.6036 12.2329 69.944 12.2329Z" fill="white"/>
<path d="M52.4395 27.8934V8.10559H56.0013V15.5967H56.5101C56.6608 15.2952 56.8964 14.9936 57.2168 14.6921C57.5372 14.3906 57.9612 14.1456 58.4889 13.9571C59.0354 13.7498 59.7232 13.6462 60.5524 13.6462C61.6455 13.6462 62.5972 13.9006 63.4075 14.4094C64.2367 14.8994 64.8775 15.5873 65.3298 16.473C65.7821 17.3399 66.0082 18.3575 66.0082 19.526V27.8934H62.4464V19.8087C62.4464 18.7533 62.1826 17.9618 61.6549 17.4341C61.1461 16.9064 60.4111 16.6426 59.45 16.6426C58.3569 16.6426 57.5089 17.0101 56.9058 17.7451C56.3028 18.4612 56.0013 19.4694 56.0013 20.7698V27.8934H52.4395Z" fill="white"/>
<path d="M46.6148 27.8939C45.6913 27.8939 44.9375 27.6112 44.3533 27.0459C43.7879 26.4616 43.5053 25.689 43.5053 24.7279V16.8127H40V13.8728H43.5053V9.51953H47.0671V13.8728H50.9115V16.8127H47.0671V24.106C47.0671 24.6713 47.3309 24.954 47.8586 24.954H50.5723V27.8939H46.6148Z" fill="white"/>
</svg>
