<svg width="428" height="432" viewBox="0 0 428 432" fill="none" xmlns="http://www.w3.org/2000/svg">
<g clip-path="url(#clip0_104_405)">
<rect width="428" height="432" rx="10" fill="white"/>
<path d="M40.648 299V265.4H44.488L58.456 288.392H55.96L69.928 265.4H73.768V299H68.248V275.096L69.496 275.432L59.128 292.472H55.288L44.92 275.432L46.168 275.096V299H40.648ZM89.9823 299.48C87.9023 299.48 86.0143 298.952 84.3183 297.896C82.6543 296.84 81.3263 295.416 80.3343 293.624C79.3743 291.8 78.8943 289.768 78.8943 287.528C78.8943 285.256 79.3743 283.224 80.3343 281.432C81.3263 279.608 82.6543 278.168 84.3183 277.112C86.0143 276.024 87.9023 275.48 89.9823 275.48C91.7423 275.48 93.2943 275.864 94.6383 276.632C96.0143 277.368 97.1023 278.392 97.9023 279.704C98.7023 281.016 99.1023 282.504 99.1023 284.168V290.792C99.1023 292.456 98.7023 293.944 97.9023 295.256C97.1343 296.568 96.0623 297.608 94.6863 298.376C93.3103 299.112 91.7423 299.48 89.9823 299.48ZM90.8463 294.488C92.7983 294.488 94.3663 293.832 95.5503 292.52C96.7663 291.208 97.3743 289.528 97.3743 287.48C97.3743 286.104 97.1023 284.888 96.5583 283.832C96.0143 282.776 95.2463 281.96 94.2543 281.384C93.2943 280.776 92.1583 280.472 90.8463 280.472C89.5663 280.472 88.4303 280.776 87.4383 281.384C86.4783 281.96 85.7103 282.776 85.1343 283.832C84.5903 284.888 84.3183 286.104 84.3183 287.48C84.3183 288.856 84.5903 290.072 85.1343 291.128C85.7103 292.184 86.4783 293.016 87.4383 293.624C88.4303 294.2 89.5663 294.488 90.8463 294.488ZM97.0383 299V292.808L97.9503 287.192L97.0383 281.624V275.96H102.318V299H97.0383ZM111.682 299V266.36H116.962V299H111.682ZM106.162 280.76V275.96H122.482V280.76H106.162ZM142.111 299V285.704C142.111 284.168 141.615 282.904 140.623 281.912C139.663 280.92 138.415 280.424 136.879 280.424C135.855 280.424 134.943 280.648 134.143 281.096C133.343 281.544 132.719 282.168 132.271 282.968C131.823 283.768 131.599 284.68 131.599 285.704L129.535 284.552C129.535 282.792 129.919 281.24 130.687 279.896C131.455 278.52 132.511 277.448 133.855 276.68C135.231 275.88 136.767 275.48 138.463 275.48C140.191 275.48 141.727 275.864 143.071 276.632C144.415 277.4 145.471 278.472 146.239 279.848C147.007 281.192 147.391 282.76 147.391 284.552V299H142.111ZM126.319 299V264.44H131.599V299H126.319ZM163.46 299.48C161.156 299.48 159.076 298.968 157.22 297.944C155.396 296.888 153.94 295.448 152.852 293.624C151.796 291.8 151.268 289.752 151.268 287.48C151.268 285.208 151.796 283.176 152.852 281.384C153.908 279.56 155.332 278.12 157.124 277.064C158.948 276.008 160.964 275.48 163.172 275.48C165.316 275.48 167.204 275.976 168.836 276.968C170.5 277.96 171.796 279.32 172.724 281.048C173.684 282.776 174.164 284.744 174.164 286.952C174.164 287.336 174.132 287.736 174.068 288.152C174.036 288.536 173.972 288.968 173.876 289.448H154.964V285.128H171.14L169.172 286.856C169.108 285.448 168.836 284.264 168.356 283.304C167.876 282.344 167.188 281.608 166.292 281.096C165.428 280.584 164.356 280.328 163.076 280.328C161.732 280.328 160.564 280.616 159.572 281.192C158.58 281.768 157.812 282.584 157.268 283.64C156.724 284.664 156.452 285.896 156.452 287.336C156.452 288.776 156.74 290.04 157.316 291.128C157.892 292.216 158.708 293.064 159.764 293.672C160.82 294.248 162.036 294.536 163.412 294.536C164.596 294.536 165.684 294.328 166.676 293.912C167.7 293.496 168.564 292.888 169.268 292.088L172.628 295.496C171.508 296.808 170.148 297.8 168.548 298.472C166.948 299.144 165.252 299.48 163.46 299.48ZM178.397 299V275.96H183.677V299H178.397ZM193.709 299V285.272C193.709 283.736 193.229 282.552 192.269 281.72C191.309 280.856 190.125 280.424 188.717 280.424C187.757 280.424 186.893 280.616 186.125 281C185.389 281.384 184.797 281.944 184.349 282.68C183.901 283.384 183.677 284.248 183.677 285.272L181.613 284.12C181.613 282.36 181.997 280.84 182.765 279.56C183.533 278.28 184.573 277.288 185.885 276.584C187.197 275.848 188.669 275.48 190.301 275.48C191.933 275.48 193.405 275.832 194.717 276.536C196.029 277.24 197.069 278.232 197.837 279.512C198.605 280.792 198.989 282.328 198.989 284.12V299H193.709ZM209.021 299V285.272C209.021 283.736 208.541 282.552 207.581 281.72C206.621 280.856 205.437 280.424 204.029 280.424C203.101 280.424 202.253 280.616 201.485 281C200.717 281.384 200.109 281.944 199.661 282.68C199.213 283.384 198.989 284.248 198.989 285.272L196.013 284.12C196.173 282.36 196.685 280.84 197.549 279.56C198.413 278.28 199.517 277.288 200.861 276.584C202.237 275.848 203.741 275.48 205.373 275.48C207.037 275.48 208.541 275.832 209.885 276.536C211.229 277.24 212.301 278.232 213.101 279.512C213.901 280.792 214.301 282.328 214.301 284.12V299H209.021ZM229.389 299.48C227.309 299.48 225.421 298.952 223.725 297.896C222.061 296.84 220.733 295.416 219.741 293.624C218.781 291.8 218.301 289.768 218.301 287.528C218.301 285.256 218.781 283.224 219.741 281.432C220.733 279.608 222.061 278.168 223.725 277.112C225.421 276.024 227.309 275.48 229.389 275.48C231.149 275.48 232.701 275.864 234.045 276.632C235.421 277.368 236.509 278.392 237.309 279.704C238.109 281.016 238.509 282.504 238.509 284.168V290.792C238.509 292.456 238.109 293.944 237.309 295.256C236.541 296.568 235.469 297.608 234.093 298.376C232.717 299.112 231.149 299.48 229.389 299.48ZM230.253 294.488C232.205 294.488 233.773 293.832 234.957 292.52C236.173 291.208 236.781 289.528 236.781 287.48C236.781 286.104 236.509 284.888 235.965 283.832C235.421 282.776 234.653 281.96 233.661 281.384C232.701 280.776 231.565 280.472 230.253 280.472C228.973 280.472 227.837 280.776 226.845 281.384C225.885 281.96 225.117 282.776 224.541 283.832C223.997 284.888 223.725 286.104 223.725 287.48C223.725 288.856 223.997 290.072 224.541 291.128C225.117 292.184 225.885 293.016 226.845 293.624C227.837 294.2 228.973 294.488 230.253 294.488ZM236.445 299V292.808L237.357 287.192L236.445 281.624V275.96H241.725V299H236.445ZM251.088 299V266.36H256.368V299H251.088ZM245.568 280.76V275.96H261.888V280.76H245.568ZM265.773 299V275.96H271.053V299H265.773ZM268.413 271.736C267.517 271.736 266.765 271.432 266.157 270.824C265.581 270.216 265.293 269.464 265.293 268.568C265.293 267.672 265.581 266.92 266.157 266.312C266.765 265.704 267.517 265.4 268.413 265.4C269.341 265.4 270.093 265.704 270.669 266.312C271.245 266.92 271.533 267.672 271.533 268.568C271.533 269.464 271.245 270.216 270.669 270.824C270.093 271.432 269.341 271.736 268.413 271.736ZM287.583 299.48C285.311 299.48 283.247 298.952 281.391 297.896C279.567 296.84 278.127 295.4 277.071 293.576C276.015 291.752 275.487 289.72 275.487 287.48C275.487 285.208 276.015 283.176 277.071 281.384C278.127 279.56 279.567 278.12 281.391 277.064C283.247 276.008 285.311 275.48 287.583 275.48C289.375 275.48 291.039 275.832 292.575 276.536C294.143 277.208 295.471 278.184 296.559 279.464L293.103 282.968C292.431 282.168 291.615 281.576 290.655 281.192C289.727 280.776 288.703 280.568 287.583 280.568C286.271 280.568 285.103 280.872 284.079 281.48C283.087 282.056 282.303 282.856 281.727 283.88C281.183 284.904 280.911 286.104 280.911 287.48C280.911 288.824 281.183 290.024 281.727 291.08C282.303 292.104 283.087 292.92 284.079 293.528C285.103 294.104 286.271 294.392 287.583 294.392C288.703 294.392 289.727 294.2 290.655 293.816C291.615 293.4 292.431 292.792 293.103 291.992L296.559 295.496C295.471 296.776 294.143 297.768 292.575 298.472C291.039 299.144 289.375 299.48 287.583 299.48ZM307.902 299.48C306.622 299.48 305.39 299.32 304.206 299C303.022 298.648 301.934 298.168 300.942 297.56C299.95 296.92 299.086 296.152 298.35 295.256L301.71 291.896C302.51 292.824 303.422 293.528 304.446 294.008C305.502 294.456 306.686 294.68 307.998 294.68C309.182 294.68 310.078 294.504 310.686 294.152C311.294 293.8 311.598 293.288 311.598 292.616C311.598 291.912 311.31 291.368 310.734 290.984C310.158 290.6 309.406 290.28 308.478 290.024C307.582 289.736 306.622 289.448 305.598 289.16C304.606 288.872 303.646 288.488 302.718 288.008C301.822 287.496 301.086 286.808 300.51 285.944C299.934 285.08 299.646 283.96 299.646 282.584C299.646 281.112 299.982 279.848 300.654 278.792C301.358 277.736 302.334 276.92 303.582 276.344C304.862 275.768 306.382 275.48 308.142 275.48C309.998 275.48 311.63 275.816 313.038 276.488C314.478 277.128 315.678 278.104 316.638 279.416L313.278 282.776C312.606 281.944 311.838 281.32 310.974 280.904C310.11 280.488 309.118 280.28 307.998 280.28C306.942 280.28 306.126 280.44 305.55 280.76C304.974 281.08 304.686 281.544 304.686 282.152C304.686 282.792 304.974 283.288 305.55 283.64C306.126 283.992 306.862 284.296 307.758 284.552C308.686 284.808 309.646 285.096 310.638 285.416C311.662 285.704 312.622 286.12 313.518 286.664C314.446 287.176 315.198 287.88 315.774 288.776C316.35 289.64 316.638 290.776 316.638 292.184C316.638 294.424 315.854 296.2 314.286 297.512C312.718 298.824 310.59 299.48 307.902 299.48Z" fill="white"/>
<path d="M3.07973 314.339C2.07703 311.358 1.08482 308.268 0.130744 305.157L2.48167 304.479C3.42932 307.57 4.4151 310.639 5.41117 313.601L3.07973 314.339ZM423.663 310.489L421.228 310.197C421.633 307.023 422.016 303.827 422.369 300.697L424.807 300.956C424.453 304.097 424.068 307.304 423.663 310.489ZM-2.57683 295.908C-3.43538 292.834 -4.26778 289.702 -5.05135 286.6L-2.66916 286.033C-1.8903 289.117 -1.0626 292.23 -0.209414 295.286L-2.57683 295.908ZM425.812 291.408L423.37 291.184C423.68 287.997 423.968 284.792 424.224 281.657L426.669 281.845C426.412 284.992 426.123 288.209 425.812 291.408ZM-7.29261 277.236C-8.00099 274.103 -8.6751 270.936 -9.29609 267.821L-6.88797 267.37C-6.27084 270.465 -5.60102 273.613 -4.89692 276.726L-7.29261 277.236ZM427.373 272.269L424.925 272.119C425.133 268.935 425.315 265.723 425.466 262.573L427.916 262.683C427.764 265.847 427.582 269.072 427.373 272.269ZM-11.0539 258.36C-11.5992 255.189 -12.1043 251.991 -12.5546 248.856L-10.1255 248.527C-9.67802 251.642 -9.17634 254.818 -8.63461 257.968L-11.0539 258.36ZM428.291 253.089L425.839 253.02C425.935 249.821 426 246.606 426.035 243.463L428.488 243.488C428.453 246.646 428.387 249.876 428.291 253.089ZM-13.7854 239.314C-14.1511 236.111 -14.4694 232.89 -14.7314 229.739L-12.2866 229.548C-12.0264 232.675 -11.7104 235.872 -11.3475 239.052L-13.7854 239.314ZM426.045 233.905C426.016 230.704 425.954 227.49 425.859 224.351L428.311 224.282C428.406 227.437 428.469 230.667 428.498 233.884L426.045 233.905ZM-15.3746 220.14C-15.5374 216.918 -15.6452 213.684 -15.6953 210.526L-13.2429 210.489C-13.1934 213.62 -13.0863 216.828 -12.925 220.023L-15.3746 220.14ZM425.464 214.806C425.296 211.609 425.089 208.402 424.849 205.273L427.295 205.096C427.537 208.244 427.745 211.47 427.914 214.684L425.464 214.806ZM-13.2195 200.951L-15.6718 200.902C-15.6034 197.672 -15.4717 194.437 -15.2802 191.286L-12.8316 191.426C-13.0216 194.546 -13.152 197.751 -13.2195 200.951ZM423.998 195.759C423.671 192.563 423.3 189.371 422.896 186.271L425.329 185.973C425.736 189.093 426.109 192.307 426.439 195.523L423.998 195.759ZM-12.054 181.926L-14.4945 181.688C-14.1614 178.47 -13.7552 175.254 -13.2872 172.128L-10.86 172.47C-11.3227 175.561 -11.7246 178.742 -12.054 181.926ZM421.522 176.82C421.012 173.644 420.452 170.48 419.857 167.416L422.268 166.976C422.867 170.064 423.432 173.253 423.946 176.453L421.522 176.82ZM131.444 176.484C128.036 175.963 125.57 174.457 122.156 171.858L123.706 170.014C126.697 172.285 128.858 173.648 131.705 174.118L131.444 176.484ZM139.953 170.822L137.769 169.74C138.892 167.606 139.884 164.646 140.719 160.941L143.115 161.449C142.223 165.409 141.189 168.475 139.953 170.822ZM114.957 165.033C113.003 162.922 110.915 160.492 108.574 157.605L110.501 156.133C112.81 158.979 114.864 161.37 116.782 163.443L114.957 165.033ZM-9.22154 163.081L-11.6294 162.628C-10.9941 159.451 -10.275 156.284 -9.49251 153.214L-7.11139 153.786C-7.88425 156.817 -8.59435 159.944 -9.22154 163.081ZM417.875 158.075C417.149 154.932 416.365 151.816 415.546 148.813L417.918 148.205C418.745 151.236 419.535 154.382 420.268 157.554L417.875 158.075ZM144.766 151.872L142.333 151.568C142.71 148.728 143.047 145.617 143.365 142.059L145.809 142.264C145.488 145.856 145.147 148.998 144.766 151.872ZM102.566 149.938C100.572 147.325 98.5046 144.564 96.7226 142.181L98.7081 140.783C100.486 143.162 102.55 145.918 104.537 148.522L102.566 149.938ZM282.136 149.742C280.226 149.742 278.352 149.188 276.566 148.096L277.874 146.083C280.556 147.726 283.196 147.73 286.046 146.419L287.101 148.567C285.416 149.347 283.746 149.742 282.136 149.742ZM-4.50256 144.615L-6.84813 143.919C-5.8737 140.827 -4.80437 137.752 -3.67015 134.779L-1.36999 135.605C-2.48794 138.535 -3.54184 141.566 -4.50256 144.615ZM295.121 142.346L293.319 140.732C295.179 138.778 297.172 136.367 299.414 133.362L301.401 134.758C299.102 137.84 297.048 140.322 295.121 142.346ZM269.592 140.71C268.004 138.334 266.431 135.536 264.783 132.156L267 131.138C268.601 134.421 270.122 137.129 271.65 139.415L269.592 140.71ZM412.837 139.656C411.849 136.573 410.794 133.537 409.703 130.634L412.007 129.819C413.112 132.757 414.179 135.829 415.179 138.949L412.837 139.656ZM90.9101 134.422C88.666 131.447 86.796 129.004 85.0245 126.735L86.98 125.298C88.7596 127.578 90.6372 130.031 92.8895 133.017L90.9101 134.422ZM146.547 132.654L144.099 132.5C144.285 129.712 144.474 126.578 144.677 122.92L147.126 123.048C146.923 126.715 146.733 129.857 146.547 132.654ZM2.30645 126.795L0.0626278 125.835C1.40892 122.876 2.84389 119.97 4.36862 117.129L6.54347 118.23C5.04295 121.025 3.63153 123.884 2.30645 126.795ZM307.02 126.795L304.97 125.487C306.713 122.916 308.514 120.192 310.336 117.44L312.399 118.727C310.573 121.486 308.771 124.212 307.02 126.795ZM260.835 123.276C259.724 120.572 258.576 117.622 257.325 114.258L259.632 113.45C260.874 116.79 262.012 119.715 263.113 122.394L260.835 123.276ZM406.095 121.791C404.776 118.811 403.381 115.916 401.949 113.187L404.135 112.107C405.591 114.882 407.009 117.825 408.349 120.853L406.095 121.791ZM78.9689 119.194C76.7432 116.514 74.6716 114.128 72.6356 111.901L74.4705 110.322C76.5325 112.577 78.6287 114.991 80.8789 117.701L78.9689 119.194ZM147.637 113.448L145.187 113.328C145.352 110.149 145.516 106.968 145.691 103.732L148.141 103.856C147.966 107.091 147.802 110.27 147.637 113.448ZM317.777 110.689L315.731 109.377C317.78 106.369 319.613 103.766 321.334 101.421L323.332 102.802C321.627 105.124 319.81 107.704 317.777 110.689ZM11.4075 110.018L9.34016 108.737C11.2676 105.809 13.2548 103.163 15.2467 100.875L17.1204 102.411C15.1985 104.618 13.2766 107.178 11.4075 110.018ZM254.05 105.176C252.925 101.978 251.822 98.7784 250.891 96.0698L253.217 95.3169C254.147 98.0214 255.249 101.216 256.371 104.408L254.05 105.176ZM65.8917 105.01C63.3849 102.642 60.92 100.55 58.5654 98.7922L60.0612 96.9063C62.4908 98.72 65.028 100.873 67.6028 103.305L65.8917 105.01ZM397.187 104.908C395.429 102.126 393.586 99.4939 391.71 97.0862L393.666 95.6506C395.59 98.12 397.479 100.816 399.278 103.665L397.187 104.908ZM24.0001 95.9366L22.5124 94.0445C25.4415 91.8767 28.4899 90.3132 31.5729 89.3979L32.2907 91.6734C29.4866 92.506 26.6972 93.9404 24.0001 95.9366ZM329.248 95.2087L327.342 93.7103C329.643 90.9565 331.822 88.5869 334.006 86.4665L335.741 88.1482C333.618 90.2102 331.494 92.5197 329.248 95.2087ZM148.691 94.273L146.242 94.1314C146.455 90.6724 146.665 87.5311 146.887 84.5281L149.333 84.698C149.113 87.6915 148.902 90.8234 148.691 94.273ZM50.4566 93.7748C47.396 92.297 44.3855 91.3538 41.5089 90.9715L41.8418 88.6137C44.9832 89.0314 48.2492 90.0508 51.549 91.6443L50.4566 93.7748ZM385.4 89.9278C383.039 87.5806 380.594 85.5087 378.133 83.77L379.578 81.8464C382.149 83.6636 384.698 85.8232 387.155 88.2658L385.4 89.9278ZM247.762 86.9638C246.542 83.4232 245.536 80.5361 244.598 77.8783L246.918 77.1067C247.859 79.7703 248.866 82.6628 250.088 86.2092L247.762 86.9638ZM343.081 82.0737L341.676 80.1238C344.692 78.0762 347.739 76.5598 350.731 75.6169L351.489 77.8802C348.728 78.7503 345.899 80.1613 343.081 82.0737ZM369.844 79.1584C366.806 77.9151 363.731 77.1459 360.704 76.8715L360.932 74.5019C364.209 74.799 367.528 75.6278 370.797 76.9655L369.844 79.1584ZM150.118 75.1437L147.675 74.9331C147.98 71.5943 148.313 68.3696 148.663 65.3488L151.101 65.6149C150.752 68.6174 150.422 71.8233 150.118 75.1437ZM241.334 68.8269C240.149 65.6172 239.032 62.6832 237.92 59.8574L240.211 59.0083C241.33 61.8496 242.452 64.7988 243.643 68.0241L241.334 68.8269ZM152.349 56.1259L149.922 55.7856C150.418 52.4538 150.963 49.2495 151.542 46.2621L153.953 46.7021C153.38 49.6567 152.84 52.8271 152.349 56.1259ZM234.276 50.9723C232.958 47.8965 231.63 44.9537 230.327 42.2256L232.553 41.2255C233.869 43.9819 235.21 46.9538 236.541 50.0587L234.276 50.9723ZM156.036 37.3897L153.656 36.8128C154.512 33.4898 155.455 30.3596 156.459 27.5093L158.78 28.2792C157.798 31.0663 156.875 34.1313 156.036 37.3897ZM225.971 33.6849C224.358 30.7372 222.71 27.9699 221.074 25.46L223.146 24.1876C224.816 26.7483 226.495 29.5681 228.138 32.5689L225.971 33.6849ZM162.463 19.5605L160.264 18.5073C161.874 15.3413 163.66 12.5418 165.572 10.1866L167.499 11.6591C165.693 13.8845 163.998 16.5428 162.463 19.5605ZM215.452 17.7417C213.309 15.135 211.097 12.8259 208.877 10.8785L210.523 9.11345C212.84 11.1469 215.144 13.5505 217.369 16.2577L215.452 17.7417ZM174.342 5.4912L173.02 3.48687C175.925 1.6826 179.126 0.509385 182.534 0L182.908 2.35199C179.84 2.81061 176.958 3.86687 174.342 5.4912ZM201.139 5.4897C198.282 3.99518 195.305 2.97362 192.293 2.4531L192.723 0.110102C195.992 0.675181 199.216 1.78028 202.303 3.39497L201.139 5.4897Z" fill="#DCE6FF"/>
<path d="M-39.7061 328.187C-39.7061 328.187 -42.9098 342.273 -28.1623 346.036C-7.99059 351.181 106.059 364.987 77.2947 375.26C61.0572 381.059 89.9385 388.648 169.028 391.548C248.117 394.448 383.828 383.086 338.191 366.275C292.553 349.464 479.013 363.154 467.687 328.187H-39.7061Z" fill="#C3D6F4"/>
<path d="M49.8178 327.198C49.8178 327.198 -7.51562 170.218 35.473 136.82C64.2067 114.496 92.2598 170.699 128.611 144.665C160.975 121.488 140.257 67.3341 171.766 41.2254C210.521 9.11343 275.256 168.543 320.734 143.812C392.273 104.908 436.008 166.28 386.33 327.484L49.8178 327.198Z" fill="#D4E1FC"/>
<path d="M440.707 260.682C420.354 257.755 422.196 301.746 393.183 301.746C366.657 301.746 352.462 203.461 323.354 223.451C206.33 303.814 297.382 167.062 218.694 164.389C183.113 163.18 159.404 199.99 150.661 265.165C137.987 324.085 108.595 220.226 78.3477 229.882C59.1239 236.019 61.3255 301.746 34.7994 301.746C5.78675 301.746 7.69812 264.754 -12.6556 267.681C-34.5697 270.833 -39.7051 328.187 -39.7051 328.187H467.687C467.687 328.187 462.621 263.834 440.707 260.682Z" fill="#EEF7FF"/>
<path d="M421.181 306.833C402.456 305.582 405.512 316.885 378.821 316.885C354.417 316.885 355.088 291.553 338.757 286.17C308.684 276.255 283.891 326.434 272.231 301.25C250.087 234.427 185.501 200.916 155.706 301.25C144.046 326.434 116.781 281.497 89.1796 286.17C72.19 289.046 73.5196 316.885 49.1162 316.885C22.4252 316.885 25.4808 305.582 6.75612 306.833C-13.4042 308.18 -19.4258 328.187 -19.4258 328.187H447.363C447.363 328.187 441.342 308.18 421.181 306.833Z" fill="#D4E1FC"/>
<path d="M362.067 129.637H354.524V140.843H343.318V148.386H354.524V159.592H362.067V148.386H373.273V140.843H362.067V129.637Z" fill="#4867AA"/>
<path d="M271.347 110.986H241.393V118.53H271.347V110.986Z" fill="#4867AA"/>
<path d="M20.3877 262.821H-9.56641V270.365H20.3877V262.821Z" fill="#4867AA"/>
<path d="M20.3877 274.174H-9.56641V281.718H20.3877V274.174Z" fill="#4867AA"/>
<path d="M327.159 295.588C328.905 290.893 329.266 286.683 326.858 283.622C324.165 280.199 320.205 281.882 320.205 281.882L320.205 281.883C320.205 281.883 318.352 277.185 314.917 277.185C312.468 277.185 308.314 279.487 307.11 283.622C306.176 286.828 301.39 287.019 301.029 292.126C300.668 297.234 305.514 299.299 303.257 303.838C301.451 307.469 303.799 309.937 308.675 311.322C313.552 312.707 325.955 311.864 330.049 306.927C334.143 301.99 325.3 300.586 327.159 295.588Z" fill="#8C4225"/>
<path d="M327.49 346.034C327.49 346.034 330.079 347.998 331.508 348.354C333.423 348.831 337.949 349.39 338.876 349.509C341.408 349.834 341.588 352.166 338.348 352.388L330.864 353.078C328.582 353.109 325.548 351.525 325.316 351.464C321.348 350.13 323.693 344.259 327.49 346.034Z" fill="#F99370"/>
<path d="M290.59 335.277C290.59 335.277 310.168 331.865 340.778 335.021C340.778 335.021 324.433 342.431 315.364 342.647C306.295 342.863 290.59 335.277 290.59 335.277Z" fill="#7640CC"/>
<path d="M312.091 312.299C312.175 312.252 312.293 312.18 312.369 312.129C312.371 312.128 312.372 312.127 312.374 312.125C309.221 315.226 307.242 319.218 305.095 323.139C303.639 325.685 301.025 330.264 305.205 331.513C307.447 331.51 307.459 334.935 305.214 334.946C304.782 334.98 304.326 335.02 303.896 334.994C295.901 334.51 295.756 325.365 297.952 319.556C299.986 314.181 302.38 308.186 307.121 304.518C312.425 300.913 317.607 309.011 312.091 312.299Z" fill="#F99370"/>
<path d="M319.942 312.299C319.858 312.252 319.74 312.18 319.664 312.129C319.662 312.128 319.66 312.127 319.658 312.125C322.812 315.226 324.791 319.218 326.938 323.139C328.394 325.685 331.007 330.264 326.828 331.513C324.586 331.51 324.574 334.935 326.819 334.946C327.25 334.98 327.707 335.02 328.137 334.994C336.132 334.51 336.277 325.365 334.081 319.556C332.047 314.181 329.653 308.186 324.912 304.518C319.608 300.913 314.425 309.011 319.942 312.299Z" fill="#F99370"/>
<path d="M308.339 303.785L307.377 309.729L306.122 317.491L305.948 318.561C304.925 318.55 303.936 318.404 303.041 318.198C300.702 317.658 299.004 316.711 299.004 316.711C299.004 316.711 299.178 316.188 299.5 315.365C300.192 313.597 301.565 310.438 303.36 308.082C305.989 304.631 308.339 303.785 308.339 303.785Z" fill="#EB5648"/>
<path d="M333.398 317.122C333.398 317.122 331.724 317.899 329.32 318.329C328.055 318.558 326.588 318.689 325.056 318.561L325.005 317.493L324.975 316.867L324.344 303.615C324.344 303.615 329.76 304.549 332.995 315.642C333.134 316.116 333.268 316.609 333.398 317.122Z" fill="#EB5648"/>
<path d="M299.5 315.365C299.5 315.365 301.892 316.537 306.122 317.49L305.948 318.561C304.925 318.55 303.936 318.404 303.041 318.198C300.702 317.658 299.004 316.711 299.004 316.711C299.004 316.711 299.178 316.188 299.5 315.365Z" fill="#CE3932"/>
<path d="M333.397 317.122C333.397 317.122 331.722 317.898 329.319 318.329C328.054 318.558 326.586 318.689 325.055 318.561L325.004 317.493C328.057 317.073 330.898 316.463 332.993 315.641C333.132 316.116 333.266 316.609 333.397 317.122Z" fill="#CE3932"/>
<path d="M307.377 307.874V309.729L305.948 318.561C304.924 318.55 303.936 318.404 303.041 318.198C303.136 317.265 303.409 315.674 304.191 314.205C305.394 311.944 307.377 307.874 307.377 307.874Z" fill="#CE3932"/>
<path d="M329.32 318.329C328.055 318.557 326.587 318.689 325.055 318.561L324.975 316.866L325.288 307.874C325.288 307.874 326.247 311.122 327.768 313.629C328.773 315.288 329.168 317.214 329.32 318.329Z" fill="#CE3932"/>
<path d="M331.04 333.658C326.494 335.76 321.331 336.668 316.439 336.668C311.547 336.668 305.996 335.646 301.449 333.545C301.637 329.353 306.162 326.345 304.079 321.275C303.095 318.881 304.25 315.863 305.167 313.897C305.375 313.453 305.569 313.063 305.725 312.746C307.109 309.916 308.343 303.79 308.343 303.79L309.125 303.452C311.48 302.558 313.921 302.491 313.921 302.491H318.957C318.957 302.491 321.249 302.473 323.513 303.277L324.345 303.615C324.62 303.845 325.472 309.795 326.556 312.866C327.298 314.969 329.259 317.917 328.081 321.516C326.182 327.316 330.877 330.014 331.04 333.658Z" fill="#EB5648"/>
<path d="M318.958 301.873V296.542H313.92V301.91C313.92 301.91 310.445 302.95 309.125 303.451C309.171 303.536 312.196 308.957 316.439 310.574C316.439 310.574 321.793 307.596 323.513 303.277C322.291 302.842 318.958 301.873 318.958 301.873Z" fill="#F99370"/>
<path d="M324.586 291.517C324.361 292.58 323.486 293.294 322.632 293.114C321.777 292.933 321.266 291.925 321.49 290.863C321.715 289.8 322.59 289.086 323.445 289.266C324.3 289.447 324.811 290.455 324.586 291.517Z" fill="#F99370"/>
<path d="M323.864 292.019C323.852 292.019 323.84 292.017 323.827 292.013C323.762 291.993 323.725 291.924 323.745 291.859C323.968 291.129 323.96 290.627 323.722 290.408C323.46 290.164 322.934 290.295 322.753 290.365C322.689 290.39 322.617 290.359 322.593 290.295C322.568 290.232 322.599 290.16 322.663 290.135C322.695 290.122 323.461 289.829 323.891 290.226C324.207 290.519 324.238 291.093 323.982 291.931C323.966 291.985 323.917 292.019 323.864 292.019Z" fill="#C16256"/>
<path d="M322.708 291.846C322.692 291.846 322.675 291.843 322.659 291.836C322.596 291.809 322.567 291.736 322.594 291.674C322.612 291.631 323.049 290.628 323.995 290.565C324.062 290.56 324.123 290.612 324.127 290.68C324.132 290.749 324.08 290.808 324.012 290.812C323.219 290.865 322.825 291.761 322.822 291.771C322.802 291.818 322.756 291.846 322.708 291.846Z" fill="#C16256"/>
<path d="M308.59 291.517C308.814 292.58 309.69 293.294 310.544 293.114C311.399 292.933 311.91 291.925 311.686 290.863C311.461 289.8 310.586 289.086 309.731 289.266C308.876 289.447 308.366 290.455 308.59 291.517Z" fill="#F99370"/>
<path d="M309.311 292.019C309.258 292.019 309.209 291.984 309.193 291.931C308.937 291.093 308.968 290.519 309.284 290.226C309.714 289.828 310.48 290.122 310.512 290.135C310.576 290.16 310.607 290.232 310.582 290.295C310.558 290.359 310.486 290.39 310.422 290.366C310.415 290.363 309.767 290.116 309.452 290.408C309.215 290.628 309.207 291.13 309.43 291.859C309.45 291.924 309.413 291.993 309.347 292.013C309.336 292.017 309.323 292.019 309.311 292.019Z" fill="#C16256"/>
<path d="M310.466 291.846C310.418 291.846 310.373 291.818 310.353 291.77C310.349 291.761 309.956 290.865 309.163 290.812C309.094 290.807 309.043 290.749 309.047 290.68C309.052 290.612 309.112 290.559 309.179 290.565C310.125 290.627 310.562 291.631 310.58 291.673C310.607 291.736 310.578 291.809 310.515 291.836C310.499 291.842 310.483 291.846 310.466 291.846Z" fill="#C16256"/>
<path d="M318.958 300.56V297.888H313.92V300.56C313.92 300.56 316.439 301.883 318.958 300.56Z" fill="#E57D61"/>
<path d="M310.278 294.362C310.507 301.896 322.228 302.102 322.846 294.647C322.973 291.909 322.095 291.034 321.736 287.625C321.084 281.436 312.289 281.107 311.499 287.579C311.187 290.132 310.255 292.024 310.278 294.362Z" fill="#F99370"/>
<path d="M314.897 290.571C314.981 290.406 314.915 290.205 314.751 290.121C314.586 290.037 314.384 290.103 314.3 290.268C314.216 290.433 314.282 290.634 314.447 290.718C314.612 290.802 314.814 290.736 314.897 290.571Z" fill="#C16256"/>
<path d="M318.915 290.579C318.999 290.414 318.933 290.212 318.768 290.128C318.603 290.045 318.401 290.11 318.318 290.275C318.234 290.44 318.3 290.642 318.465 290.726C318.63 290.81 318.831 290.744 318.915 290.579Z" fill="#C16256"/>
<path d="M316.886 293.485C316.755 293.485 316.628 293.468 316.514 293.432C316.448 293.41 316.411 293.339 316.432 293.272C316.454 293.206 316.524 293.169 316.591 293.19C317.017 293.327 317.619 293.113 317.7 292.921C317.729 292.853 317.638 292.786 317.556 292.742C316.838 292.353 316.355 290.993 316.335 290.935C316.312 290.869 316.347 290.796 316.413 290.773C316.479 290.75 316.551 290.785 316.575 290.851C316.579 290.864 317.045 292.176 317.677 292.519C318.022 292.706 317.971 292.932 317.934 293.021C317.819 293.29 317.332 293.485 316.886 293.485Z" fill="#C16256"/>
<path d="M316.915 295.39C316.124 295.39 315.503 295.067 315.464 295.047C315.402 295.014 315.379 294.937 315.411 294.875C315.444 294.813 315.521 294.79 315.583 294.823C315.596 294.83 316.919 295.514 318.093 294.825C318.154 294.79 318.232 294.81 318.267 294.87C318.302 294.931 318.282 295.008 318.222 295.044C317.779 295.304 317.324 295.39 316.915 295.39Z" fill="#C16256"/>
<path d="M319.323 283.622C319.323 283.622 318.57 288.134 311.094 289.733C311.094 289.733 310.662 285.844 312.227 283.622C313.793 281.399 318.049 281.208 319.323 283.622Z" fill="#8C4225"/>
<path d="M319.322 283.622C319.322 283.622 318.975 287.914 322.073 289.744C322.073 289.744 322.865 284.881 319.322 283.622Z" fill="#8C4225"/>
<path d="M308.34 303.784C308.34 303.784 311.299 309.916 316.439 311.641C316.439 311.641 322.149 309.662 324.344 303.614C324.344 303.614 323.594 303.174 323.048 303.123C323.048 303.123 320.73 307.868 316.439 310.176C316.439 310.176 312.476 308.315 309.591 303.285C309.591 303.285 308.909 303.332 308.34 303.784Z" fill="#CE3932"/>
<path d="M331.301 338.449H300.299V320.321C300.299 319.911 300.631 319.578 301.042 319.578H330.558C330.968 319.578 331.301 319.911 331.301 320.321V338.449Z" fill="#163260"/>
<path d="M326.927 353.387C326.86 353.401 326.157 353.398 324.981 353.36C323.69 353.318 321.826 353.233 319.602 353.08C319.464 353.071 319.324 353.062 319.184 353.051C318.639 353.013 318.075 352.971 317.494 352.923C316.774 352.866 316.029 352.802 315.264 352.73C302.164 351.508 283.014 348.186 285.363 339.583C288.535 327.977 319.902 341.538 327.237 344.888C328.215 345.335 328.765 345.599 328.765 345.599C330.237 349.988 326.927 353.387 326.927 353.387Z" fill="#9358E0"/>
<path d="M327.977 348.749L327.334 351.158L319.185 353.051C318.64 353.013 318.076 352.971 317.495 352.924C316.775 352.866 316.03 352.802 315.264 352.73L314.646 350.9L327.977 348.749Z" fill="#7640CC"/>
<path d="M326.927 353.388C326.859 353.401 326.157 353.398 324.98 353.36C324.98 353.36 328.617 349.887 327.237 344.889C328.214 345.335 328.765 345.6 328.765 345.6C330.236 349.988 326.927 353.388 326.927 353.388Z" fill="#7640CC"/>
<path d="M304.395 347.117C304.395 347.117 302.006 349.32 300.618 349.811C298.758 350.469 294.306 351.459 293.395 351.666C290.906 352.232 290.949 354.571 294.196 354.481L301.711 354.452C303.986 354.264 306.855 352.396 307.08 352.313C310.901 350.605 308.005 344.986 304.395 347.117Z" fill="#F99370"/>
<path d="M307.597 354.212C306.558 354.344 305.94 354.406 305.876 354.399C305.876 354.399 302.257 351.332 303.3 346.823C303.3 346.823 303.835 346.5 304.784 345.95C311.821 341.883 341.665 325.445 345.926 336.677C350.122 347.736 315.784 353.171 307.597 354.212Z" fill="#9358E0"/>
<path d="M307.597 354.212C306.558 354.344 305.94 354.406 305.876 354.399C305.876 354.399 302.257 351.332 303.3 346.823C303.3 346.823 303.825 346.433 304.784 345.95C304.784 345.95 304.142 350.718 307.597 354.212Z" fill="#7640CC"/>
<path d="M304.51 346.32C304.477 346.317 304.445 346.299 304.426 346.267C304.397 346.217 304.414 346.152 304.465 346.123C304.553 346.072 313.304 340.998 317.163 339.219C317.216 339.194 317.279 339.218 317.304 339.271C317.328 339.323 317.305 339.386 317.252 339.411C313.401 341.186 304.659 346.255 304.571 346.306C304.552 346.317 304.531 346.321 304.51 346.32Z" fill="#7640CC"/>
<path d="M319.68 289.457C319.653 289.457 319.625 289.448 319.602 289.43C318.669 288.703 317.791 288.995 317.754 289.009C317.689 289.032 317.616 288.997 317.593 288.931C317.57 288.865 317.604 288.793 317.67 288.769C317.712 288.754 318.711 288.414 319.758 289.23C319.813 289.273 319.823 289.353 319.78 289.408C319.755 289.44 319.718 289.457 319.68 289.457Z" fill="#C16256"/>
<path d="M313.812 289.46C313.777 289.46 313.741 289.445 313.716 289.415C313.671 289.362 313.677 289.282 313.73 289.237C313.762 289.209 314.535 288.563 315.865 288.83C315.933 288.844 315.978 288.911 315.964 288.98C315.95 289.048 315.884 289.093 315.815 289.079C314.611 288.838 313.901 289.424 313.894 289.429C313.87 289.45 313.841 289.46 313.812 289.46Z" fill="#C16256"/>
<path d="M28.833 226.524C10.5253 226.524 -4.36914 211.63 -4.36914 193.322C-4.36914 175.014 10.5253 160.12 28.833 160.12C47.1406 160.12 62.0351 175.014 62.0351 193.322C62.0351 211.63 47.1406 226.524 28.833 226.524ZM28.833 162.262C11.7065 162.262 -2.22707 176.195 -2.22707 193.322C-2.22707 210.449 11.7065 224.382 28.833 224.382C45.9595 224.382 59.893 210.449 59.893 193.322C59.893 176.195 45.9595 162.262 28.833 162.262Z" fill="#3E7CC6"/>
<path d="M28.8341 226.31C28.0184 226.31 27.2117 226.073 26.4365 225.606L27.3203 224.138C28.3361 224.75 29.351 224.746 30.3674 224.127L31.2589 225.59C30.4751 226.068 29.6592 226.31 28.8341 226.31ZM23.3504 222.269C22.6812 221.176 22.0489 219.863 21.4709 218.363L23.07 217.747C23.6106 219.15 24.1965 220.37 24.8115 221.373L23.3504 222.269ZM34.3328 222.245L32.8702 221.352C33.4841 220.346 34.0687 219.125 34.608 217.723L36.2075 218.338C35.6311 219.836 35.0005 221.151 34.3328 222.245ZM20.157 214.298C19.8053 213 19.4839 211.608 19.2023 210.161L20.8844 209.833C21.1584 211.24 21.4701 212.592 21.8111 213.85L20.157 214.298ZM37.5183 214.272L35.8639 213.825C36.2041 212.567 36.5151 211.215 36.7887 209.807L38.4711 210.134C38.1896 211.582 37.8691 212.975 37.5183 214.272ZM18.5164 205.983C18.3315 204.622 18.1753 203.209 18.0522 201.782L19.7596 201.635C19.8802 203.033 20.0334 204.419 20.2146 205.752L18.5164 205.983ZM39.1554 205.956L37.4572 205.726C37.638 204.393 37.7907 203.008 37.9109 201.608L39.6184 201.755C39.4956 203.182 39.3399 204.596 39.1554 205.956ZM17.7836 197.568C17.7253 196.179 17.6957 194.759 17.6953 193.349L19.409 193.349C19.4094 194.735 19.4385 196.131 19.4957 197.497L17.7836 197.568ZM39.8857 197.541L38.1735 197.47C38.2303 196.104 38.2592 194.709 38.2592 193.322V193.267H39.9729V193.322C39.9729 194.732 39.9435 196.152 39.8857 197.541ZM19.4936 189.201L17.7814 189.13C17.8399 187.711 17.9297 186.293 18.0477 184.916L19.7551 185.062C19.6392 186.414 19.5512 187.806 19.4936 189.201ZM38.1714 189.12C38.1127 187.727 38.0236 186.334 37.9064 184.982L39.6136 184.834C39.733 186.212 39.824 187.629 39.8838 189.048L38.1714 189.12ZM20.2073 180.944L18.5091 180.715C18.7032 179.279 18.9328 177.873 19.192 176.536L20.8744 176.862C20.6214 178.167 20.3971 179.54 20.2073 180.944ZM37.4501 180.864C37.2589 179.461 37.0329 178.088 36.7786 176.784L38.4606 176.456C38.7213 177.792 38.9526 179.197 39.1484 180.633L37.4501 180.864ZM21.7972 172.845L20.1426 172.398C20.5381 170.932 20.9782 169.564 21.4508 168.332L23.0509 168.946C22.5994 170.123 22.1776 171.435 21.7972 172.845ZM35.85 172.767C35.4674 171.358 35.0431 170.047 34.5888 168.872L36.1872 168.254C36.6627 169.485 37.1057 170.852 37.5037 172.318L35.85 172.767ZM24.7847 165.314L23.3206 164.424C24.2668 162.868 25.2969 161.74 26.3825 161.07L27.2817 162.529C26.4292 163.055 25.5891 163.992 24.7847 165.314ZM32.8434 165.248C32.0324 163.93 31.1865 163.004 30.3288 162.494L31.2043 161.021C32.3027 161.673 33.3453 162.794 34.3028 164.35L32.8434 165.248Z" fill="#3E7CC6"/>
<path d="M28.888 204.461H28.8336C27.422 204.461 26.0024 204.431 24.6144 204.374L24.6855 202.662C26.05 202.719 27.4456 202.747 28.8336 202.747H28.888V204.461ZM33.1073 204.371L33.0351 202.659C34.4293 202.6 35.8217 202.511 37.1733 202.394L37.3211 204.102C35.9444 204.221 34.5268 204.311 33.1073 204.371ZM20.4005 204.106C18.9754 203.984 17.562 203.828 16.1995 203.643L16.4293 201.945C17.7642 202.126 19.1497 202.279 20.5472 202.399L20.4005 204.106ZM41.5224 203.636L41.291 201.938C42.6956 201.746 44.0685 201.52 45.3717 201.266L45.6996 202.948C44.3645 203.209 42.9591 203.44 41.5224 203.636ZM12.0213 202.959C10.5737 202.677 9.1816 202.357 7.8835 202.006L8.33098 200.352C9.58924 200.692 10.9409 201.003 12.3482 201.276L12.0213 202.959ZM49.8371 201.992L49.3877 200.338C50.7982 199.955 52.1089 199.53 53.2832 199.076L53.901 200.675C52.6717 201.15 51.3044 201.593 49.8371 201.992ZM3.81828 200.695C2.3199 200.119 1.00552 199.488 -0.0886478 198.821L0.803958 197.358C1.81009 197.972 3.03107 198.557 4.43305 199.096L3.81828 200.695ZM57.8049 198.791L56.907 197.331C58.2252 196.52 59.1519 195.674 59.6615 194.816L61.1346 195.692C60.4819 196.79 59.3616 197.833 57.8049 198.791ZM-3.43456 195.747C-3.91203 194.963 -4.15408 194.147 -4.1543 193.322C-4.1543 192.506 -3.91781 191.699 -3.45106 190.924L-1.98288 191.808C-2.28663 192.313 -2.44085 192.822 -2.44085 193.322C-2.44085 193.828 -2.28277 194.344 -1.97132 194.855L-3.43456 195.747ZM59.6268 191.77C59.1009 190.917 58.1637 190.077 56.8414 189.273L57.7317 187.809C59.2877 188.755 60.4159 189.785 61.0853 190.871L59.6268 191.77ZM0.782321 189.299L-0.113064 187.838C0.979393 187.169 2.29334 186.536 3.79236 185.959L4.40863 187.558C3.00643 188.098 1.78631 188.684 0.782321 189.299ZM53.2095 187.539C52.0321 187.087 50.7204 186.665 49.3107 186.285L49.7572 184.63C51.2232 185.026 52.5911 185.466 53.8232 185.939L53.2095 187.539ZM8.30549 186.299L7.85737 184.645C9.15504 184.293 10.547 183.972 11.9948 183.69L12.3223 185.372C10.9147 185.646 9.56332 185.958 8.30549 186.299ZM45.2931 185.362C43.9883 185.109 42.6151 184.885 41.2116 184.695L41.441 182.997C42.8768 183.191 44.2827 183.421 45.6191 183.68L45.2931 185.362ZM16.4032 184.702L16.1725 183.004C17.534 182.819 18.9475 182.663 20.3735 182.54L20.5209 184.247C19.1223 184.368 17.737 184.521 16.4032 184.702ZM37.0934 184.243C35.7416 184.127 34.3492 184.039 32.955 183.981L33.0256 182.269C34.445 182.327 35.8628 182.417 37.2397 182.535L37.0934 184.243ZM24.6591 183.984L24.5874 182.271C25.9746 182.213 27.3939 182.184 28.8062 182.183L28.8068 183.897C27.4181 183.897 26.0228 183.926 24.6591 183.984Z" fill="#3E7CC6"/>
<path d="M29.2605 223.204H28.1895V221.062H29.2605V223.204ZM29.2605 218.92H28.1895V216.778H29.2605V218.92ZM29.2605 214.636H28.1895V212.493H29.2605V214.636ZM29.2605 210.351H28.1895V208.209H29.2605V210.351ZM29.2605 206.067H28.1895V203.925H29.2605V206.067ZM29.2605 201.783H28.1895V199.641H29.2605V201.783ZM29.2605 197.499H28.1895V195.357H29.2605V197.499ZM29.2605 193.215H28.1895V191.073H29.2605V193.215ZM29.2605 188.931H28.1895V186.789H29.2605V188.931ZM29.2605 184.647H28.1895V182.504H29.2605V184.647ZM29.2605 180.362H28.1895V178.22H29.2605V180.362ZM29.2605 176.078H28.1895V173.936H29.2605V176.078ZM29.2605 171.794H28.1895V169.652H29.2605V171.794ZM29.2605 167.51H28.1895V165.368H29.2605V167.51ZM29.2605 163.226H28.1895V161.084H29.2605V163.226Z" fill="#3E7CC6"/>
<path d="M60.8564 193.75H58.7143V192.679H60.8564V193.75ZM56.5723 193.75H54.4302V192.679H56.5723V193.75ZM52.2881 193.75H50.1461V192.679H52.2881V193.75ZM48.004 193.75H45.8619V192.679H48.004V193.75ZM43.7198 193.75H41.5778V192.679H43.7198V193.75ZM39.4357 193.75H37.2936V192.679H39.4357V193.75ZM35.1516 193.75H33.0095V192.679H35.1516V193.75ZM30.8674 193.75H28.7253V192.679H30.8674V193.75ZM26.5833 193.75H24.4412V192.679H26.5833V193.75ZM22.2991 193.75H20.157V192.679H22.2991V193.75ZM18.015 193.75H15.8729V192.679H18.015V193.75ZM13.7308 193.75H11.5888V192.679H13.7308V193.75ZM9.44669 193.75H7.30462V192.679H9.44669V193.75ZM5.16254 193.75H3.02047V192.679H5.16254V193.75ZM0.8784 193.75H-1.26367V192.679H0.8784V193.75Z" fill="#3E7CC6"/>
<path d="M325.147 248.161L315.899 242.82V247.09H290.231V221.422H294.501L289.16 212.174L283.82 221.422H288.089V249.232H315.899V253.501L325.147 248.161Z" fill="#3E7CC6"/>
<path d="M144.811 217.003C145.803 219.778 143.876 218.372 148.1 218.634C148.985 218.689 150.846 218.629 149.919 216.811C149.168 214.726 149.815 208.939 149.333 206.781C147.149 197.133 139.762 202.868 144.811 217.003Z" fill="#ED8569"/>
<path d="M150.526 220.287C150.505 220.916 150.209 221.64 149.479 221.64L136.169 221.931C135.482 221.947 134.979 221.269 135.209 220.622C135.694 219.159 137.83 216.612 144.648 216.537C144.648 216.537 146.869 217.15 149.782 216.326C149.782 216.326 150.765 217.91 150.526 220.287Z" fill="#EB5648"/>
<path d="M139.303 220.063C139.338 220.062 139.374 220.055 139.409 220.04C139.552 219.978 139.618 219.812 139.556 219.668C138.917 218.186 137.773 217.75 137.725 217.733C137.577 217.679 137.415 217.754 137.361 217.9C137.307 218.045 137.382 218.207 137.527 218.262C137.567 218.277 138.498 218.643 139.037 219.892C139.084 220.001 139.191 220.065 139.303 220.063Z" fill="#E8C0A6"/>
<path d="M141.495 219.75C141.522 219.749 141.55 219.744 141.578 219.735C141.726 219.686 141.806 219.526 141.757 219.378C141.198 217.706 139.746 216.977 139.685 216.947C139.544 216.877 139.376 216.935 139.307 217.075C139.237 217.215 139.295 217.384 139.435 217.454C139.448 217.46 140.739 218.115 141.22 219.557C141.26 219.677 141.374 219.752 141.495 219.75Z" fill="#E8C0A6"/>
<path d="M143.99 219.388C144.02 219.387 144.052 219.381 144.082 219.37C144.229 219.316 144.303 219.153 144.248 219.007C143.618 217.318 142.266 216.451 142.209 216.415C142.077 216.332 141.903 216.371 141.819 216.503C141.736 216.635 141.775 216.809 141.907 216.893C141.919 216.901 143.157 217.7 143.718 219.204C143.761 219.32 143.872 219.391 143.99 219.388Z" fill="#E8C0A6"/>
<path d="M135.209 220.622L150.526 220.287C150.479 220.756 150.36 221.212 150.135 221.626L136.169 221.931C135.491 221.946 134.99 221.289 135.201 220.645C135.204 220.637 135.206 220.63 135.209 220.622Z" fill="#CE3932"/>
<path d="M164.448 225.306C165.892 227.717 164.048 228.36 167.329 227.163C169.48 226.201 170.195 225.957 169.388 223.994C168.743 221.64 168.015 217.105 167.541 214.716C166.326 207.428 156.644 212.273 164.448 225.306Z" fill="#F99370"/>
<path d="M171.081 227.591C171.215 228.206 171.106 228.98 170.399 229.159L157.567 232.707C156.904 232.891 156.25 232.358 156.315 231.674C156.426 230.137 157.473 227.149 164.482 225.388C164.482 225.388 166.739 225.509 169.356 223.879C169.356 223.879 170.73 225.228 171.081 227.591Z" fill="#EB5648"/>
<path d="M160.149 230.127C160.183 230.117 160.216 230.102 160.246 230.078C160.37 229.983 160.393 229.806 160.298 229.682C159.314 228.402 158.098 228.26 158.047 228.255C157.891 228.24 157.753 228.351 157.736 228.506C157.719 228.661 157.831 228.8 157.986 228.817C158.028 228.821 159.02 228.948 159.849 230.027C159.922 230.121 160.041 230.157 160.149 230.127Z" fill="#E8C0A6"/>
<path d="M162.196 229.285C162.222 229.278 162.248 229.267 162.273 229.251C162.405 229.167 162.443 228.992 162.359 228.86C161.407 227.377 159.821 227.026 159.754 227.012C159.6 226.98 159.451 227.077 159.419 227.229C159.386 227.382 159.483 227.532 159.635 227.565C159.65 227.568 161.062 227.886 161.882 229.166C161.951 229.272 162.079 229.318 162.196 229.285Z" fill="#E8C0A6"/>
<path d="M164.525 228.323C164.555 228.315 164.584 228.301 164.611 228.283C164.739 228.194 164.771 228.018 164.682 227.89C163.657 226.407 162.134 225.899 162.069 225.878C161.921 225.83 161.762 225.91 161.713 226.059C161.665 226.207 161.746 226.366 161.894 226.415C161.908 226.42 163.304 226.89 164.217 228.211C164.287 228.313 164.412 228.354 164.525 228.323Z" fill="#E8C0A6"/>
<path d="M156.317 231.673L171.083 227.591C171.153 228.056 171.149 228.528 171.032 228.985L157.569 232.707C156.915 232.888 156.268 232.374 156.315 231.698C156.315 231.69 156.316 231.682 156.317 231.673Z" fill="#CE3932"/>
<path d="M140.139 210.336C140.345 212.009 140.516 213.012 140.528 213.115C140.528 213.115 145.795 214.198 152.805 213.115C152.85 203.906 152.787 186.79 159.591 181.118C161.176 180.06 165.185 177.24 168.17 175.484C175.646 171.853 186.741 169.054 189.792 162.009C185.764 160.342 177.34 156.856 173.273 155.173C140.173 158.781 136.997 188.566 140.139 210.336Z" fill="#CE4ABF"/>
<path d="M153.045 202.4C154.137 187.202 155.725 182.116 168.17 175.484L174.016 162.111C158.273 166.985 144.897 183.125 153.045 202.4Z" fill="#A523A2"/>
<path d="M153.227 199.957C154.772 208.802 157.404 215.76 159.592 222.755C159.592 222.755 168.201 223.297 172.519 218.746C170.669 211.883 167.421 198.539 170.95 188.581C172.361 184.929 176.035 179.201 187.09 175.961C200.865 171.922 198.776 159.412 198.776 159.412C193.964 150.072 185.081 158.292 182.472 158.979C160.499 165.62 148.071 179.47 153.227 199.957Z" fill="#CE4ABF"/>
<path d="M158.766 220.171L159.591 222.755C159.591 222.755 168.2 223.297 172.518 218.746C172.518 218.746 172.242 217.74 171.852 216.196C171.852 216.196 167.08 221.363 158.766 220.171Z" fill="#A523A2"/>
<path d="M140.141 210.336C140.347 212.009 140.517 213.012 140.529 213.115C140.529 213.115 145.797 214.198 152.807 213.115C152.807 213.158 152.82 210.615 152.82 210.615C152.82 210.615 145.857 212.127 140.141 210.336Z" fill="#A523A2"/>
<path d="M196.052 132.476C212.455 122.549 216.872 107.614 213.352 89.3908C212.825 86.8374 208.961 87.3817 209.148 89.9734C209.203 104.445 202.49 115.511 188.141 120.704C188.145 120.702 188.488 135.949 196.052 132.476Z" fill="#F99370"/>
<path d="M208.21 127.676V127.678C208.21 127.678 208.21 127.676 208.208 127.678C208.038 127.89 207.862 128.102 207.682 128.311C205.473 130.908 203.138 134.117 200.21 136.191C200.208 136.193 200.208 136.193 200.205 136.193C199.173 136.927 198.066 137.517 196.867 137.891C194.83 136.931 187.766 129.958 187.797 119.622C196.978 116.543 207.038 110.786 209.115 92.0693C209.115 92.0693 211.858 93.072 213.866 92.4125C216.306 102.517 216.91 116.953 208.21 127.676Z" fill="#1D3F70"/>
<path d="M214.198 93.9948C211.895 94.7904 209.015 93.6493 208.926 93.6126C208.995 93.1086 209.058 92.5934 209.113 92.0688C209.113 92.0688 211.857 93.0735 213.864 92.4133C213.864 92.4133 214.006 92.9884 214.198 93.9948Z" fill="#103663"/>
<path d="M179.67 132.176C160.959 127.989 152.016 115.239 149.548 96.8437C149.234 94.2552 153.021 93.5655 153.669 96.082C158.325 109.673 165.852 119.194 181.098 119.526C181.093 119.525 181.08 119.521 181.075 119.52C189.348 120.477 187.946 133.058 179.67 132.176Z" fill="#F99370"/>
<path d="M182.705 119.257L172.147 134.879C172.147 134.879 171.382 134.487 170.181 133.722C168.258 132.497 165.218 130.317 162.413 127.271C153.978 118.112 150.267 104.583 149.875 99.0137C152.761 99.2699 154.287 97.6968 154.287 97.6968C154.486 98.1357 154.702 98.5815 154.927 99.0339V99.036C160.895 111.578 171.596 119.665 182.705 119.257Z" fill="#1D3F70"/>
<path d="M154.927 99.0344L154.927 99.0359C153.256 100.666 150.066 100.621 150.066 100.621C149.923 99.6025 149.875 99.0147 149.875 99.0147C152.761 99.2704 154.287 97.6958 154.287 97.6958C154.486 98.1349 154.701 98.5811 154.927 99.0344Z" fill="#103663"/>
<path d="M182.708 119.254C182.591 116.49 183.31 112.557 183.808 110.966C184.731 107.806 189.738 109.417 188.662 112.511C188.505 112.396 187.558 118.174 187.804 119.815C192.482 121.595 177.757 125.264 182.708 119.254Z" fill="#F99370"/>
<path d="M188.732 112.25C188.723 112.287 188.716 112.325 188.706 112.361C188.693 112.412 188.679 112.462 188.663 112.511C188.551 112.424 187.986 115.609 187.814 117.938C185.551 118.775 183.14 118.16 182.699 118.036C182.78 115.566 183.385 112.542 183.667 111.415C183.746 111.151 183.8 110.998 183.81 110.966C183.833 110.895 183.859 110.825 183.887 110.757C184.185 110.045 184.779 109.53 185.476 109.312C185.478 109.312 185.478 109.312 185.478 109.312C185.962 109.161 186.494 109.153 187.013 109.319C187.527 109.484 187.952 109.796 188.257 110.194C188.27 110.21 188.283 110.227 188.295 110.243C188.704 110.806 188.88 111.531 188.732 112.25Z" fill="#E57D61"/>
<path d="M180.525 105.689C180.525 105.689 181.207 103.024 182.482 101.378L183.833 102.492L180.525 105.689Z" fill="#C92828"/>
<path d="M178.62 113.506C179.999 115.786 182.682 116.978 185.041 117.028C185.774 117.055 186.499 116.968 187.18 116.74L187.181 116.74C187.412 116.663 187.634 116.572 187.851 116.465L187.854 116.466C198.438 109.899 190.185 93.0684 181.972 104.091C179.361 107.124 175.806 108.237 178.62 113.506Z" fill="#F99370"/>
<path d="M180.754 110.89L184.08 110.079C184.08 110.079 183.874 111.737 182.596 111.898C181.374 112.051 180.754 110.89 180.754 110.89Z" fill="#F9F8F3"/>
<path d="M183.955 107.411C183.909 107.222 184.026 107.032 184.214 106.986C184.403 106.941 184.594 107.057 184.639 107.245C184.685 107.434 184.569 107.624 184.38 107.67C184.191 107.716 184.001 107.6 183.955 107.411Z" fill="#C16256"/>
<path d="M181.19 106.245C181.144 106.056 181.26 105.866 181.449 105.82C181.638 105.774 181.828 105.89 181.874 106.079C181.92 106.268 181.804 106.458 181.615 106.504C181.426 106.549 181.236 106.433 181.19 106.245Z" fill="#C16256"/>
<path d="M180.71 111.015C180.734 111.023 180.761 111.026 180.788 111.019L184.114 110.208C184.186 110.19 184.229 110.119 184.212 110.047C184.194 109.976 184.121 109.932 184.051 109.949L180.724 110.76C180.653 110.778 180.609 110.85 180.627 110.921C180.638 110.966 180.67 111 180.71 111.015Z" fill="#C16256"/>
<path d="M181.378 109.42C181.573 109.491 181.78 109.529 181.967 109.515C182.04 109.509 182.095 109.445 182.089 109.372C182.084 109.298 182.018 109.244 181.946 109.249C181.479 109.285 180.915 108.922 180.877 108.705C180.864 108.629 180.973 108.582 181.067 108.557C181.896 108.334 182.719 107.061 182.753 107.007C182.793 106.945 182.775 106.863 182.713 106.823C182.649 106.782 182.568 106.802 182.529 106.864C182.521 106.876 181.728 108.103 180.998 108.3C180.6 108.407 180.597 108.651 180.615 108.75C180.659 109.01 180.995 109.28 181.378 109.42Z" fill="#C16256"/>
<path d="M182.57 103.336C184.661 102.799 187.817 104.491 189.474 104.872C189.474 104.872 188.45 107.616 190.825 110.309C190.448 112.966 190.606 114.203 187.18 116.739L187.181 116.74C187.411 116.663 187.634 116.572 187.851 116.464L187.854 116.466C198.027 110.224 190.644 93.6835 182.57 103.336Z" fill="#E57D61"/>
<path d="M182.506 97.3677C184.072 95.5195 187.506 95.129 189.618 98.3766C191.244 100.877 193.518 101.401 192.97 103.497C196.732 106.414 193.534 110.56 193.534 110.56L191.48 109.808C189.531 107.28 190.287 104.426 190.287 104.426L190.288 104.426C189.743 104.324 189.181 104.166 188.71 103.918C187.249 103.151 184.993 102.411 183.085 102.64C181.177 102.868 180.756 99.4333 182.506 97.3677Z" fill="#C92828"/>
<path d="M193.43 112.335C192.944 113.366 191.876 113.884 191.046 113.492C190.215 113.101 189.936 111.947 190.423 110.917C190.91 109.886 191.977 109.368 192.808 109.759C193.638 110.151 193.917 111.305 193.43 112.335Z" fill="#F99370"/>
<path d="M191.696 110.405C191.733 110.4 192.608 110.281 192.959 110.805C193.048 110.938 193.091 111.1 193.092 111.286C193.092 111.286 193.092 111.286 193.092 111.287C193.093 111.304 193.095 111.32 193.094 111.338C193.094 111.338 193.094 111.339 193.094 111.339V111.339C193.081 111.681 192.928 112.106 192.633 112.611C192.6 112.667 192.531 112.69 192.472 112.669C192.464 112.666 192.457 112.663 192.45 112.659C192.387 112.622 192.365 112.54 192.402 112.476C192.641 112.067 192.778 111.721 192.816 111.444C192.037 111.399 191.463 112.147 191.457 112.155C191.421 112.204 191.358 112.221 191.304 112.201C191.293 112.197 191.282 112.191 191.271 112.183C191.212 112.139 191.199 112.056 191.243 111.997C191.271 111.959 191.9 111.122 192.816 111.168C192.803 111.087 192.779 111.014 192.738 110.954C192.48 110.569 191.74 110.668 191.733 110.669C191.66 110.678 191.593 110.628 191.583 110.555C191.572 110.482 191.623 110.415 191.696 110.405Z" fill="#C16256"/>
<path d="M189.99 112.273L191.246 111.609C191.256 111.556 191.271 111.504 191.295 111.453C191.442 111.157 191.801 111.035 192.097 111.182C192.394 111.328 192.516 111.686 192.37 111.983C192.228 112.271 191.885 112.392 191.593 112.264L190.337 112.927C190.241 112.978 190.131 112.982 190.036 112.948C189.953 112.917 189.881 112.857 189.836 112.773C189.74 112.592 189.809 112.368 189.99 112.273Z" fill="#FDFFDE"/>
<path d="M165.896 156.523C165.896 156.523 177.83 162.955 198.89 161.194C198.89 161.194 198.956 160.645 199.056 159.688C199.493 155.61 200.604 144.127 200.202 136.196C200.202 136.196 199.647 129.47 198.456 126.189C194.839 116.23 187.798 119.622 187.798 119.622C186.155 122.942 182.246 125.581 182.246 125.581C181.577 122.111 182.653 119.416 182.705 119.256C177.283 120.5 172.416 124.59 170.236 133.575C169.213 137.783 165.51 147.964 165.111 153.303C164.998 154.801 165.357 156.027 165.896 156.523Z" fill="#1D3F70"/>
<path d="M180.849 119.247C180.849 119.247 179.791 124.249 181.687 127.271C181.687 127.271 187.39 125.357 189.492 119.025C189.492 119.025 188.707 118.981 187.797 119.623C187.797 119.623 185.127 123.328 182.499 125.099C182.499 125.099 181.877 122.915 182.705 119.257C182.705 119.257 181.731 118.988 180.849 119.247Z" fill="#E8C0A6"/>
<path d="M185.995 107.045C185.935 107.041 185.88 107.005 185.854 106.946C185.401 105.931 184.439 105.651 184.43 105.649C184.34 105.624 184.288 105.531 184.313 105.442C184.338 105.353 184.43 105.3 184.519 105.325C184.565 105.337 185.641 105.645 186.16 106.809C186.198 106.894 186.16 106.993 186.075 107.031C186.049 107.043 186.022 107.047 185.995 107.045Z" fill="#C16256"/>
<path d="M183.437 105.055C183.407 105.053 183.378 105.043 183.352 105.024C182.505 104.422 181.895 104.741 181.889 104.744C181.807 104.788 181.705 104.758 181.661 104.676C181.617 104.595 181.647 104.493 181.728 104.449C181.76 104.431 182.53 104.028 183.547 104.75C183.622 104.804 183.64 104.909 183.586 104.985C183.551 105.034 183.494 105.059 183.437 105.055Z" fill="#C16256"/>
<path d="M208.208 127.679C208.038 127.89 207.862 128.102 207.682 128.312C205.473 130.908 203.138 134.117 200.21 136.192C200.208 136.194 200.208 136.194 200.205 136.194C200.203 136.196 200.201 136.196 200.201 136.196C200.12 131.768 198.964 129.247 198.893 129.094C202.189 132.831 208.074 127.795 208.208 127.679Z" fill="#103663"/>
<path d="M172.16 128.084C172.16 128.084 170.929 131.061 170.234 133.575C170.221 133.626 170.203 133.675 170.181 133.722C168.257 132.497 165.218 130.317 162.412 127.271C162.412 127.271 168.03 131.483 172.16 128.084Z" fill="#103663"/>
<path d="M112.287 96.5231L175.623 17.8523L254.294 81.1882L112.287 96.5231ZM178.624 45.6388L157.6 71.7522L204.737 66.662L178.624 45.6388Z" fill="#EB5648"/>
<path d="M243.537 77.4663L242.686 77.5583L243.206 82.3754L244.058 82.2834L243.537 77.4663Z" fill="#CE3932"/>
<path d="M239.16 74.7267L238.309 74.8186L239.173 82.8299L240.025 82.738L239.16 74.7267Z" fill="#CE3932"/>
<path d="M231.119 75.5747L230.268 75.6667L231.133 83.6783L231.985 83.5862L231.119 75.5747Z" fill="#CE3932"/>
<path d="M211.34 80.9387L210.488 81.0308L211.009 85.8478L211.861 85.7558L211.34 80.9387Z" fill="#CE3932"/>
<path d="M206.969 78.1831L206.117 78.2751L206.983 86.2867L207.835 86.1946L206.969 78.1831Z" fill="#CE3932"/>
<path d="M227.438 79.2058L226.586 79.2979L227.106 84.1149L227.958 84.0229L227.438 79.2058Z" fill="#CE3932"/>
<path d="M223.061 76.4652L222.209 76.5571L223.074 84.5687L223.925 84.4767L223.061 76.4652Z" fill="#CE3932"/>
<path d="M195.239 82.6782L194.387 82.7703L194.907 87.5871L195.759 87.4951L195.239 82.6782Z" fill="#CE3932"/>
<path d="M190.867 79.9224L190.016 80.0144L190.881 88.0259L191.733 87.9339L190.867 79.9224Z" fill="#CE3932"/>
<path d="M171.088 85.2923L170.236 85.3843L170.757 90.2013L171.609 90.1093L171.088 85.2923Z" fill="#CE3932"/>
<path d="M166.719 82.5278L165.867 82.6199L166.733 90.6314L167.585 90.5394L166.719 82.5278Z" fill="#CE3932"/>
<path d="M146.938 87.9009L146.086 87.9929L146.606 92.81L147.458 92.718L146.938 87.9009Z" fill="#CE3932"/>
<path d="M142.569 85.1365L141.717 85.2285L142.582 93.24L143.434 93.148L142.569 85.1365Z" fill="#CE3932"/>
<path d="M179.139 84.4168L178.287 84.5088L178.807 89.3258L179.659 89.2338L179.139 84.4168Z" fill="#CE3932"/>
<path d="M174.768 81.6585L173.916 81.7505L174.781 89.7618L175.633 89.6698L174.768 81.6585Z" fill="#CE3932"/>
<path d="M154.987 87.031L154.135 87.123L154.655 91.9401L155.507 91.8481L154.987 87.031Z" fill="#CE3932"/>
<path d="M150.619 84.2676L149.768 84.3596L150.633 92.3709L151.485 92.2789L150.619 84.2676Z" fill="#CE3932"/>
<path d="M130.836 89.6409L129.984 89.7329L130.505 94.55L131.357 94.4579L130.836 89.6409Z" fill="#CE3932"/>
<path d="M126.469 86.8753L125.617 86.9673L126.483 94.9788L127.335 94.8868L126.469 86.8753Z" fill="#CE3932"/>
<path d="M138.887 88.7703L138.035 88.8623L138.556 93.6794L139.407 93.5873L138.887 88.7703Z" fill="#CE3932"/>
<path d="M134.518 86.0064L133.666 86.0984L134.531 94.1099L135.383 94.0179L134.518 86.0064Z" fill="#CE3932"/>
<path d="M235.489 78.3364L234.637 78.4285L235.157 83.2455L236.009 83.1535L235.489 78.3364Z" fill="#CE3932"/>
<path d="M219.387 80.0755L218.535 80.1675L219.056 84.9845L219.907 84.8925L219.387 80.0755Z" fill="#CE3932"/>
<path d="M215.018 77.314L214.166 77.406L215.031 85.4173L215.883 85.3253L215.018 77.314Z" fill="#CE3932"/>
<path d="M203.289 81.8084L202.438 81.9004L202.958 86.7172L203.81 86.6252L203.289 81.8084Z" fill="#CE3932"/>
<path d="M198.918 79.052L198.066 79.144L198.932 87.1556L199.784 87.0635L198.918 79.052Z" fill="#CE3932"/>
<path d="M187.19 83.5488L186.338 83.6409L186.858 88.4579L187.71 88.3659L187.19 83.5488Z" fill="#CE3932"/>
<path d="M182.819 80.791L181.967 80.8831L182.832 88.8946L183.684 88.8026L182.819 80.791Z" fill="#CE3932"/>
<path d="M163.037 86.1621L162.186 86.2542L162.706 91.0712L163.558 90.9792L163.037 86.1621Z" fill="#CE3932"/>
<path d="M158.67 83.3975L157.818 83.4895L158.684 91.501L159.536 91.409L158.67 83.3975Z" fill="#CE3932"/>
<path d="M122.789 90.5051L121.938 90.5972L122.458 95.4142L123.31 95.3222L122.789 90.5051Z" fill="#CE3932"/>
<path d="M209.254 83.155C210.016 83.1516 209.82 85.3766 210.217 85.9479L215.854 85.3391C215.59 86.7966 214.495 89.0481 213.498 90.1772C212.91 90.8431 209.465 90.7864 209.147 89.9735C208.533 88.4072 208.59 86.7531 208.681 86.3604C208.894 85.4528 208.431 83.5618 209.254 83.155Z" fill="#F99370"/>
<path d="M151.492 89.52C150.625 89.7773 151.768 92.2595 151.768 92.2595L146.189 92.8619C147.401 94.8366 148.143 96.1172 150.194 97.3576C150.954 97.8175 153.856 97.6337 153.905 96.7621C153.981 95.4105 153.456 92.7918 153.331 92.4084C153.208 91.6218 152.372 89.2591 151.492 89.52Z" fill="#F99370"/>
<path d="M98.7104 115.716H87.5138V55.4211C87.5138 55.007 87.1782 54.6714 86.7641 54.6714H71.2733C71.0256 54.6714 70.7939 54.7937 70.6542 54.9981L28.908 116.108C28.823 116.233 28.7773 116.38 28.7773 116.531V132.678C28.7773 133.092 29.113 133.428 29.5271 133.428H68.1604V152.042C68.1604 152.456 68.4961 152.792 68.9101 152.792H86.7641C87.1782 152.792 87.5138 152.456 87.5138 152.042V133.428H98.7104C99.1245 133.428 99.4602 133.092 99.4602 132.678V116.465C99.4602 116.051 99.1245 115.716 98.7104 115.716ZM48.1978 115.716L68.1604 86.0382V115.716H48.1978Z" fill="#8A9EDD"/>
<path d="M411.523 223.397C405.713 217.32 398.53 214.239 390.174 214.239C386.248 214.239 382.348 215.092 378.562 216.777L381.088 202.479H415.248C415.662 202.479 415.998 202.144 415.998 201.729V184.467C415.998 184.052 415.662 183.717 415.248 183.717H366.478C366.118 183.717 365.808 183.973 365.742 184.328L356.29 234.41C356.252 234.611 356.298 234.818 356.416 234.985C356.535 235.151 356.717 235.262 356.919 235.291L371.885 237.457C372.132 237.493 372.383 237.402 372.55 237.216C376.583 232.721 381.188 230.442 386.236 230.442C390.294 230.442 393.493 231.809 396.015 234.623C398.523 237.421 399.795 241.725 399.795 247.414C399.795 253.503 398.508 258.098 395.971 261.073C393.428 264.054 390.415 265.503 386.761 265.503C383.604 265.503 380.774 264.346 378.348 262.064C375.908 259.769 374.418 256.598 373.918 252.637C373.866 252.233 373.501 251.943 373.097 251.985L354.718 253.889C354.516 253.91 354.331 254.012 354.205 254.171C354.08 254.331 354.024 254.534 354.052 254.735C355.165 262.939 358.631 269.567 364.351 274.437C370.065 279.304 377.538 281.771 386.564 281.771C397.878 281.771 406.848 277.384 413.225 268.733C417.896 262.418 420.264 255.135 420.264 247.086C420.264 237.436 417.323 229.466 411.523 223.397Z" fill="#8A9EDD"/>
<path d="M334.225 66.5623H287.848C287.544 66.5623 287.297 66.809 287.297 67.1134V79.7088C287.297 80.0132 287.544 80.26 287.848 80.26H317.552C311.498 88.0672 306.57 96.9842 302.895 106.781C299.078 116.96 297.029 127.088 296.804 136.882C296.801 137.031 296.857 137.174 296.961 137.28C297.065 137.386 297.207 137.446 297.355 137.446H310.433C310.58 137.446 310.72 137.388 310.824 137.284C310.927 137.18 310.985 137.039 310.984 136.892C310.952 130.729 311.977 123.625 314.031 115.777C316.084 107.929 319.111 100.414 323.026 93.4427C326.94 86.4743 330.838 81.0602 334.611 77.351C334.716 77.2473 334.776 77.1058 334.776 76.9579V67.1132C334.776 66.809 334.529 66.5623 334.225 66.5623Z" fill="#F49F9F"/>
<path d="M422.789 109.217H420.129V107.444H421.015V106.558H422.789V109.217Z" fill="#3E7CC6"/>
<path d="M416.223 109.217H412.318V107.444H416.223V109.217ZM408.413 109.217H404.507V107.444H408.413V109.217ZM400.602 109.217H396.697V107.444H400.602V109.217ZM392.792 109.217H388.887V107.444H392.792V109.217Z" fill="#3E7CC6"/>
<path d="M384.982 109.217H382.322V106.558H384.095V107.444H384.982V109.217Z" fill="#3E7CC6"/>
<path d="M384.095 102.652H382.322V98.7473H384.095V102.652ZM384.095 94.8423H382.322V90.9373H384.095V94.8423ZM384.095 87.0318H382.322V83.1268H384.095V87.0318ZM384.095 79.2216H382.322V75.3164H384.095V79.2216Z" fill="#3E7CC6"/>
<path d="M384.095 71.4113H382.322V68.7517H384.982V70.5247H384.095V71.4113Z" fill="#3E7CC6"/>
<path d="M416.223 70.5247H412.318V68.7517H416.223V70.5247ZM408.412 70.5247H404.507V68.7517H408.412V70.5247ZM400.602 70.5247H396.697V68.7517H400.602V70.5247ZM392.792 70.5247H388.887V68.7517H392.792V70.5247Z" fill="#3E7CC6"/>
<path d="M422.789 71.4113H421.015V70.5247H420.129V68.7517H422.789V71.4113Z" fill="#3E7CC6"/>
<path d="M422.787 102.652H421.014V98.7473H422.787V102.652ZM422.787 94.8423H421.014V90.9373H422.787V94.8423ZM422.787 87.0318H421.014V83.1268H422.787V87.0318ZM422.787 79.2216H421.014V75.3164H422.787V79.2216Z" fill="#3E7CC6"/>
<path d="M386.207 97.8431L386.057 96.0765C387.802 95.9278 389.533 95.593 391.2 95.0811L391.721 96.7761C389.933 97.3249 388.078 97.6839 386.207 97.8431ZM380.596 97.7323C378.734 97.4988 376.894 97.0657 375.129 96.4447L375.717 94.772C377.364 95.3512 379.079 95.7552 380.817 95.9728L380.596 97.7323ZM396.883 94.5653L396.016 93.0189C397.538 92.1649 398.976 91.1448 400.289 89.987L401.461 91.3168C400.055 92.5571 398.515 93.6502 396.883 94.5653ZM370.059 94.0282C368.464 93.0482 366.968 91.8945 365.612 90.5992L366.837 89.3172C368.103 90.5264 369.499 91.603 370.987 92.5177L370.059 94.0282ZM405.258 87.1807L403.833 86.1259C404.875 84.7184 405.768 83.1981 406.487 81.6076L408.103 82.3383C407.331 84.043 406.374 85.6722 405.258 87.1807ZM361.984 86.3157C360.929 84.7646 360.038 83.099 359.337 81.3654L360.98 80.7003C361.635 82.3175 362.466 83.8714 363.45 85.3188L361.984 86.3157ZM409.859 77.0028L408.125 76.6312C408.489 74.9304 408.674 73.1771 408.674 71.4204H410.447C410.447 73.3016 410.249 75.1799 409.859 77.0028ZM357.796 75.9646C357.539 74.4741 357.408 72.9453 357.408 71.4202C357.408 71.0699 357.415 70.7146 357.429 70.3637L359.2 70.4325C359.188 70.7604 359.181 71.0926 359.181 71.42C359.181 72.8442 359.303 74.2717 359.543 75.6625L357.796 75.9646ZM408.461 68.1537C408.232 66.4189 407.817 64.7061 407.228 63.0629L408.897 62.4642C409.529 64.226 409.973 66.0622 410.219 67.922L408.461 68.1537ZM359.957 65.2486L358.239 64.8078C358.705 62.9941 359.367 61.2241 360.208 59.5469L361.793 60.3416C361.009 61.9064 360.391 63.5573 359.957 65.2486ZM404.944 58.3482C404.02 56.8659 402.935 55.4765 401.718 54.2187L402.993 52.9861C404.296 54.3335 405.459 55.822 406.449 57.4102L404.944 58.3482ZM364.625 55.9328L363.243 54.8223C364.416 53.3621 365.748 52.0222 367.201 50.84L368.32 52.2152C366.964 53.3188 365.721 54.5696 364.625 55.9328ZM397.698 50.8558C396.244 49.8801 394.684 49.0586 393.062 48.4141L393.717 46.7664C395.456 47.4575 397.128 48.3381 398.686 49.3838L397.698 50.8558ZM372.71 49.3562L371.905 47.7764C373.576 46.9249 375.341 46.2515 377.152 45.7742L377.604 47.4887C375.915 47.9338 374.268 48.5621 372.71 49.3562ZM388.015 47.0095C386.301 46.7249 384.523 46.6201 382.783 46.6998L382.702 44.9285C384.566 44.8439 386.469 44.9555 388.305 45.2605L388.015 47.0095Z" fill="#3E7CC6"/>
<path d="M200.787 186.243C200.766 186.723 200.53 191.767 199.63 200.858C199.423 202.977 199.176 205.318 198.889 207.871C197.428 220.855 194.886 239.358 190.518 262.522C186.583 283.388 180.375 301.48 172.066 316.299C169.067 321.643 164.393 327.926 160.163 333.193C155.255 339.307 146.102 339.74 140.636 334.121C140.541 334.024 140.447 333.928 140.353 333.832C135.709 329.059 135.405 321.558 139.644 316.421C142.968 312.392 146.7 307.276 149.476 301.808C153.743 293.396 160.143 279.091 164.203 257.559C168.335 235.643 170.768 217.993 172.182 205.592C172.432 203.39 172.651 201.353 172.842 199.487C173.788 190.21 174.028 185.172 174.035 185.056C174.369 177.672 180.628 171.951 188.007 172.281C195.391 172.611 201.113 178.859 200.787 186.243Z" fill="#3A72AA"/>
<path d="M296.573 306.949C292.63 316.451 286.595 324.205 279.122 329.372C272.749 333.78 265.567 336.096 258.481 336.096C256.868 336.096 255.261 335.976 253.67 335.734C245.457 334.483 238.009 329.978 232.697 323.044C227.534 316.307 224.432 307.593 223.475 297.147C221.305 273.457 225.776 235.712 229.301 211.457C229.685 208.823 230.058 206.346 230.409 204.065C231.79 195.103 232.849 189.141 232.994 188.323C234.297 181.044 241.252 176.199 248.533 177.501C255.812 178.804 260.657 185.761 259.353 193.04C259.323 193.213 258.641 197.056 257.654 203.262C257.324 205.324 256.962 207.651 256.578 210.189C253.168 232.739 248.074 272.125 250.142 294.702C250.898 302.962 253.864 308.675 257.699 309.26C261.764 309.879 268.105 305.681 271.841 296.682C274.675 289.853 282.51 286.614 289.339 289.45C290.91 290.101 292.289 291.018 293.45 292.126C297.336 295.833 298.756 301.69 296.573 306.949Z" fill="#3A72AA"/>
<path d="M200.785 186.243C200.764 186.723 200.528 191.767 199.628 200.858C199.42 202.977 199.174 205.318 198.887 207.871H198.885C185.073 204.29 172.18 205.592 172.18 205.592C172.43 203.39 172.649 201.353 172.839 199.487C173.786 190.21 174.026 185.172 174.033 185.056C174.367 177.672 180.626 171.951 188.005 172.281C195.389 172.611 201.111 178.859 200.785 186.243Z" fill="#23659B"/>
<path d="M259.352 193.04C259.322 193.213 258.641 197.056 257.653 203.262C257.323 205.324 256.961 207.651 256.578 210.189C247.65 211.393 238.167 211.712 229.301 211.457C229.684 208.823 230.057 206.346 230.408 204.065C231.79 195.103 232.848 189.141 232.994 188.323C234.296 181.044 241.251 176.199 248.532 177.501C255.811 178.804 260.656 185.761 259.352 193.04Z" fill="#23659B"/>
<path d="M308.055 189.171C302.717 191.65 292.595 196.347 278.126 199.809C275.142 200.52 271.973 201.182 268.623 201.758C265.042 202.375 261.385 202.878 257.654 203.262C248.957 204.161 239.862 204.427 230.409 204.065C220.525 203.684 210.252 202.615 199.629 200.858C198.198 200.621 196.763 200.372 195.322 200.111C187.402 198.673 179.892 198.468 172.841 199.487C172.016 199.603 171.2 199.74 170.39 199.892C164.266 201.04 158.501 203.137 153.131 206.181C144.812 210.898 140.455 216.324 140.416 216.375C137.786 219.893 133.758 221.748 129.682 221.748C126.893 221.748 124.081 220.88 121.675 219.081C115.752 214.653 114.542 206.263 118.97 200.34C119.711 199.35 126.591 190.444 139.928 182.884C146.9 178.934 154.423 176.032 162.332 174.239C163.304 174.018 164.283 173.812 165.266 173.626C176.313 171.527 188.032 171.572 200.098 173.761C229.348 179.063 251.14 177.925 267.019 174.824C281.42 172.013 290.957 167.585 296.777 164.882C303.483 161.77 311.445 164.681 314.56 171.388C317.675 178.097 314.761 186.057 308.055 189.171Z" fill="#3A72AA"/>
<path d="M293.45 292.125C284.73 287.366 279.424 295.679 277.237 299.518C275.048 303.356 270.892 313.18 259.565 313.242C248.238 313.304 250.142 294.702 250.142 294.702C250.898 302.962 253.865 308.675 257.699 309.26C261.765 309.879 268.105 305.68 271.841 296.682C274.675 289.853 282.511 286.614 289.34 289.45C290.91 290.101 292.289 291.018 293.45 292.125Z" fill="#23659B"/>
<path d="M145.046 243.075V324.118C145.046 332.406 138.327 339.126 130.039 339.126H71.1482C62.8599 339.126 56.1406 332.407 56.1406 324.118V243.075C56.1406 234.556 63.0469 227.649 71.5663 227.649H129.621C138.14 227.649 145.046 234.556 145.046 243.075Z" fill="#8A9EDD"/>
<path d="M145.046 242.543V263.555H56.1406V242.543C56.1406 234.318 62.8089 227.649 71.0345 227.649H130.153C138.378 227.649 145.046 234.318 145.046 242.543Z" fill="#4867AA"/>
<path d="M127.038 255.804H74.2636C68.661 255.804 64.1191 251.262 64.1191 245.659C64.1191 240.057 68.661 235.515 74.2636 235.515H127.038C132.64 235.515 137.182 240.057 137.182 245.659C137.182 251.262 132.641 255.804 127.038 255.804Z" fill="#8A9EDD"/>
<path d="M72.8389 280.538H69.7614C66.6453 280.538 64.1191 278.012 64.1191 274.896C64.1191 271.78 66.6453 269.254 69.7614 269.254H72.8389C75.9549 269.254 78.4811 271.78 78.4811 274.896C78.4811 278.012 75.9549 280.538 72.8389 280.538Z" fill="#D4E8FF"/>
<path d="M72.8389 297.256H69.7614C66.6453 297.256 64.1191 294.729 64.1191 291.613C64.1191 288.497 66.6453 285.971 69.7614 285.971H72.8389C75.9549 285.971 78.4811 288.497 78.4811 291.613C78.4811 294.73 75.9549 297.256 72.8389 297.256Z" fill="#D4E8FF"/>
<path d="M72.8389 313.973H69.7614C66.6453 313.973 64.1191 311.447 64.1191 308.331C64.1191 305.215 66.6453 302.689 69.7614 302.689H72.8389C75.9549 302.689 78.4811 305.215 78.4811 308.331C78.4811 311.447 75.9549 313.973 72.8389 313.973Z" fill="#D4E8FF"/>
<path d="M72.8389 330.691H69.7614C66.6453 330.691 64.1191 328.165 64.1191 325.049C64.1191 321.933 66.6453 319.406 69.7614 319.406H72.8389C75.9549 319.406 78.4811 321.933 78.4811 325.049C78.4811 328.165 75.9549 330.691 72.8389 330.691Z" fill="#D4E8FF"/>
<path d="M92.4053 280.538H89.3278C86.2117 280.538 83.6855 278.012 83.6855 274.896C83.6855 271.78 86.2117 269.254 89.3278 269.254H92.4053C95.5214 269.254 98.0475 271.78 98.0475 274.896C98.0473 278.012 95.5214 280.538 92.4053 280.538Z" fill="#D4E8FF"/>
<path d="M92.4053 297.256H89.3278C86.2117 297.256 83.6855 294.729 83.6855 291.613C83.6855 288.497 86.2117 285.971 89.3278 285.971H92.4053C95.5214 285.971 98.0475 288.497 98.0475 291.613C98.0473 294.73 95.5214 297.256 92.4053 297.256Z" fill="#D4E8FF"/>
<path d="M92.4053 313.973H89.3278C86.2117 313.973 83.6855 311.447 83.6855 308.331C83.6855 305.215 86.2117 302.689 89.3278 302.689H92.4053C95.5214 302.689 98.0475 305.215 98.0475 308.331C98.0473 311.447 95.5214 313.973 92.4053 313.973Z" fill="#D4E8FF"/>
<path d="M92.4053 330.691H89.3278C86.2117 330.691 83.6855 328.165 83.6855 325.049C83.6855 321.933 86.2117 319.406 89.3278 319.406H92.4053C95.5214 319.406 98.0475 321.933 98.0475 325.049C98.0473 328.165 95.5214 330.691 92.4053 330.691Z" fill="#D4E8FF"/>
<path d="M111.974 280.538H108.896C105.78 280.538 103.254 278.012 103.254 274.896C103.254 271.78 105.78 269.254 108.896 269.254H111.974C115.09 269.254 117.616 271.78 117.616 274.896C117.616 278.012 115.09 280.538 111.974 280.538Z" fill="#D4E8FF"/>
<path d="M111.974 297.256H108.896C105.78 297.256 103.254 294.729 103.254 291.613C103.254 288.497 105.78 285.971 108.896 285.971H111.974C115.09 285.971 117.616 288.497 117.616 291.613C117.616 294.73 115.09 297.256 111.974 297.256Z" fill="#D4E8FF"/>
<path d="M111.974 313.973H108.896C105.78 313.973 103.254 311.447 103.254 308.331C103.254 305.215 105.78 302.689 108.896 302.689H111.974C115.09 302.689 117.616 305.215 117.616 308.331C117.616 311.447 115.09 313.973 111.974 313.973Z" fill="#D4E8FF"/>
<path d="M111.974 330.691H108.896C105.78 330.691 103.254 328.165 103.254 325.049C103.254 321.933 105.78 319.406 108.896 319.406H111.974C115.09 319.406 117.616 321.933 117.616 325.049C117.616 328.165 115.09 330.691 111.974 330.691Z" fill="#D4E8FF"/>
<path d="M131.54 280.538H128.463C125.346 280.538 122.82 278.012 122.82 274.896C122.82 271.78 125.346 269.254 128.463 269.254H131.54C134.656 269.254 137.182 271.78 137.182 274.896C137.182 278.012 134.656 280.538 131.54 280.538Z" fill="#EB5648"/>
<path d="M131.54 297.256H128.463C125.346 297.256 122.82 294.729 122.82 291.613C122.82 288.497 125.346 285.971 128.463 285.971H131.54C134.656 285.971 137.182 288.497 137.182 291.613C137.182 294.73 134.656 297.256 131.54 297.256Z" fill="#4867AA"/>
<path d="M131.54 313.973H128.463C125.346 313.973 122.82 311.447 122.82 308.331C122.82 305.215 125.346 302.689 128.463 302.689H131.54C134.656 302.689 137.182 305.215 137.182 308.331C137.182 311.447 134.656 313.973 131.54 313.973Z" fill="#4867AA"/>
<path d="M131.54 330.691H128.463C125.346 330.691 122.82 328.165 122.82 325.049C122.82 321.933 125.346 319.406 128.463 319.406H131.54C134.656 319.406 137.182 321.933 137.182 325.049C137.182 328.165 134.656 330.691 131.54 330.691Z" fill="#4867AA"/>
<path d="M238.696 355.6C235.724 355.601 66.0366 355.373 70.1065 355.381C58.4414 355.338 58.4459 332.928 70.1376 332.917C72.2869 332.938 231.669 333.117 238.725 333.138L238.722 334.702L238.696 355.6Z" fill="#FCB4B4"/>
<path d="M78.6792 355.392C77.2697 355.41 71.6255 355.368 70.1077 355.381C61.7274 355.682 58.3562 341.523 64.1246 335.82H64.1268C67.0513 331.66 74.4841 333.166 78.7085 332.928L78.6792 355.392Z" fill="#EB5648"/>
<path d="M83.7344 341.175C84.3509 339.624 238.908 339.834 239.526 341.372C238.904 342.921 84.3584 342.711 83.7344 341.175Z" fill="#F49F9F"/>
<path d="M238.695 355.6C238.699 351.82 238.719 337.181 238.725 333.138C245.823 335.86 261.136 341.731 268.113 344.405C261.169 347.049 245.757 352.913 238.695 355.6Z" fill="#FFE7D7"/>
<path d="M256.187 348.945C255.166 346.106 255.185 342.62 256.199 339.837L268.115 344.406L256.187 348.945Z" fill="#EB5648"/>
<path d="M238.722 334.702L84.536 335.048L84.5312 332.937L238.725 333.138L238.722 334.702Z" fill="#F9C0C0"/>
<path d="M76.5205 355.389L70.1076 355.381C61.7265 355.681 58.3568 341.524 64.1245 335.82H64.1267C64.1267 335.82 63.8624 350.439 76.5286 350.41L76.5205 355.389Z" fill="#CE3932"/>
<path d="M84.52 355.646C84.52 355.646 84.5896 353.079 84.4971 350.265C84.2773 343.587 83.8075 332.863 84.1061 332.635C84.1503 330.047 80.7829 330.56 80.8157 333.153L80.3479 332.909C80.3965 330.325 76.626 330.639 76.6605 333.237L76.529 350.337L76.5215 355.636C76.5189 356.738 77.4126 357.635 78.5185 357.637C79.6236 357.639 80.5199 356.745 80.5197 355.64C80.5197 356.745 81.4144 357.642 82.5167 357.643C83.6218 357.643 84.5183 356.749 84.52 355.646Z" fill="#93ABE5"/>
<path d="M84.5061 350.073L84.5291 332.418C84.3975 331.44 83.5623 330.688 82.5519 330.688C81.4742 330.686 80.6016 331.538 80.5568 332.603L80.5285 332.407C80.397 331.434 79.5639 330.684 78.5514 330.682C77.4484 330.68 76.5522 331.574 76.5503 332.679L76.5273 350.337C76.6589 351.31 77.4921 352.062 78.5045 352.064C79.6089 352.066 80.5062 351.172 80.5056 350.067L80.5262 349.889L80.5255 350.339C80.657 351.316 81.4922 352.068 82.5026 352.068C83.608 352.07 84.5042 351.176 84.5061 350.073Z" fill="#BBCEEA"/>
<path d="M238.695 355.6L84.5743 355.401L84.4961 350.265L238.682 349.919L238.695 355.6Z" fill="#F49F9F"/>
<path d="M238.696 355.6L238.684 349.919C238.686 349.917 268.106 344.408 268.114 344.405C261.17 347.049 245.758 352.913 238.696 355.6Z" fill="#EDD5C5"/>
<path d="M256.186 348.945C255.941 348.246 255.75 347.509 255.619 346.745L268.114 344.406L256.186 348.945Z" fill="#CE3932"/>
</g>
<defs>
<clipPath id="clip0_104_405">
<rect width="428" height="432" rx="10" fill="white"/>
</clipPath>
</defs>
</svg>
