<svg width="107" height="16" viewBox="0 0 107 16" fill="none" xmlns="http://www.w3.org/2000/svg">
<path d="M103.568 14.7537C102.938 14.7537 102.423 14.5607 102.024 14.1748C101.638 13.776 101.445 13.2486 101.445 12.5925V7.18958H99.0527V5.18278H101.445V2.21118H103.877V5.18278H106.501V7.18958H103.877V12.168C103.877 12.5539 104.057 12.7469 104.417 12.7469H106.269V14.7537H103.568Z" fill="white"/>
<path d="M94.6014 15.0235C93.6494 15.0235 92.8068 14.8241 92.0736 14.4253C91.3532 14.0136 90.7872 13.4412 90.3755 12.7079C89.9767 11.9618 89.7773 11.087 89.7773 10.0837V9.8521C89.7773 8.8487 89.9767 7.98038 90.3755 7.24712C90.7743 6.50101 91.3339 5.92856 92.0543 5.52977C92.7747 5.11812 93.6108 4.91229 94.5628 4.91229C95.5019 4.91229 96.3187 5.12455 97.0134 5.54906C97.708 5.96072 98.2483 6.5396 98.6343 7.28571C99.0202 8.01897 99.2131 8.87443 99.2131 9.8521V10.6818H92.2472C92.273 11.3379 92.5174 11.8718 92.9805 12.2834C93.4436 12.6951 94.0096 12.9009 94.6786 12.9009C95.3604 12.9009 95.8621 12.7529 96.1837 12.4571C96.5053 12.1612 96.7497 11.8332 96.9169 11.473L98.9044 12.515C98.7243 12.8494 98.4606 13.2161 98.1133 13.6148C97.7788 14.0008 97.3286 14.3352 96.7625 14.6182C96.1965 14.8884 95.4761 15.0235 94.6014 15.0235ZM92.2665 8.868H96.7432C96.6918 8.31484 96.4667 7.87103 96.0679 7.53656C95.682 7.2021 95.1738 7.03487 94.5435 7.03487C93.8874 7.03487 93.3664 7.2021 92.9805 7.53656C92.5946 7.87103 92.3566 8.31484 92.2665 8.868Z" fill="white"/>
<path d="M79.5078 14.7535V5.18263H81.9005V6.43688H82.2479C82.4022 6.10241 82.6917 5.78724 83.1162 5.49137C83.5407 5.18263 84.1839 5.02826 85.0458 5.02826C85.7919 5.02826 86.4416 5.20192 86.9947 5.54925C87.5607 5.88372 87.9981 6.35326 88.3068 6.95787C88.6156 7.54962 88.7699 8.24428 88.7699 9.04185V14.7535H86.3386V9.23481C86.3386 8.51442 86.1585 7.97413 85.7983 7.61394C85.451 7.25374 84.9493 7.07365 84.2932 7.07365C83.5471 7.07365 82.9683 7.3245 82.5566 7.8262C82.1449 8.31503 81.9391 9.00326 81.9391 9.89088V14.7535H79.5078Z" fill="white"/>
<path d="M73.0156 14.7531V5.18221H75.4083V6.26279H75.7557C75.8972 5.87687 76.1287 5.59386 76.4503 5.41376C76.7848 5.23366 77.1707 5.14362 77.6081 5.14362H78.7659V7.30478H77.5695C76.952 7.30478 76.4439 7.47201 76.0451 7.80648C75.6463 8.12808 75.4469 8.62978 75.4469 9.31158V14.7531H73.0156Z" fill="white"/>
<path d="M67.3982 15.0235C66.4463 15.0235 65.6037 14.8241 64.8705 14.4253C64.1501 14.0136 63.584 13.4412 63.1724 12.7079C62.7736 11.9618 62.5742 11.087 62.5742 10.0837V9.8521C62.5742 8.8487 62.7736 7.98038 63.1724 7.24712C63.5712 6.50101 64.1308 5.92856 64.8512 5.52977C65.5715 5.11812 66.4077 4.91229 67.3597 4.91229C68.2987 4.91229 69.1156 5.12455 69.8103 5.54906C70.5049 5.96072 71.0452 6.5396 71.4311 7.28571C71.8171 8.01897 72.01 8.87443 72.01 9.8521V10.6818H65.0441C65.0698 11.3379 65.3143 11.8718 65.7774 12.2834C66.2405 12.6951 66.8065 12.9009 67.4754 12.9009C68.1572 12.9009 68.6589 12.7529 68.9805 12.4571C69.3021 12.1612 69.5465 11.8332 69.7138 11.473L71.7013 12.515C71.5212 12.8494 71.2575 13.2161 70.9101 13.6148C70.5757 14.0008 70.1254 14.3352 69.5594 14.6182C68.9934 14.8884 68.273 15.0235 67.3982 15.0235ZM65.0634 8.868H69.5401C69.4887 8.31484 69.2635 7.87103 68.8648 7.53656C68.4788 7.2021 67.9707 7.03487 67.3404 7.03487C66.6843 7.03487 66.1633 7.2021 65.7774 7.53656C65.3914 7.87103 65.1535 8.31484 65.0634 8.868Z" fill="white"/>
<path d="M59.4001 14.7537C58.7697 14.7537 58.2552 14.5607 57.8564 14.1748C57.4704 13.776 57.2775 13.2486 57.2775 12.5925V7.18958H54.8848V5.18278H57.2775V2.21118H59.7088V5.18278H62.3331V7.18958H59.7088V12.168C59.7088 12.5539 59.8889 12.7469 60.2491 12.7469H62.1015V14.7537H59.4001Z" fill="white"/>
<path d="M45.2656 14.7535V5.18263H47.6583V6.43688H48.0057C48.16 6.10241 48.4495 5.78724 48.874 5.49137C49.2985 5.18263 49.9417 5.02826 50.8036 5.02826C51.5497 5.02826 52.1994 5.20192 52.7525 5.54925C53.3185 5.88372 53.7559 6.35326 54.0647 6.95787C54.3734 7.54962 54.5278 8.24428 54.5278 9.04185V14.7535H52.0965V9.23481C52.0965 8.51442 51.9164 7.97413 51.5562 7.61394C51.2088 7.25374 50.7071 7.07365 50.0511 7.07365C49.3049 7.07365 48.7261 7.3245 48.3144 7.8262C47.9028 8.31503 47.6969 9.00326 47.6969 9.89088V14.7535H45.2656Z" fill="white"/>
<path d="M41.2985 14.7534V5.18251H43.7298V14.7534H41.2985ZM42.5142 4.06333C42.0768 4.06333 41.7037 3.92183 41.395 3.63882C41.0991 3.35581 40.9512 2.98275 40.9512 2.51964C40.9512 2.05654 41.0991 1.68348 41.395 1.40047C41.7037 1.11746 42.0768 0.975952 42.5142 0.975952C42.9644 0.975952 43.3375 1.11746 43.6333 1.40047C43.9292 1.68348 44.0771 2.05654 44.0771 2.51964C44.0771 2.98275 43.9292 3.35581 43.6333 3.63882C43.3375 3.92183 42.9644 4.06333 42.5142 4.06333Z" fill="white"/>
<path d="M34.0098 15.0233C33.2508 15.0233 32.5369 14.8368 31.868 14.4637C31.2119 14.0778 30.6845 13.5182 30.2857 12.785C29.8869 12.0517 29.6875 11.1641 29.6875 10.1221V9.81339C29.6875 8.77139 29.8869 7.88377 30.2857 7.15052C30.6845 6.41727 31.2119 5.86411 31.868 5.49106C32.524 5.10513 33.238 4.91217 34.0098 4.91217C34.5887 4.91217 35.0711 4.98292 35.457 5.12443C35.8558 5.25307 36.1774 5.4203 36.4218 5.62613C36.6663 5.83195 36.8528 6.05064 36.9814 6.2822H37.3288V1.24591H39.7601V14.7532H37.3674V13.5954H37.02C36.8013 13.9556 36.4604 14.2837 35.9973 14.5795C35.5471 14.8754 34.8846 15.0233 34.0098 15.0233ZM34.7431 12.9008C35.4892 12.9008 36.1131 12.6628 36.6148 12.1868C37.1165 11.698 37.3674 10.9904 37.3674 10.0642V9.87127C37.3674 8.94506 37.1165 8.24397 36.6148 7.768C36.126 7.27916 35.5021 7.03475 34.7431 7.03475C33.997 7.03475 33.3731 7.27916 32.8714 7.768C32.3697 8.24397 32.1188 8.94506 32.1188 9.87127V10.0642C32.1188 10.9904 32.3697 11.698 32.8714 12.1868C33.3731 12.6628 33.997 12.9008 34.7431 12.9008Z" fill="white"/>
<path d="M23.998 14.7531V5.18221H26.3908V6.26279H26.7381C26.8796 5.87687 27.1112 5.59386 27.4328 5.41376C27.7672 5.23366 28.1531 5.14362 28.5905 5.14362H29.7483V7.30478H28.5519C27.9345 7.30478 27.4263 7.47201 27.0275 7.80648C26.6288 8.12808 26.4294 8.62978 26.4294 9.31158V14.7531H23.998Z" fill="white"/>
<path d="M20.029 14.7534V5.18251H22.4603V14.7534H20.029ZM21.2446 4.06333C20.8072 4.06333 20.4342 3.92183 20.1255 3.63882C19.8296 3.35581 19.6816 2.98275 19.6816 2.51964C19.6816 2.05654 19.8296 1.68348 20.1255 1.40047C20.4342 1.11746 20.8072 0.975952 21.2446 0.975952C21.6949 0.975952 22.0679 1.11746 22.3638 1.40047C22.6597 1.68348 22.8076 2.05654 22.8076 2.51964C22.8076 2.98275 22.6597 3.35581 22.3638 3.63882C22.0679 3.92183 21.6949 4.06333 21.2446 4.06333Z" fill="white"/>
<path d="M9.29688 14.7533V1.24603H11.7282V6.3595H12.0755C12.1784 6.15368 12.3392 5.94785 12.5579 5.74203C12.7766 5.5362 13.066 5.36897 13.4262 5.24033C13.7993 5.09882 14.2688 5.02807 14.8349 5.02807C15.581 5.02807 16.2306 5.20174 16.7838 5.54907C17.3498 5.88353 17.7872 6.35307 18.0959 6.95768C18.4046 7.54943 18.559 8.24409 18.559 9.04166V14.7533H16.1277V9.23462C16.1277 8.51424 15.9476 7.97394 15.5874 7.61375C15.2401 7.25356 14.7384 7.07346 14.0823 7.07346C13.3362 7.07346 12.7573 7.32431 12.3457 7.82601C11.934 8.31484 11.7282 9.00307 11.7282 9.89069V14.7533H9.29688Z" fill="white"/>
<path d="M5.31998 14.7537C4.68964 14.7537 4.17508 14.5607 3.77629 14.1748C3.39037 13.776 3.19741 13.2486 3.19741 12.5925V7.18958H0.804688V5.18278H3.19741V2.21118H5.62872V5.18278H8.25299V7.18958H5.62872V12.168C5.62872 12.5539 5.80881 12.7469 6.16901 12.7469H8.02143V14.7537H5.31998Z" fill="white"/>
</svg>
