<svg width="428" height="432" viewBox="0 0 428 432" fill="none" xmlns="http://www.w3.org/2000/svg">
<rect width="428" height="432" rx="10" fill="#12586E"/>
<path d="M216.674 359C238.455 359 256.112 304.155 256.112 236.5C256.112 168.845 238.455 114 216.674 114C194.893 114 177.236 168.845 177.236 236.5C177.236 304.155 194.893 359 216.674 359Z" stroke="#FFE4AB" stroke-width="4" stroke-miterlimit="10"/>
<path d="M238.942 269.04C294.771 230.828 330.057 185.281 317.755 167.308C305.453 149.334 250.222 165.74 194.394 203.952C138.565 242.163 103.279 287.71 115.581 305.684C127.883 323.657 183.114 307.251 238.942 269.04Z" stroke="#FFE4AB" stroke-width="4" stroke-miterlimit="10"/>
<path d="M317.757 305.694C330.059 287.721 294.773 242.174 238.944 203.962C183.116 165.751 127.885 149.345 115.583 167.318C103.281 185.292 138.567 230.839 194.396 269.05C250.224 307.262 305.455 323.668 317.757 305.694Z" stroke="#FFE4AB" stroke-width="4" stroke-miterlimit="10"/>
<path d="M216.675 255.343C227.081 255.343 235.517 246.906 235.517 236.5C235.517 226.093 227.081 217.657 216.675 217.657C206.268 217.657 197.832 226.093 197.832 236.5C197.832 246.906 206.268 255.343 216.675 255.343Z" fill="#FFE4AB"/>
<path d="M258.809 309.07C263.68 304.199 263.68 296.302 258.809 291.432C253.938 286.561 246.041 286.561 241.171 291.432C236.3 296.302 236.3 304.199 241.171 309.07C246.041 313.941 253.938 313.941 258.809 309.07Z" fill="#FFE4AB"/>
<path d="M258.811 180.662C263.682 175.792 263.682 167.895 258.811 163.024C253.94 158.153 246.043 158.153 241.173 163.024C236.302 167.895 236.302 175.792 241.173 180.662C246.043 185.533 253.94 185.533 258.811 180.662Z" fill="#FFE4AB"/>
<path d="M152.715 248.972C159.603 248.972 165.187 243.388 165.187 236.5C165.187 229.612 159.603 224.028 152.715 224.028C145.826 224.028 140.242 229.612 140.242 236.5C140.242 243.388 145.826 248.972 152.715 248.972Z" fill="#FFE4AB"/>
<path d="M78.4372 289.395C69.2172 289.395 64.3046 285.561 61.7439 282.069C58.371 279.563 54.6738 274.864 54.6738 266.322V257.934L72.3428 256.202C69.7814 254.033 67.683 252.044 65.9345 250.129C57.8329 242.62 54.6738 236.333 54.6738 227.754V226.273C54.6738 214.169 62.231 206.649 74.397 206.649C83.1964 206.649 87.9512 210.384 90.4572 213.795C93.8512 216.294 97.5683 221.018 97.5683 229.722V235.25L79.9745 236.976C80.2138 237.185 80.4605 237.398 80.7171 237.615C83.4021 239.884 85.5887 241.949 87.3969 243.922C95.5649 251.496 98.7508 257.787 98.7508 266.319V269.771C98.7526 281.875 90.968 289.395 78.4372 289.395ZM76.46 267.106C76.5377 266.762 76.5719 266.288 76.5719 265.632V263.363C76.5719 262.915 76.542 262.478 76.46 262.032V267.106ZM73.0114 259.923L75.5267 259.676C75.1694 259.083 74.699 258.438 74.0808 257.716C73.7384 257.408 73.3836 257.095 73.0114 256.773V259.923ZM77.3672 233.444C77.722 234.278 78.303 235.195 79.2314 236.298V233.262L77.3672 233.444Z" fill="white"/>
<path d="M122.896 289.395C114.193 289.395 109.377 285.601 106.8 282.156C103.273 279.538 99.3809 274.569 99.3809 265.393V227.868C99.3809 215.19 107.07 207.313 119.447 207.313C128.274 207.313 133.144 211.146 135.744 214.621C139.268 217.246 143.157 222.209 143.157 231.316V241.412L124.913 242.307V238.69L121.465 238.859V231.196C121.463 231.267 121.463 264.591 121.463 264.591C121.464 264.502 121.465 252.349 121.465 252.349L139.708 253.243V256.523L143.157 256.692V268.84C143.158 281.519 135.394 289.395 122.896 289.395Z" fill="white"/>
<path d="M182.787 288.275V284.826H179.338V198.14H220.994V201.588H224.443V220.842H202.936V231.297H216.85V234.746H220.298V253.998H202.936V265.573H220.994V269.021H224.443V288.275H182.787Z" fill="white"/>
<path d="M259.262 288.275L258.229 284.826H255.814L254.527 280.53V288.275H237.773V284.826H234.324V217.204H251.546L252.58 220.653H254.994L255.096 220.989V217.204H271.85V220.653H275.298V288.275H259.262Z" fill="white"/>
<path d="M308.007 289.395C300.272 289.395 294.124 286.687 290.179 281.552C284.931 277.531 282.162 271.131 282.162 262.991V219.977C282.162 205.817 290.744 197.021 304.559 197.021C312.396 197.021 318.619 199.751 322.605 204.926C327.857 208.956 330.627 215.335 330.627 223.425V234.423L310.926 235.389V231.771L307.477 231.94V221.209C307.477 220.677 307.456 220.205 307.421 219.789C306.546 219.979 305.76 220.711 305.76 223.537V266.327C305.76 266.426 305.761 266.524 305.763 266.621C306.659 266.398 307.477 265.487 307.477 261.758V248.676L327.179 249.641V252.92L330.627 253.089V266.439C330.628 280.599 321.96 289.395 308.007 289.395Z" fill="white"/>
<path d="M151.352 288.275V284.826H147.904V183.604H170.255V187.053H173.703V288.275H151.352Z" fill="white"/>
<path d="M337.024 288.275V284.826H333.576V198.14H375.232V201.588H378.68V220.842H357.174V231.297H371.087V234.746H374.536V253.998H357.174V265.573H375.232V269.021H378.68V288.275H337.024Z" fill="white"/>
<path d="M93.43 229.723V231.499L83.3687 232.485V229.92C83.3687 225.974 81.4946 223.903 78.0422 223.903C74.5898 223.903 72.7157 225.974 72.7157 229.92V230.807C72.7157 234.851 74.491 238.304 81.4946 244.223C91.0626 252.311 94.6138 258.032 94.6138 266.318V269.77C94.6138 279.634 88.7945 285.256 78.4368 285.256C68.079 285.256 62.2598 279.634 62.2598 269.77V265.134L72.3211 264.148V269.08C72.3211 273.42 74.294 275.59 78.2398 275.59C82.1855 275.59 84.1578 273.421 84.1578 269.08V266.811C84.1578 262.471 82.0867 259.018 75.0832 253.1C65.5152 245.011 62.2598 239.29 62.2598 231.201V229.722C62.2598 219.858 67.8826 214.235 77.8452 214.235C87.8078 214.235 93.43 219.859 93.43 229.723Z" fill="#ABCFFF"/>
<path d="M89.9828 226.275V228.051L79.9214 229.037V226.472C79.9214 222.526 78.0473 220.455 74.5949 220.455C71.1425 220.455 69.2685 222.526 69.2685 226.472V227.359C69.2685 231.403 71.0437 234.856 78.0473 240.774C87.6153 248.862 91.1665 254.583 91.1665 262.869V266.321C91.1665 276.185 85.3473 281.808 74.9895 281.808C64.6317 281.808 58.8125 276.186 58.8125 266.321V261.685L68.8739 260.699V265.631C68.8739 269.971 70.8468 272.141 74.7925 272.141C78.7383 272.141 80.7105 269.971 80.7105 265.631V263.362C80.7105 259.022 78.6389 255.57 71.6359 249.651C62.0679 241.562 58.8125 235.841 58.8125 227.753V226.273C58.8125 216.41 64.4347 210.787 74.3979 210.787C84.3599 210.788 89.9828 216.411 89.9828 226.275Z" fill="#004E73"/>
<path d="M139.018 231.317V237.473L129.051 237.962V232.392C129.051 226.92 126.999 224.477 123.188 224.477C119.377 224.477 117.325 226.92 117.325 231.415V268.744C117.325 273.239 119.376 275.681 123.188 275.681C126.999 275.681 129.051 273.239 129.051 267.766V260.144L139.018 260.633V268.842C139.018 279.2 133.057 285.258 122.895 285.258C112.83 285.258 106.967 279.2 106.967 268.842V231.317C106.967 220.959 112.83 214.9 122.895 214.9C133.058 214.9 139.018 220.959 139.018 231.317Z" fill="#ABCFFF"/>
<path d="M135.571 227.869V234.025L125.603 234.514V228.944C125.603 223.472 123.552 221.029 119.741 221.029C115.93 221.029 113.877 223.472 113.877 227.967V265.295C113.877 269.791 115.929 272.233 119.741 272.233C123.552 272.233 125.603 269.79 125.603 264.317V256.696L135.571 257.184V265.393C135.571 275.751 129.61 281.809 119.447 281.809C109.382 281.809 103.52 275.751 103.52 265.393V227.869C103.52 217.511 109.382 211.452 119.447 211.452C129.61 211.452 135.571 217.51 135.571 227.869Z" fill="#004E73"/>
<path d="M220.304 216.705H198.797V238.884H216.159V249.861H198.797V273.16H220.304V284.137H186.924V205.727H220.304V216.705Z" fill="#ABCFFF"/>
<path d="M216.856 213.256H195.35V235.435H212.712V246.412H195.35V269.71H216.856V280.688H183.477V202.278H216.856V213.256Z" fill="#004E73"/>
<path d="M271.162 284.138H262.344L250.56 244.8H250.39V284.138H241.912V224.791H251.916L262.514 260.144H262.683V224.791H271.161V284.138H271.162Z" fill="#ABCFFF"/>
<path d="M267.712 280.689H258.895L247.111 241.351H246.941V280.689H238.463V221.342H248.467L259.065 256.696H259.234V221.342H267.712V280.689H267.712Z" fill="#004E73"/>
<path d="M326.493 223.425V230.482L315.068 231.043V224.658C315.068 218.384 312.715 215.584 308.347 215.584C303.978 215.584 301.626 218.384 301.626 223.538V266.327C301.626 271.48 303.978 274.28 308.347 274.28C312.715 274.28 315.068 271.48 315.068 265.207V256.471L326.493 257.03V266.44C326.493 278.313 319.66 285.258 308.011 285.258C296.473 285.258 289.752 278.313 289.752 266.44V223.426C289.752 211.552 296.473 204.607 308.011 204.607C319.66 204.607 326.493 211.552 326.493 223.425Z" fill="#ABCFFF"/>
<path d="M323.044 219.977V227.034L311.619 227.594V221.21C311.619 214.937 309.266 212.136 304.898 212.136C300.53 212.136 298.177 214.936 298.177 220.089V262.879C298.177 268.032 300.53 270.832 304.898 270.832C309.266 270.832 311.619 268.032 311.619 261.759V253.022L323.044 253.582V262.991C323.044 274.865 316.212 281.809 304.561 281.809C293.024 281.809 286.303 274.865 286.303 262.991V219.977C286.303 208.104 293.024 201.158 304.561 201.158C316.212 201.158 323.044 208.104 323.044 219.977Z" fill="#004E73"/>
<path d="M169.564 284.138H155.49V191.192H169.564V284.138Z" fill="#ABCFFF"/>
<path d="M166.117 280.689H152.043V187.743H166.117V280.689Z" fill="#004E73"/>
<path d="M152.041 191.612H157.01" stroke="white" stroke-miterlimit="10"/>
<path d="M152.041 196.938H159.517" stroke="white" stroke-miterlimit="10"/>
<path d="M152.041 202.263H157.01" stroke="white" stroke-miterlimit="10"/>
<path d="M152.041 207.588H157.01" stroke="white" stroke-miterlimit="10"/>
<path d="M152.041 212.914H159.517" stroke="white" stroke-miterlimit="10"/>
<path d="M152.041 218.24H157.01" stroke="white" stroke-miterlimit="10"/>
<path d="M152.041 223.565H157.01" stroke="white" stroke-miterlimit="10"/>
<path d="M152.041 228.89H157.01" stroke="white" stroke-miterlimit="10"/>
<path d="M152.041 234.216H159.517" stroke="white" stroke-miterlimit="10"/>
<path d="M152.041 239.541H157.01" stroke="white" stroke-miterlimit="10"/>
<path d="M152.041 244.867H157.01" stroke="white" stroke-miterlimit="10"/>
<path d="M152.041 250.192H157.01" stroke="white" stroke-miterlimit="10"/>
<path d="M152.041 255.518H159.517" stroke="white" stroke-miterlimit="10"/>
<path d="M152.041 260.843H157.01" stroke="white" stroke-miterlimit="10"/>
<path d="M152.041 266.169H157.01" stroke="white" stroke-miterlimit="10"/>
<path d="M152.041 271.494H157.01" stroke="white" stroke-miterlimit="10"/>
<path d="M152.041 276.82H159.517" stroke="white" stroke-miterlimit="10"/>
<path d="M374.546 216.705H353.039V238.884H370.401V249.861H353.039V273.16H374.546V284.137H341.166V205.727H374.546V216.705Z" fill="#ABCFFF"/>
<path d="M371.095 213.256H349.588V235.435H366.95V246.412H349.588V269.71H371.095V280.688H337.715V202.278H371.095V213.256Z" fill="#004E73"/>
<path d="M337.715 207.588H342.683" stroke="white" stroke-miterlimit="10"/>
<path d="M337.715 212.914H345.19" stroke="white" stroke-miterlimit="10"/>
<path d="M337.715 218.24H342.683" stroke="white" stroke-miterlimit="10"/>
<path d="M337.715 223.565H342.683" stroke="white" stroke-miterlimit="10"/>
<path d="M337.715 228.89H342.683" stroke="white" stroke-miterlimit="10"/>
<path d="M337.715 234.216H345.19" stroke="white" stroke-miterlimit="10"/>
<path d="M337.715 239.541H342.683" stroke="white" stroke-miterlimit="10"/>
<path d="M337.715 244.867H342.683" stroke="white" stroke-miterlimit="10"/>
<path d="M337.715 250.192H342.683" stroke="white" stroke-miterlimit="10"/>
<path d="M337.715 255.518H345.19" stroke="white" stroke-miterlimit="10"/>
<path d="M337.715 260.843H342.683" stroke="white" stroke-miterlimit="10"/>
<path d="M337.715 266.169H342.683" stroke="white" stroke-miterlimit="10"/>
<path d="M337.715 271.494H342.683" stroke="white" stroke-miterlimit="10"/>
<path d="M337.715 276.82H345.19" stroke="white" stroke-miterlimit="10"/>
<path d="M394.638 293.978L399.894 288.016H29L34.9615 293.978H394.638Z" fill="#008CBE"/>
<path d="M39.7891 298.805L48.7804 307.796H382.457L390.383 298.805H39.7891Z" fill="#ABCFFF"/>
<g opacity="0.7">
<path d="M182.891 129.763C182.878 129.745 182.863 129.728 182.85 129.711L182.848 129.712L180.506 126.433C180.41 126.555 180.329 126.646 180.262 126.686C179.674 127.045 179.413 126.425 179.413 126.425C179.413 126.425 176.667 122.276 175.851 121.067C175.717 120.869 175.798 120.555 176.032 120.172L174.805 118.453C174.839 118.41 174.876 118.372 174.911 118.329L174.898 118.337C174.898 118.337 174.445 117.865 174.184 117.245C174.17 117.211 174.171 117.17 174.178 117.126C173.781 117.402 173.392 117.691 173.016 117.999C175.965 122.223 178.676 126.579 181.63 130.793C182.041 130.441 182.462 130.098 182.891 129.763Z" fill="white"/>
</g>
<path d="M65.7031 188.218V205.564C65.7031 206.785 67.3131 207.775 69.2997 207.775C71.2856 207.775 72.8956 206.785 72.8956 205.564V188.218C72.8956 188.218 72.4532 187.72 69.2997 187.72C66.1456 187.72 65.7031 188.218 65.7031 188.218Z" fill="#008CBE"/>
<g opacity="0.4">
<path d="M73.5031 171.854C73.5031 172.221 73.2067 172.518 72.8413 172.518H65.7594C65.3941 172.518 65.0977 172.221 65.0977 171.854V171.291C65.0977 170.924 65.3941 170.627 65.7594 170.627H72.8413C73.2067 170.627 73.5031 170.924 73.5031 171.291V171.854Z" fill="#ABCFFF"/>
<path d="M65.7051 172.518V205.564C65.7051 206.785 67.3151 207.775 69.3016 207.775C71.2876 207.775 72.8976 206.785 72.8976 205.564V172.518H65.7051Z" fill="#ABCFFF"/>
</g>
<path opacity="0.5" d="M70.4285 206.056C68.921 206.056 67.6994 205.112 67.6994 203.947V173.335H66.6934V204.849C66.6934 206.013 67.915 206.957 69.4225 206.957C70.5285 206.957 71.4786 206.448 71.9073 205.718C71.4811 205.931 70.974 206.056 70.4285 206.056Z" fill="white"/>
<path d="M81.1172 188.218V205.564C81.1172 206.785 82.7272 207.775 84.7131 207.775C86.699 207.775 88.3097 206.785 88.3097 205.564V188.218C88.3097 188.218 87.8672 187.72 84.7131 187.72C81.5596 187.72 81.1172 188.218 81.1172 188.218Z" fill="#008CBE"/>
<g opacity="0.4">
<path d="M88.9177 171.854C88.9177 172.221 88.6213 172.518 88.256 172.518H81.1735C80.8081 172.518 80.5117 172.221 80.5117 171.854V171.291C80.5117 170.924 80.8081 170.627 81.1735 170.627H88.256C88.6213 170.627 88.9177 170.924 88.9177 171.291V171.854Z" fill="#ABCFFF"/>
<path d="M81.1191 172.518V205.564C81.1191 206.785 82.7291 207.775 84.7151 207.775C86.701 207.775 88.3116 206.785 88.3116 205.564V172.518H81.1191Z" fill="#ABCFFF"/>
</g>
<path opacity="0.5" d="M85.8425 206.056C84.3351 206.056 83.1134 205.112 83.1134 203.947V173.335H82.1074V204.849C82.1074 206.013 83.3291 206.957 84.8365 206.957C85.9426 206.957 86.8927 206.448 87.3214 205.718C86.8951 205.931 86.3881 206.056 85.8425 206.056Z" fill="white"/>
<path d="M96.5332 188.218V205.564C96.5332 206.785 98.1432 207.775 100.13 207.775C102.116 207.775 103.726 206.785 103.726 205.564V188.218C103.726 188.218 103.283 187.72 100.13 187.72C96.9756 187.72 96.5332 188.218 96.5332 188.218Z" fill="#008CBE"/>
<g opacity="0.4">
<path d="M104.331 171.854C104.331 172.221 104.035 172.518 103.669 172.518H96.5876C96.2222 172.518 95.9258 172.221 95.9258 171.854V171.291C95.9258 170.924 96.2222 170.627 96.5876 170.627H103.669C104.035 170.627 104.331 170.924 104.331 171.291V171.854Z" fill="#ABCFFF"/>
<path d="M96.5332 172.518V205.564C96.5332 206.785 98.1432 207.775 100.13 207.775C102.116 207.775 103.726 206.785 103.726 205.564V172.518H96.5332Z" fill="#ABCFFF"/>
</g>
<path opacity="0.5" d="M101.259 206.056C99.7511 206.056 98.5295 205.112 98.5295 203.947V173.335H97.5234V204.849C97.5234 206.013 98.7457 206.957 100.253 206.957C101.359 206.957 102.309 206.448 102.737 205.718C102.311 205.931 101.804 206.056 101.259 206.056Z" fill="white"/>
<path d="M111.953 188.218V205.564C111.953 206.785 113.563 207.775 115.549 207.775C117.535 207.775 119.146 206.785 119.146 205.564V188.218C119.146 188.218 118.703 187.72 115.549 187.72C112.396 187.72 111.953 188.218 111.953 188.218Z" fill="#008CBE"/>
<g opacity="0.4">
<path d="M119.751 171.854C119.751 172.221 119.455 172.518 119.089 172.518H112.007C111.642 172.518 111.346 172.221 111.346 171.854V171.291C111.346 170.924 111.642 170.627 112.007 170.627H119.089C119.455 170.627 119.751 170.924 119.751 171.291V171.854Z" fill="#ABCFFF"/>
<path d="M111.953 172.518V205.564C111.953 206.785 113.563 207.775 115.549 207.775C117.535 207.775 119.146 206.785 119.146 205.564V172.518H111.953Z" fill="#ABCFFF"/>
</g>
<path opacity="0.5" d="M116.677 206.056C115.169 206.056 113.947 205.112 113.947 203.947V173.335H112.941V204.849C112.941 206.013 114.163 206.957 115.671 206.957C116.777 206.957 117.727 206.448 118.155 205.718C117.729 205.931 117.222 206.056 116.677 206.056Z" fill="white"/>
<path d="M127.365 188.218V205.564C127.365 206.785 128.975 207.775 130.962 207.775C132.948 207.775 134.558 206.785 134.558 205.564V188.218C134.558 188.218 134.115 187.72 130.962 187.72C127.808 187.72 127.365 188.218 127.365 188.218Z" fill="#008CBE"/>
<g opacity="0.4">
<path d="M135.165 171.854C135.165 172.221 134.869 172.518 134.503 172.518H127.422C127.056 172.518 126.76 172.221 126.76 171.854V171.291C126.76 170.924 127.056 170.627 127.422 170.627H134.503C134.869 170.627 135.165 170.924 135.165 171.291V171.854Z" fill="#ABCFFF"/>
<path d="M127.365 172.518V205.564C127.365 206.785 128.975 207.775 130.962 207.775C132.948 207.775 134.558 206.785 134.558 205.564V172.518H127.365Z" fill="#ABCFFF"/>
</g>
<path opacity="0.5" d="M132.09 206.056C130.582 206.056 129.361 205.112 129.361 203.947V173.335H128.355V204.849C128.355 206.013 129.577 206.957 131.085 206.957C132.191 206.957 133.141 206.448 133.569 205.718C133.143 205.931 132.636 206.056 132.09 206.056Z" fill="white"/>
<path d="M142.313 176.844H57.9473V180.665H142.313V176.844Z" fill="#008CBE"/>
<path d="M142.704 165.948C140.882 165.948 140.467 166.543 140.467 166.543V205.199C140.467 205.199 123.527 206.034 100.896 206.034C78.2654 206.034 59.793 205.199 59.793 205.199V166.543C59.793 166.543 59.3785 165.948 57.5567 165.948C55.7342 165.948 55.3203 166.543 55.3203 166.543V210.35C55.3203 210.35 67.5466 211.452 100.896 211.452C134.245 211.452 144.94 210.35 144.94 210.35V166.543C144.94 166.543 144.526 165.948 142.704 165.948Z" fill="#008CBE"/>
<path d="M262.208 200.829C261.598 200.259 259.159 200.292 257.599 200.241C254.94 200.156 252.407 200.814 249.771 200.951C247.696 201.059 245.923 200.885 243.894 201.416C241.616 205.401 239.048 209.75 238.312 211.063C236.735 213.876 235.647 216.039 236.119 218.871C236.474 220.997 238.903 221.344 240.12 221.342C241.337 221.34 263.812 221.307 265.685 221.304C267.558 221.302 270.512 220.337 270.506 217.362C270.501 215.273 268.515 211.808 268.515 211.808C266.212 207.403 264.036 203.758 262.208 200.829Z" fill="#008CBE"/>
<path opacity="0.4" d="M245.637 212.867C245.636 213.53 245.099 214.065 244.438 214.064C243.776 214.063 243.241 213.525 243.242 212.862C243.243 212.2 243.78 211.664 244.441 211.666C245.103 211.667 245.638 212.205 245.637 212.867Z" fill="white"/>
<path opacity="0.4" d="M257.985 207.515C257.983 208.177 257.447 208.713 256.785 208.712C256.124 208.71 255.589 208.172 255.59 207.51C255.591 206.847 256.128 206.312 256.79 206.313C257.45 206.314 257.986 206.852 257.985 207.515Z" fill="white"/>
<path opacity="0.4" d="M261.179 218.25C261.177 218.913 260.641 219.448 259.979 219.447C259.318 219.446 258.782 218.908 258.783 218.245C258.784 217.583 259.321 217.047 259.983 217.049C260.645 217.05 261.18 217.588 261.179 218.25Z" fill="white"/>
<path opacity="0.4" d="M242.983 217.283C242.981 217.945 242.445 218.481 241.783 218.48C241.122 218.478 240.587 217.94 240.588 217.278C240.589 216.615 241.126 216.079 241.787 216.081C242.448 216.082 242.983 216.62 242.983 217.283Z" fill="white"/>
<path opacity="0.4" d="M254.338 216.085C254.336 217.075 253.534 217.876 252.545 217.874C251.556 217.872 250.757 217.068 250.758 216.078C250.76 215.088 251.562 214.287 252.551 214.289C253.539 214.29 254.339 215.094 254.338 216.085Z" fill="white"/>
<path opacity="0.4" d="M250.476 207.516C250.474 208.506 249.672 209.307 248.684 209.305C247.695 209.303 246.895 208.499 246.896 207.509C246.898 206.519 247.701 205.718 248.689 205.72C249.678 205.721 250.478 206.526 250.476 207.516Z" fill="white"/>
<g opacity="0.4">
<path d="M258.196 179.03C258.196 179.492 257.918 180.284 257.483 180.284L248.568 180.286C248.134 180.286 247.512 179.494 247.512 179.032V178.753C247.512 178.291 248.133 177.768 248.567 177.768L257.482 177.767C257.917 177.767 258.196 178.289 258.196 178.751V179.03H258.196Z" fill="#ABCFFF"/>
<path d="M268.501 211.826C262.304 199.936 257.015 193.57 257.014 191.896C257.014 190.222 256.988 179.151 256.988 179.151L248.798 179.153C248.798 179.153 248.801 190.741 248.801 191.81C248.801 193.391 239.878 208.234 238.298 211.045C236.718 213.856 235.627 216.018 236.096 218.85C236.448 220.976 238.877 221.326 240.094 221.326C241.311 221.325 263.786 221.32 265.659 221.32C267.532 221.319 270.487 220.359 270.484 217.383C270.483 215.295 268.501 211.826 268.501 211.826Z" fill="#ABCFFF"/>
</g>
<path opacity="0.7" d="M257.334 177.766L248.48 177.768C248.049 177.768 247.51 178.215 247.51 178.678V178.958C247.51 178.987 247.533 179.105 247.537 179.135C247.595 178.705 248.075 178.397 248.479 178.397L257.334 178.396C257.738 178.396 258.09 178.703 258.125 179.133C258.128 179.102 258.194 178.985 258.194 178.955V178.676C258.194 178.213 257.766 177.766 257.334 177.766Z" fill="white"/>
<path opacity="0.7" d="M251.131 191.585L251.128 180.063C250.811 180.057 250.495 180.05 250.178 180.044L250.157 191.585C250.157 191.585 241.68 207.619 240.1 210.431C238.52 213.242 237.265 215.927 237.938 218.304C238.524 220.377 240.672 220.738 241.89 220.738L246.843 220.736C244.957 219.9 243.129 218.686 242.638 217.39C241.763 215.079 242.512 212.769 243.55 209.719C244.618 206.58 251.131 191.585 251.131 191.585Z" fill="white"/>
<path d="M361.333 178.266C353.232 178.267 344.565 180.856 336.547 178.954C335.936 180.897 335.601 182.955 335.598 185.067C335.584 193.24 340.688 199.186 347.804 202.251L362.475 202.279C369.613 199.24 374.673 193.315 374.687 185.141C374.689 183.675 374.536 182.234 374.241 180.839C374.177 180.535 369.831 178.266 361.333 178.266Z" fill="#008CBE"/>
<path opacity="0.4" d="M370.292 190.391C370.29 191.644 369.274 192.658 368.022 192.656C366.771 192.654 365.757 191.636 365.76 190.383C365.762 189.129 366.778 188.115 368.03 188.117C369.281 188.119 370.294 189.137 370.292 190.391Z" fill="white"/>
<path opacity="0.4" d="M341.911 186.293C341.909 187.547 340.893 188.561 339.641 188.559C338.39 188.556 337.377 187.539 337.379 186.285C337.381 185.032 338.397 184.018 339.649 184.02C340.9 184.022 341.913 185.04 341.911 186.293Z" fill="white"/>
<path opacity="0.4" d="M357.153 187.746C357.152 188.548 356.501 189.198 355.699 189.197C354.897 189.195 354.249 188.543 354.25 187.74C354.251 186.937 354.902 186.287 355.704 186.289C356.506 186.291 357.155 186.943 357.153 187.746Z" fill="white"/>
<path opacity="0.4" d="M347.535 195.576C347.533 196.629 346.679 197.481 345.629 197.479C344.577 197.477 343.727 196.622 343.729 195.569C343.73 194.516 344.584 193.664 345.636 193.666C346.686 193.669 347.536 194.524 347.535 195.576Z" fill="white"/>
<path opacity="0.4" d="M361.775 197.097C361.773 198.149 360.92 199.001 359.869 198.999C358.818 198.997 357.967 198.142 357.969 197.089C357.971 196.037 358.824 195.185 359.875 195.187C360.927 195.189 361.777 196.044 361.775 197.097Z" fill="white"/>
<g opacity="0.4">
<path d="M361.182 151.296C361.18 152.063 360.558 152.684 359.792 152.683L349.803 152.664C349.037 152.663 348.417 152.04 348.418 151.272C348.419 150.505 349.041 149.884 349.807 149.885L359.797 149.905C360.563 149.905 361.183 150.528 361.182 151.296Z" fill="#ABCFFF"/>
<path opacity="0.7" d="M349.807 150.474L359.796 150.492C360.462 150.494 361.016 150.964 361.149 151.59C361.17 151.495 361.182 151.397 361.182 151.295C361.183 150.528 360.563 149.905 359.797 149.903L349.807 149.885C349.041 149.884 348.419 150.504 348.418 151.272C348.418 151.373 348.429 151.471 348.45 151.566C348.585 150.94 349.141 150.473 349.807 150.474Z" fill="white"/>
<path d="M359.296 165.575L359.318 152.682L350.176 152.664L350.154 165.69C341.77 167.789 335.613 175.926 335.598 185.067C335.584 193.241 340.688 199.186 347.804 202.252L362.475 202.28C369.613 199.241 374.673 193.316 374.687 185.142C374.702 175.796 368.435 167.499 359.296 165.575Z" fill="#ABCFFF"/>
<path opacity="0.7" d="M342.941 183.5C343.328 175.632 345.576 169.581 352.435 167.771L352.455 155.72L351.693 155.719L351.674 167.311C344.053 169.12 338.818 175.9 338.805 183.778C338.793 190.821 343.01 197.95 349.141 200.74C349.141 200.74 342.37 195.103 342.941 183.5Z" fill="white"/>
</g>
<path d="M396.831 226.107H382.014" stroke="#008CBE" stroke-width="2.3" stroke-miterlimit="10"/>
<path d="M398.82 232.017H380.025" stroke="#008CBE" stroke-width="2.3" stroke-miterlimit="10"/>
<path d="M396.392 237.926H382.457" stroke="#008CBE" stroke-width="2.3" stroke-miterlimit="10"/>
<path d="M399.7 209.162H379.078" stroke="#008CBE" stroke-width="2.3" stroke-miterlimit="10"/>
<path d="M396.394 215.072H382.459" stroke="#008CBE" stroke-width="2.3" stroke-miterlimit="10"/>
<path d="M397.078 250.885H381.77" stroke="#008CBE" stroke-width="2.3" stroke-miterlimit="10"/>
<path d="M398.82 256.794H380.025" stroke="#008CBE" stroke-width="2.3" stroke-miterlimit="10"/>
<path d="M396.392 262.704H382.457" stroke="#008CBE" stroke-width="2.3" stroke-miterlimit="10"/>
<path d="M397.08 274.067H381.771" stroke="#008CBE" stroke-width="2.3" stroke-miterlimit="10"/>
<path d="M399.869 279.976H378.969" stroke="#008CBE" stroke-width="2.3" stroke-miterlimit="10"/>
<path d="M378.954 208.094C378.954 208.094 378.726 214.373 388.734 219.665C397.722 224.417 406.091 233.578 388.734 244.323C378.053 250.935 378.265 259.476 384.051 264.297C392.255 271.134 399.892 273.347 399.892 280.69" stroke="#008CBE" stroke-width="2.3" stroke-miterlimit="10"/>
<path d="M399.892 208.094C399.892 208.094 400.12 214.373 390.111 219.665C381.123 224.417 372.754 233.578 390.111 244.323C400.792 250.935 400.58 259.476 394.795 264.297C386.591 271.134 378.953 273.347 378.953 280.69" stroke="#ABCFFF" stroke-width="2.3" stroke-miterlimit="10"/>
<path d="M46.876 226.108H32.0586" stroke="#008CBE" stroke-width="2.3" stroke-miterlimit="10"/>
<path d="M48.8652 232.017H30.0703" stroke="#008CBE" stroke-width="2.3" stroke-miterlimit="10"/>
<path d="M46.437 237.926H32.502" stroke="#008CBE" stroke-width="2.3" stroke-miterlimit="10"/>
<path d="M49.7454 209.162H29.123" stroke="#008CBE" stroke-width="2.3" stroke-miterlimit="10"/>
<path d="M46.439 215.072H32.5039" stroke="#008CBE" stroke-width="2.3" stroke-miterlimit="10"/>
<path d="M47.1234 250.885H31.8145" stroke="#008CBE" stroke-width="2.3" stroke-miterlimit="10"/>
<path d="M48.8652 256.794H30.0703" stroke="#008CBE" stroke-width="2.3" stroke-miterlimit="10"/>
<path d="M46.437 262.704H32.502" stroke="#008CBE" stroke-width="2.3" stroke-miterlimit="10"/>
<path d="M47.1253 274.067H31.8164" stroke="#008CBE" stroke-width="2.3" stroke-miterlimit="10"/>
<path d="M49.9138 279.976H29.0137" stroke="#008CBE" stroke-width="2.3" stroke-miterlimit="10"/>
<path d="M29.0004 208.094C29.0004 208.094 28.7724 214.373 38.7809 219.665C47.7692 224.417 56.1379 233.578 38.7809 244.323C28.1001 250.935 28.3119 259.476 34.0976 264.297C42.3017 271.134 49.9391 273.347 49.9391 280.69" stroke="#008CBE" stroke-width="2.3" stroke-miterlimit="10"/>
<path d="M49.9386 208.094C49.9386 208.094 50.1667 214.373 40.1581 219.665C31.1699 224.417 22.8011 233.578 40.1581 244.323C50.839 250.935 50.6271 259.476 44.8415 264.297C36.6374 271.134 29 273.347 29 280.69" stroke="#ABCFFF" stroke-width="2.3" stroke-miterlimit="10"/>
<path d="M217.44 175.015C217.437 175.01 217.433 175.007 217.43 175.003C217.422 174.97 217.41 174.939 217.39 174.912L216.27 173.406C216.264 173.398 216.254 173.395 216.248 173.388L214.612 171.121C214.508 170.981 214.275 170.977 214.092 171.112L204.376 178.334C204.193 178.47 204.129 178.694 204.234 178.835L206.198 181.558C206.211 181.575 206.23 181.583 206.246 181.596L206.814 182.359C206.814 182.359 207.289 183.116 207.486 183.116C207.682 183.116 208.227 183.007 208.989 183.29C208.989 183.29 209.076 183.42 209.86 182.941C210.644 182.462 215.633 179.566 217.441 177.518C217.441 177.518 217.463 176.974 217.593 176.32C217.723 175.668 217.98 175.775 217.44 175.015Z" fill="#008CBE"/>
<path d="M201.154 181.105L210.652 176.749C210.652 176.749 211.726 176.198 212.25 177.069C212.772 177.94 212.424 178.724 210.739 179.914C209.055 181.105 203.333 185.411 203.333 185.411L201.154 181.105Z" fill="#008CBE"/>
<path d="M199.498 173.657C199.498 174.37 200.077 174.949 200.791 174.949C201.504 174.949 202.083 174.37 202.083 173.657C202.083 172.944 201.504 172.365 200.791 172.365C200.077 172.365 199.498 172.944 199.498 173.657Z" fill="#008CBE"/>
<path d="M204.435 192.196C204.435 192.196 202.152 192.054 201.08 189.931C200.296 188.378 200.558 187.274 200.558 187.274L204.609 188.175C204.609 188.175 205.393 188.465 205.234 187.637C205.074 186.81 204.944 187.028 204.653 186.534C204.363 186.04 203.9 185.344 203.709 184.124C203.52 182.919 201.908 181.453 201.647 181.133C201.385 180.814 200.136 179.783 200.063 178.898C200.063 178.898 199.904 177.235 200.775 174.295L200.47 173.991L197.536 175.834C197.536 175.834 197.987 176.313 197.652 176.676C197.319 177.039 195.763 178.366 194.501 177.329C193.865 176.807 192.308 175.776 190.434 173.032C190.434 173.032 188.379 170.288 187.487 166.128C186.593 161.969 186.876 154.456 189.382 153.454C189.382 153.454 190.014 153.345 190.885 153.454C191.756 153.563 191.451 152.736 191.451 152.736L188.902 147.88C188.902 147.88 187.595 148.489 186.418 150.058C185.242 151.625 183.627 155.298 183.216 158.964C182.795 162.724 182.65 169.657 185.438 174.731C185.438 174.731 187.617 178.753 191.625 182.092C191.625 182.092 188.053 186.099 186.629 189.148C186.629 189.148 186.919 189.671 187.529 190.048L182.983 189.206C182.983 189.206 181.088 192.2 180.385 192.807H204.391L204.435 192.196Z" fill="#008CBE"/>
<path opacity="0.7" d="M202.513 187.572C202.513 187.572 202.503 187.625 202.492 187.705L204.61 188.176C204.61 188.176 204.938 188.293 205.126 188.153L202.513 187.572Z" fill="white"/>
<path opacity="0.7" d="M188.585 189.444C189.268 187.982 190.444 186.301 191.485 184.945C191.018 184.914 190.55 184.857 190.082 184.784C189.067 186.116 187.946 187.732 187.285 189.147C187.285 189.147 187.536 189.592 188.055 189.958L189.251 190.179C188.802 189.831 188.585 189.444 188.585 189.444Z" fill="white"/>
<path d="M202.107 171.295L196.529 174.843L197.527 176.411L203.104 172.864L202.107 171.295Z" fill="#008CBE"/>
<path d="M196.692 171.915L196.531 171.286C196.531 171.286 196.399 170.971 196.531 170.869C196.663 170.767 196.547 170.607 196.692 170.433C196.692 170.433 197.811 169.533 198.13 169.824C198.449 170.114 198.435 169.853 198.653 170.027C198.871 170.201 199.001 170.433 199.001 170.433L196.692 171.915Z" fill="#008CBE"/>
<path d="M195.771 174.874C195.883 175.052 196.115 175.108 196.291 174.998L214.786 163.422C214.961 163.312 215.012 163.078 214.901 162.9L213.962 161.386C213.85 161.208 213.617 161.152 213.442 161.262L194.948 172.838C194.772 172.948 194.721 173.182 194.833 173.36L195.771 174.874Z" fill="#008CBE"/>
<path d="M179.602 199.252C179.602 200.215 180.382 200.994 181.345 200.994H219.771C220.733 200.994 221.514 200.215 221.514 199.252V193.939C221.514 192.976 220.733 192.196 219.771 192.196H181.345C180.382 192.196 179.602 192.976 179.602 193.939V199.252Z" fill="#008CBE"/>
<path d="M178.934 201.749C178.934 202.038 179.168 202.272 179.456 202.272H221.804C222.093 202.272 222.326 202.038 222.326 201.749V200.007C222.326 199.718 222.092 199.484 221.804 199.484H179.456C179.167 199.484 178.934 199.718 178.934 200.007V201.749Z" fill="#008CBE"/>
<path d="M178.526 125.152C178.526 125.152 175.33 127.504 175.563 128.056C175.795 128.607 176.197 129.027 176.197 129.027L183.638 124.368C183.638 124.368 183.289 123.323 182.97 123.294C182.65 123.264 180.646 123.729 178.526 125.152Z" fill="#008CBE"/>
<path d="M189.31 134.472L183.445 137.951L185.099 140.738L190.963 137.259L189.31 134.472Z" fill="#008CBE"/>
<path d="M190.094 134.555L183.638 124.368C183.638 124.368 179.165 125.268 176.115 129.13L183.264 139.137L190.094 134.555Z" fill="#008CBE"/>
<path d="M185.258 133.079C183.988 133.88 182.761 134.814 181.965 136.112C181.829 136.334 181.706 136.563 181.591 136.794L176.115 129.13C179.165 125.268 183.638 124.368 183.638 124.368L188.291 131.71C187.216 131.994 186.185 132.494 185.258 133.079Z" fill="#008CBE"/>
<path d="M187.213 137.463C187.213 137.463 188.43 136.708 189.737 136.011C191.045 135.315 189.999 134.463 189.999 134.463C189.999 134.463 185.497 135.953 183.145 138.944C183.145 138.944 183.596 139.876 184.3 139.366C185.003 138.857 186.483 137.903 187.213 137.463Z" fill="#008CBE"/>
<path d="M177.044 131.453C177.771 132.527 180.21 136.215 180.21 136.215C180.21 136.215 180.443 136.767 180.965 136.447C181.488 136.128 182.832 132.715 188.187 131.547C188.187 131.547 188.488 131.279 188.401 130.902C188.314 130.524 185.753 126.773 185.032 125.791C182.612 125.462 176.318 130.378 177.044 131.453Z" fill="#008CBE"/>
<path d="M191.977 153.132C191.977 153.132 193.303 155.611 193.869 156.003L194.262 155.851C194.262 155.851 194.218 156.134 194.458 156.156C194.458 156.156 194.109 156.438 194.218 156.635C194.327 156.83 194.61 157.179 194.61 157.179C194.61 157.179 194.567 157.331 195.329 156.83C196.091 156.33 208.639 149.291 208.639 149.291C208.639 149.291 208.182 148.359 207.964 148.381C207.745 148.403 207.002 148.795 207.002 148.795C207.002 148.795 207.092 148.403 206.766 148.098C206.439 147.793 205.894 148.098 205.894 148.098L202.648 149.731C202.648 149.731 201.472 149.928 200.426 149.905C199.38 149.883 197.616 149.622 197.616 149.622L191.844 152.693L191.977 153.132Z" fill="#008CBE"/>
<path d="M198.039 149.681C198.626 149.759 199.701 149.89 200.428 149.905C201.474 149.927 202.65 149.731 202.65 149.731L205.896 148.098C205.896 148.098 206.441 147.793 206.768 148.098C206.883 148.206 206.945 148.324 206.978 148.432C205.709 149.156 203.848 149.613 202.509 150.202C201.366 150.196 198.669 150.201 198.039 149.681Z" fill="#008CBE"/>
<path d="M191.098 153.21C191.201 153.388 191.46 153.43 191.676 153.306L198.007 149.639C198.223 149.513 198.315 149.268 198.212 149.09L191.251 137.078C191.148 136.9 190.889 136.858 190.672 136.983L184.341 140.65C184.125 140.775 184.033 141.021 184.136 141.199L191.098 153.21Z" fill="#008CBE"/>
<path d="M186.539 149.291C189.121 149.291 191.213 147.199 191.213 144.619C191.213 142.038 189.121 139.947 186.539 139.947C183.958 139.947 181.865 142.038 181.865 144.619C181.865 147.199 183.958 149.291 186.539 149.291Z" fill="#008CBE"/>
<path d="M182.592 144.619C182.592 146.799 184.359 148.565 186.539 148.565C188.72 148.565 190.487 146.798 190.487 144.619C190.487 142.439 188.72 140.672 186.539 140.672C184.359 140.672 182.592 142.44 182.592 144.619Z" fill="#008CBE"/>
<path d="M202.57 153.607L198.764 155.811L203.195 163.463L207.001 161.259L202.57 153.607Z" fill="#008CBE"/>
<path d="M203.731 155.622L203.822 153.781L203.016 152.388L197.613 155.437L198.397 156.961C198.397 156.961 199.339 157.111 199.903 157.787L203.731 155.622Z" fill="#008CBE"/>
<path d="M304.668 204.607C304.668 204.607 303.2 190.862 310.096 184.314" stroke="#004E73" stroke-miterlimit="10" stroke-linecap="round" stroke-linejoin="round"/>
<path d="M303.031 178.857C304.776 182.372 306.367 187.53 305.336 193.667" stroke="#004E73" stroke-miterlimit="10" stroke-linecap="round" stroke-linejoin="round"/>
<path d="M304.851 184.279C304.851 184.279 303.836 177.188 310.442 176.292C310.442 176.292 312.439 182.407 304.851 184.279Z" fill="#004E73"/>
<path d="M306.947 189.216C306.947 189.216 309.615 184.521 313.965 187.036C313.965 187.036 312.333 191.601 306.947 189.216Z" fill="#004E73"/>
<path d="M305.662 189.674C305.662 189.674 302.994 184.98 298.645 187.494C298.645 187.494 300.276 192.06 305.662 189.674Z" fill="#004E73"/>
<path d="M304.795 196.787C304.795 196.787 309.02 199.417 311.439 195.467C311.439 195.467 308.11 192.485 304.795 196.787Z" fill="#004E73"/>
</svg>
