<svg width="27" height="26" viewBox="0 0 27 26" fill="none" xmlns="http://www.w3.org/2000/svg">
<path d="M13.6306 13.845C13.5548 13.8341 13.4573 13.8341 13.3706 13.845C11.4639 13.78 9.94727 12.22 9.94727 10.3025C9.94727 8.34165 11.5289 6.74915 13.5006 6.74915C15.4614 6.74915 17.0539 8.34165 17.0539 10.3025C17.0431 12.22 15.5373 13.78 13.6306 13.845Z" stroke="#DFDFDF" stroke-width="1.5" stroke-linecap="round" stroke-linejoin="round"/>
<path d="M20.8026 20.995C18.8742 22.7608 16.3176 23.8333 13.5009 23.8333C10.6842 23.8333 8.12755 22.7608 6.19922 20.995C6.30755 19.9767 6.95755 18.98 8.11672 18.2C11.0851 16.2283 15.9384 16.2283 18.8851 18.2C20.0442 18.98 20.6942 19.9767 20.8026 20.995Z" stroke="#DFDFDF" stroke-width="1.5" stroke-linecap="round" stroke-linejoin="round"/>
<path d="M13.4993 23.8334C19.4824 23.8334 24.3327 18.9831 24.3327 13C24.3327 7.01694 19.4824 2.16669 13.4993 2.16669C7.51626 2.16669 2.66602 7.01694 2.66602 13C2.66602 18.9831 7.51626 23.8334 13.4993 23.8334Z" stroke="#DFDFDF" stroke-width="1.5" stroke-linecap="round" stroke-linejoin="round"/>
</svg>
